<?xml version="1.0" encoding="utf-8"?>
<!-- Generator: Adobe Illustrator 20.1.0, SVG Export Plug-In . SVG Version: 6.00 Build 0)  -->
<svg version="1.1" id="Layer_1" xmlns="http://www.w3.org/2000/svg" xmlns:xlink="http://www.w3.org/1999/xlink" x="0px"
     y="0px"
     viewBox="0 0 200 200" style="enable-background:new 0 0 200 200;" xml:space="preserve">
<style type="text/css">
	.st0{display:none;}
	.st1{display:inline;fill:#414042;stroke:#000000;stroke-miterlimit:10;}
	.st2{display:inline;fill:none;stroke:#F7941D;stroke-width:10;stroke-miterlimit:10;}
	.st3{display:inline;fill:#F1F2F2;stroke:#F7941D;stroke-miterlimit:10;}
	.st4{display:inline;fill:#F7941D;stroke:#F7941D;stroke-miterlimit:10;}
	.st5{display:inline;fill:#F7941D;}
	.st6{display:inline;fill:#F7941D;fill-opacity:0.31;}
	.st7{display:inline;fill:#F1F2F2;}
	.st8{font-family:'MyriadPro-Regular';}
	.st9{font-size:47.9526px;}
	.st10{display:none;fill:#FFFFFF;enable-background:new    ;}
	.st11{font-size:37.4805px;}
	.st12{font-size:41.6031px;}
	.st13{fill:#B2B2B2;}
	.st14{fill:#A36A69;}
	.st15{fill:#C4C4C4;}
</style>
    <g id="Layer_1_3_">
	<g id="Layer_1_2_">
		<g id="Layer_1_1_" class="st0">
			<rect x="-4" y="-4.1" class="st1" width="206" height="204.1"/>
		</g>
        <g id="vertexAlign" class="st0">
			<line class="st2" x1="33.4" y1="174.4" x2="167.8" y2="25"/>
            <circle class="st3" cx="110.3" cy="35" r="7"/>
            <circle class="st3" cx="61.2" cy="62.6" r="7"/>
            <circle class="st3" cx="36.9" cy="113.6" r="7"/>
            <circle class="st3" cx="33.3" cy="174.5" r="7"/>
            <circle class="st3" cx="166.7" cy="26.1" r="7"/>
		</g>
        <g id="CameraTool" class="st0">
			<polyline class="st4" points="141.4,120.8 177,90 177.1,151.5 141.4,120.8 			"/>
            <path class="st4" d="M133.6,151.6H47.4c-6.6,0-12-5.4-12-12V102c0-6.6,5.4-12,12-12h86.2c6.6,0,12,5.4,12,12v37.6
				C145.6,146.2,140.2,151.6,133.6,151.6z"/>
            <circle class="st4" cx="119.4" cy="62.8" r="28.7"/>
            <path class="st4" d="M90.1,63.4c0,15.9-12.9,28.7-28.7,28.7c-15.9,0-28.7-12.8-28.7-28.7s12.8-28.7,28.7-28.7
				C77.3,34.7,90.1,47.5,90.1,63.4z"/>
		</g>
        <g id="Texel" class="st0">
			<rect x="98.7" y="79.3" class="st5" width="60.4" height="55.3"/>
            <rect x="38.3" y="24" class="st5" width="60.4" height="55.3"/>
            <rect x="38.3" y="79.3" class="st6" width="60.4" height="55.3"/>
            <rect x="98.7" y="24" class="st6" width="60.4" height="55.3"/>
            <text transform="matrix(1.007 0 0 1 38.3325 175.3447)" class="st7 st8 st9">TEXEL</text>
		</g>
	</g>
        <text transform="matrix(1 0 0 1 53.6445 183.6221)" class="st10 st8 st11">TEXEL</text>
</g>
    <g id="Layer_2_1_">
	<g id="Layer_2">
		<text transform="matrix(0.9928 0 0 1 42.9121 181.2773)" class="st10 st8 st12">CHECKER</text>
        <rect x="43.7" y="28.7" class="st13" width="112.6" height="112.8"/>
	</g>
        <g id="Layer_3">
		<rect x="43.7" y="28.7" class="st14" width="37.4" height="37.4"/>
	</g>
        <g id="Layer_3_1_">
		<rect x="118.2" y="28.8" class="st14" width="38.5" height="37.4"/>
	</g>
        <g id="Layer_3_4_">
		<rect x="81" y="66.3" class="st14" width="37.4" height="37.4"/>
	</g>
        <g id="Layer_3_3_">
		<rect x="43.7" y="103.8" class="st14" width="37.4" height="37.4"/>
	</g>
        <g id="Layer_3_2_">
		<rect x="119.3" y="103.9" class="st14" width="37.4" height="37.4"/>
	</g>
</g>
    <g id="Layer_3_5_">
	<rect x="23.9" y="151.5" class="st15" width="10.5" height="21.1"/>
        <rect x="23.9" y="166.4" class="st15" width="152.8" height="6.3"/>
        <rect x="46" y="159.9" class="st15" width="115.9" height="7.5"/>
        <rect x="166.2" y="151.5" class="st15" width="10.5" height="21.1"/>
        <rect x="37.7" y="151.5" class="st15" width="10.5" height="21.1"/>
        <rect x="50.3" y="151.5" class="st15" width="10.5" height="21.1"/>
        <rect x="63.5" y="151.5" class="st15" width="10.5" height="21.1"/>
        <rect x="76.1" y="151.5" class="st15" width="10.5" height="21.1"/>
        <rect x="89.3" y="151.5" class="st15" width="10.5" height="21.1"/>
        <rect x="101.9" y="151.5" class="st15" width="10.5" height="21.1"/>
        <rect x="114.9" y="151.5" class="st15" width="10.5" height="21.1"/>
        <rect x="127.7" y="151.5" class="st15" width="10.5" height="21.1"/>
        <rect x="140.4" y="151.5" class="st15" width="10.5" height="21.1"/>
        <rect x="153.2" y="151.5" class="st15" width="10.5" height="21.1"/>
</g>
</svg>
