<?xml version="1.0" encoding="utf-8"?>
<!-- Generator: Adobe Illustrator 20.1.0, SVG Export Plug-In . SVG Version: 6.00 Build 0)  -->
<svg version="1.1" xmlns="http://www.w3.org/2000/svg" xmlns:xlink="http://www.w3.org/1999/xlink" x="0px" y="0px"
     viewBox="0 0 200 200" style="enable-background:new 0 0 200 200;" xml:space="preserve">
<style type="text/css">
	.st0{display:none;}
	.st1{display:inline;}
	.st2{fill:#474747;stroke:#000000;stroke-width:10;stroke-miterlimit:10;}
	.st3{display:inline;fill:#414042;stroke:#000000;stroke-miterlimit:10;}
	.st4{display:inline;fill:none;stroke:#F7941D;stroke-width:10;stroke-miterlimit:10;}
	.st5{display:inline;fill:#F1F2F2;stroke:#F7941D;stroke-miterlimit:10;}
	.st6{display:inline;fill:#F7941D;stroke:#F7941D;stroke-miterlimit:10;}
	.st7{display:inline;fill:#F7941D;}
	.st8{display:inline;fill:#F7941D;fill-opacity:0.31;}
	.st9{display:inline;fill:#F1F2F2;}
	.st10{font-family:'MyriadPro-Regular';}
	.st11{font-size:47.9526px;}
	.st12{display:none;fill:#FFFFFF;enable-background:new    ;}
	.st13{font-size:41.3342px;}
	.st14{fill:#D1D1D1;}
	.st15{fill:#FFFFFF;}
	.st16{fill:#939393;}
	.st17{fill:#282828;}
	.st18{display:inline;fill:#919191;}
	.st19{display:inline;fill:#BFBFBF;}
	.st20{display:inline;fill:#282828;}
	.st21{display:inline;fill:#FFFFFF;}
	.st22{font-size:44.5484px;}
	.st23{display:inline;fill:#A0A0A0;stroke:#000000;}
	.st24{fill:#C1C1C1;}
	.st25{fill:none;stroke:#7AEA39;stroke-miterlimit:10;}
	.st26{fill:none;stroke:#7AEA39;stroke-miterlimit:10;stroke-dasharray:8.8838,5.5524;}
	.st27{fill:none;stroke:#7AEA39;stroke-miterlimit:10;stroke-dasharray:7.4327,4.6454;}
	.st28{fill:none;stroke:#7AEA39;stroke-miterlimit:10;stroke-dasharray:8.0058,5.0036;}
	.st29{fill:#9B9B9B;}
	.st30{fill:none;stroke:#7AEA39;stroke-miterlimit:10;stroke-dasharray:8.7738,5.4837;}
	.st31{fill:none;stroke:#7AEA39;stroke-miterlimit:10;stroke-dasharray:8.8585,5.5365;}
	.st32{fill:none;stroke:#7AEA39;stroke-miterlimit:10;stroke-dasharray:8.1481,5.0926;}
	.st33{fill:none;stroke:#7AEA39;stroke-miterlimit:10;stroke-dasharray:8.7687,5.4804;}
	.st34{fill:#878787;}
	.st35{fill:none;stroke:#7AEA39;stroke-miterlimit:10;stroke-dasharray:8.2105,5.1316;}
	.st36{fill:none;stroke:#7AEA39;stroke-miterlimit:10;stroke-dasharray:7.0104,4.3815;}
	.st37{fill:none;stroke:#7AEA39;stroke-miterlimit:10;stroke-dasharray:8.2924,5.1827;}
	.st38{fill:none;stroke:#7AEA39;stroke-miterlimit:10;stroke-dasharray:8.9541,5.5963;}
	.st39{fill:#727272;}
	.st40{fill:none;stroke:#7AEA39;stroke-miterlimit:10;stroke-dasharray:8.1189,5.0743;}
	.st41{fill:none;stroke:#7AEA39;stroke-miterlimit:10;stroke-dasharray:8.5093,5.3183;}
	.st42{fill:none;stroke:#7AEA39;stroke-miterlimit:10;stroke-dasharray:7.1629,4.4768;}
	.st43{fill:none;stroke:#7AEA39;stroke-miterlimit:10;stroke-dasharray:8.16,5.1;}
	.st44{fill:#8C8C8C;}
	.st45{fill:none;stroke:#7AEA39;stroke-miterlimit:10;stroke-dasharray:9.038,5.6487;}
	.st46{fill:none;stroke:#7AEA39;stroke-miterlimit:10;stroke-dasharray:8.9305,5.5815;}
	.st47{fill:none;stroke:#7AEA39;stroke-miterlimit:10;stroke-dasharray:8.6178,5.3861;}
	.st48{fill:none;stroke:#7AEA39;stroke-miterlimit:10;stroke-dasharray:7.037,4.3981;}
	.st49{fill:#A8A8A8;}
	.st50{fill:none;stroke:#7AEA39;stroke-miterlimit:10;stroke-dasharray:7.4766,4.6729;}
	.st51{fill:none;stroke:#7AEA39;stroke-miterlimit:10;stroke-dasharray:8.5483,5.3427;}
	.st52{fill:none;stroke:#7AEA39;stroke-miterlimit:10;stroke-dasharray:7.7195,4.8247;}
	.st53{fill:none;stroke:#7AEA39;stroke-miterlimit:10;stroke-dasharray:8.8818,5.5511;}
	.st54{fill:#666666;}
	.st55{fill:none;stroke:#7AEA39;stroke-miterlimit:10;stroke-dasharray:8.8845,5.5528;}
	.st56{fill:none;stroke:#7AEA39;stroke-miterlimit:10;stroke-dasharray:7.8087,4.8804;}
	.st57{fill:none;stroke:#7AEA39;stroke-miterlimit:10;stroke-dasharray:7.1795,4.4872;}
	.st58{fill:none;stroke:#7AEA39;stroke-miterlimit:10;stroke-dasharray:8.3065,5.1915;}
	.st59{fill:none;stroke:#7AEA39;stroke-miterlimit:10;stroke-dasharray:6.6418,4.1512;}
	.st60{fill:none;stroke:#7AEA39;stroke-miterlimit:10;stroke-dasharray:8.0748,5.0468;}
	.st61{fill:none;stroke:#7AEA39;stroke-miterlimit:10;stroke-dasharray:8.4875,5.3047;}
	.st62{fill:none;stroke:#7AEA39;stroke-miterlimit:10;stroke-dasharray:7.2679,4.5425;}
	.st63{fill:none;stroke:#7AEA39;stroke-miterlimit:10;stroke-dasharray:8.5482,5.3426;}
	.st64{fill:none;stroke:#7AEA39;stroke-miterlimit:10;stroke-dasharray:7.0562,4.4102;}
	.st65{fill:none;stroke:#7AEA39;stroke-miterlimit:10;stroke-dasharray:9.0943,5.6839;}
	.st66{fill:none;stroke:#7AEA39;stroke-miterlimit:10;stroke-dasharray:7.9025,4.9391;}
	.st67{display:inline;fill:none;stroke:#7AEA39;stroke-width:3;stroke-miterlimit:10;}
	.st68{fill:#2AD159;}
	.st69{fill:#E5E5E5;stroke:#000000;stroke-width:2;stroke-miterlimit:10;}
	.st70{fill:none;stroke:#8F181A;stroke-width:20;stroke-miterlimit:5;}
	.st71{fill:#8F181A;}
	.st72{fill:#F2F2F2;}
	.st73{font-size:29.0429px;}
</style>
    <g id="Layer_1" class="st0">
	<g id="Layer_2_1_" class="st1">
		<rect x="-7" y="-17" class="st2" width="216" height="229"/>
	</g>
        <g id="Layer_1_3_">
		<g id="Layer_1_2_" class="st1">
			<g id="Layer_1_1_" class="st0">
				<rect x="-4" y="-4.1" class="st3" width="206" height="204.1"/>
			</g>
            <g id="vertexAlign" class="st0">
				<line class="st4" x1="33.4" y1="174.4" x2="167.8" y2="25"/>
                <circle class="st5" cx="110.3" cy="35" r="7"/>
                <circle class="st5" cx="61.2" cy="62.6" r="7"/>
                <circle class="st5" cx="36.9" cy="113.6" r="7"/>
                <circle class="st5" cx="33.3" cy="174.5" r="7"/>
                <circle class="st5" cx="166.7" cy="26.1" r="7"/>
			</g>
            <g id="CameraTool" class="st0">
				<polyline class="st6" points="141.4,120.8 177,90 177.1,151.5 141.4,120.8 				"/>
                <path class="st6" d="M133.6,151.6H47.4c-6.6,0-12-5.4-12-12V102c0-6.6,5.4-12,12-12h86.2c6.6,0,12,5.4,12,12v37.6
					C145.6,146.2,140.2,151.6,133.6,151.6z"/>
                <circle class="st6" cx="119.4" cy="62.8" r="28.7"/>
                <path class="st6" d="M90.1,63.4c0,15.9-12.9,28.7-28.7,28.7c-15.9,0-28.7-12.8-28.7-28.7s12.8-28.7,28.7-28.7
					C77.3,34.7,90.1,47.5,90.1,63.4z"/>
			</g>
            <g id="Texel" class="st0">
				<rect x="98.7" y="79.3" class="st7" width="60.4" height="55.3"/>
                <rect x="38.3" y="24" class="st7" width="60.4" height="55.3"/>
                <rect x="38.3" y="79.3" class="st8" width="60.4" height="55.3"/>
                <rect x="98.7" y="24" class="st8" width="60.4" height="55.3"/>
                <text transform="matrix(1.007 0 0 1 38.3325 175.3447)" class="st9 st10 st11">TEXEL</text>
			</g>
		</g>
            <g id="Layer_2" class="st1">
			<text transform="matrix(1 0 0 1 17.4229 206.5332)" class="st12 st10 st13">CHECKER</text>
                <rect x="18.3" y="54.9" class="st14" width="112.8" height="112.1"/>
                <polyline class="st15" points="76.1,27.3 18.3,54.9 131.1,54.9 180.8,27.3 			"/>
                <path class="st16" d="M130.8,54.9l50-27.6c0.4,36.8,0.9,71.1,1.3,107.8c-17,9.9-34.1,22.3-51.1,32.2"/>
		</g>
            <g id="Layer_3" class="st1">
			<rect x="18.3" y="54.9" class="st17" width="24" height="24"/>
                <rect x="42.1" y="79" class="st17" width="24" height="24"/>
                <rect x="90.9" y="79.3" class="st17" width="24" height="24"/>
                <rect x="66.7" y="54.9" class="st17" width="24" height="24"/>
                <rect x="115" y="54.9" class="st17" width="16.1" height="24"/>
                <rect x="17.4" y="102.8" class="st17" width="24" height="24"/>
                <rect x="42.4" y="126.9" class="st17" width="24" height="24"/>
                <rect x="91.1" y="127.2" class="st17" width="24" height="24"/>
                <rect x="67" y="102.8" class="st17" width="24" height="24"/>
                <rect x="115.2" y="102.8" class="st17" width="16.1" height="24"/>
                <rect x="18.3" y="150.8" class="st17" width="24" height="16.5"/>
                <rect x="66.7" y="150.8" class="st17" width="24" height="16.5"/>
                <rect x="115" y="150.8" class="st17" width="16.1" height="16.5"/>
		</g>
            <g id="Layer_4" class="st1">
			<polyline points="130.8,54.9 150.5,44.3 150.5,78.9 130.9,89.6 			"/>
                <polyline points="169.2,33.5 169.2,67.9 181.9,60 181.9,27 			"/>
                <polyline points="150.5,78.9 169.2,67.9 169.2,102.8 150.5,114.8 			"/>
                <polyline points="131.3,125.1 151,114.5 151,149 131.5,159.7 			"/>
                <polyline points="169.7,102.5 169.7,137 182.5,129.1 182.5,96 			"/>
                <polyline points="151,154.9 151,149 169.7,137 169.7,142.7 			"/>
		</g>
            <g id="Layer_5" class="st1">
			<polyline class="st17" points="18.4,54.8 46.8,41.3 52.4,41.3 24.8,54.9 			"/>
                <polyline class="st17" points="32.2,54.6 59.5,41.7 66.3,41.7 38.6,54.7 			"/>
                <polyline class="st17" points="45,54.9 72.3,41.9 79,41.9 51.4,54.9 			"/>
                <polyline class="st17" points="58.9,54.6 86.1,41.7 92.9,41.7 65.3,54.7 			"/>
                <polyline class="st17" points="71.2,54.7 99.3,41.3 106.1,41.3 77.3,54.9 			"/>
                <polyline class="st17" points="84.6,54.7 113.2,41.1 119.9,41.1 91.1,54.7 			"/>
                <polyline class="st17" points="99,54.9 126.3,40.8 133.1,40.6 105,54.9 			"/>
                <polyline class="st17" points="112.1,54.6 139.1,40.7 145.9,40.4 117.6,54.9 			"/>
                <polyline class="st17" points="123.9,54.9 151.5,40.7 157.6,40.5 131.1,54.9 			"/>
                <polyline class="st17" points="53,41.4 81.4,27.9 87,27.9 59.4,41.4 			"/>
                <polyline class="st17" points="66.9,41.1 94.1,28.2 100.9,28.2 73.3,41.2 			"/>
                <polyline class="st17" points="79.7,41.4 106.9,28.4 113.7,28.4 86.1,41.4 			"/>
                <polyline class="st17" points="92.4,41.2 119.7,28.2 126.5,28.2 98.8,41.2 			"/>
                <polyline class="st17" points="105.9,41.2 133.9,27.9 140.7,27.9 111.9,41.4 			"/>
                <polyline class="st17" points="119.3,41.2 147.8,27.6 154.6,27.6 125.8,41.2 			"/>
                <polyline class="st17" points="131.9,40.7 159.2,26.6 166,26.4 137.9,40.7 			"/>
                <polyline class="st17" points="144.5,41.1 171.6,27.2 178.4,27 150.1,41.4 			"/>
		</g>
	</g>
        <g id="Layer_3_1_">
		<rect x="29" y="45" class="st18" width="111" height="111"/>
            <polygon class="st19" points="29,45 84.5,27 163,27 140,45 		"/>
            <polygon class="st20" points="140,45 163,27 163,123 140,156 		"/>
	</g>
        <g id="Layer_6">
		<text transform="matrix(1 0 0 1 23.5 172.9932)" class="st21 st10 st22">ENGINE </text>
	</g>
        <g id="Layer_5_1_">
		<rect x="27.1" y="70" class="st23" width="113.2" height="66.2"/>
            <rect x="140.3" y="79" class="st23" width="12.8" height="47.9"/>
            <polygon class="st23" points="177,70 153,79 153,127 177,136.2 		"/>
            <ellipse class="st23" cx="57.5" cy="41.6" rx="27.2" ry="28.4"/>
            <ellipse class="st23" cx="112.4" cy="41.8" rx="27.2" ry="28.4"/>
	</g>
</g>
    <g id="Layer_4_2_" class="st0">
	
		<image style="display:inline;overflow:visible;" width="416" height="507"
               xlink:href="../AppData/Local/Temp/vmware-r_volodyn/VMwareDnD/e6a6235c/Capture.JPG"
               transform="matrix(0.4608 8.415729e-02 -8.415729e-02 0.4608 17.3276 -27.3375)">
	</image>
</g>
    <g id="Layer_3_2_" class="st0">
	<g class="st1">
		<polygon class="st24" points="69,20.4 100.8,12.5 63.8,55.7 39.1,54.4 		"/>
        <g>
			<polyline class="st25" points="96.9,13.5 100.8,12.5 98.2,15.5 			"/>
            <line class="st26" x1="94.6" y1="19.8" x2="68.2" y2="50.5"/>
            <polyline class="st25" points="66.4,52.7 63.8,55.7 59.8,55.5 			"/>
            <line class="st27" x1="55.2" y1="55.3" x2="45.4" y2="54.8"/>
            <polyline class="st25" points="43.1,54.6 39.1,54.4 41.7,51.4 			"/>
            <polyline class="st28" points="45.1,47.7 69,20.4 94.5,14.1 			"/>
		</g>
	</g>
        <g class="st1">
		<polygon class="st29" points="64.1,55.7 105.5,62.9 139.4,17.4 100.1,12.5 		"/>
            <g>
			<polyline class="st25" points="66.7,52.6 64.1,55.7 68.1,56.4 			"/>
                <line class="st30" x1="73.5" y1="57.3" x2="98.9" y2="61.7"/>
                <polyline class="st25" points="101.6,62.2 105.5,62.9 107.9,59.7 			"/>
                <line class="st31" x1="111.2" y1="55.2" x2="135.3" y2="22.8"/>
                <polyline class="st25" points="137,20.6 139.4,17.4 135.4,16.9 			"/>
                <line class="st32" x1="130.4" y1="16.3" x2="106.6" y2="13.3"/>
                <polyline class="st25" points="104.1,13 100.1,12.5 97.6,15.6 			"/>
                <line class="st33" x1="94.1" y1="19.8" x2="68.4" y2="50.5"/>
		</g>
	</g>
        <g class="st1">
		<polygon class="st34" points="105.5,63.2 143,76.6 172.1,40.3 139.4,17.1 		"/>
            <g>
			<polyline class="st25" points="107.9,60 105.5,63.2 109.3,64.6 			"/>
                <line class="st35" x1="114.1" y1="66.3" x2="136.8" y2="74.4"/>
                <polyline class="st25" points="139.2,75.3 143,76.6 145.5,73.5 			"/>
                <line class="st36" x1="148.2" y1="70.1" x2="168.2" y2="45.1"/>
                <polyline class="st25" points="169.6,43.4 172.1,40.3 168.9,38 			"/>
                <line class="st37" x1="164.6" y1="35" x2="144.8" y2="20.9"/>
                <polyline class="st25" points="142.7,19.4 139.4,17.1 137,20.3 			"/>
                <line class="st38" x1="133.7" y1="24.8" x2="109.5" y2="57.7"/>
		</g>
	</g>
        <g class="st1">
		<polygon class="st39" points="142.7,76.6 132.3,128.3 92.1,120.4 105.5,62.9 		"/>
            <g>
			<polyline class="st25" points="138.9,75.3 142.7,76.6 141.9,80.6 			"/>
                <line class="st40" x1="140.9" y1="85.5" x2="133.6" y2="121.8"/>
                <polyline class="st25" points="133.1,124.3 132.3,128.3 128.3,127.5 			"/>
                <line class="st41" x1="123.1" y1="126.5" x2="98.6" y2="121.7"/>
                <polyline class="st25" points="96,121.1 92.1,120.4 93,116.5 			"/>
                <line class="st42" x1="94" y1="112.1" x2="104.1" y2="69"/>
                <polyline class="st25" points="104.6,66.8 105.5,62.9 109.3,64.3 			"/>
                <line class="st43" x1="114" y1="66.1" x2="136.5" y2="74.4"/>
		</g>
	</g>
        <g class="st1">
		<polygon class="st44" points="105.5,62.9 63.1,55.4 51.7,111.3 92.3,119.5 		"/>
            <g>
			<polyline class="st25" points="104.6,66.8 105.5,62.9 101.6,62.2 			"/>
                <line class="st45" x1="96" y1="61.2" x2="69.9" y2="56.6"/>
                <polyline class="st25" points="67.1,56.1 63.1,55.4 62.3,59.3 			"/>
                <line class="st46" x1="61.2" y1="64.8" x2="53.1" y2="104.7"/>
                <polyline class="st25" points="52.5,107.4 51.7,111.3 55.6,112.1 			"/>
                <line class="st47" x1="60.9" y1="113.2" x2="85.7" y2="118.2"/>
                <polyline class="st25" points="88.3,118.7 92.3,119.5 93.2,115.6 			"/>
                <line class="st48" x1="94.2" y1="111.3" x2="104.1" y2="68.9"/>
		</g>
	</g>
        <g class="st1">
		<polygon class="st49" points="63.1,55.7 38.3,54.7 26.2,108.4 51.4,111.3 		"/>
            <g>
			<polyline class="st25" points="62.3,59.6 63.1,55.7 59.1,55.5 			"/>
                <line class="st50" x1="54.4" y1="55.4" x2="44.6" y2="55"/>
                <polyline class="st25" points="42.3,54.9 38.3,54.7 37.4,58.6 			"/>
                <line class="st51" x1="36.2" y1="63.8" x2="27.6" y2="101.9"/>
                <polyline class="st25" points="27,104.5 26.2,108.4 30.1,108.8 			"/>
                <line class="st52" x1="34.9" y1="109.4" x2="45" y2="110.6"/>
                <polyline class="st25" points="47.4,110.9 51.4,111.3 52.2,107.4 			"/>
                <line class="st53" x1="53.3" y1="102" x2="61.7" y2="62.3"/>
		</g>
	</g>
        <g class="st1">
		<polygon class="st54" points="131.9,127 145.3,167.3 108.3,177.1 92.3,120.2 		"/>
            <g>
			<polyline class="st25" points="127.9,126.3 131.9,127 133.1,130.8 			"/>
                <line class="st55" x1="134.9" y1="136.1" x2="143.1" y2="160.9"/>
                <polyline class="st25" points="144,163.5 145.3,167.3 141.4,168.3 			"/>
                <line class="st56" x1="136.7" y1="169.6" x2="114.5" y2="175.4"/>
                <polyline class="st25" points="112.2,176.1 108.3,177.1 107.2,173.2 			"/>
                <line class="st57" x1="106" y1="168.9" x2="94" y2="126.2"/>
                <polyline class="st25" points="93.4,124 92.3,120.2 96.2,120.8 			"/>
                <line class="st58" x1="101.3" y1="121.7" x2="125.4" y2="125.9"/>
		</g>
	</g>
        <g class="st1">
		<polygon class="st54" points="108,177.1 74.6,172.2 52,110.7 91.9,119.5 		"/>
            <g>
			<polyline class="st25" points="106.9,173.2 108,177.1 104,176.5 			"/>
                <line class="st59" x1="99.9" y1="175.9" x2="80.6" y2="173.1"/>
                <polyline class="st25" points="78.6,172.8 74.6,172.2 73.2,168.4 			"/>
                <line class="st60" x1="71.5" y1="163.7" x2="54.3" y2="116.8"/>
                <polyline class="st25" points="53.4,114.4 52,110.7 55.9,111.5 			"/>
                <line class="st61" x1="61.1" y1="112.7" x2="85.4" y2="118.1"/>
                <polyline class="st25" points="88,118.6 91.9,119.5 93,123.4 			"/>
                <line class="st62" x1="94.2" y1="127.7" x2="106.3" y2="171.1"/>
		</g>
	</g>
        <g class="st1">
		<polygon class="st54" points="52.3,111.3 25.2,108.4 47.1,162.4 73.9,171.9 		"/>
            <g>
			<polyline class="st25" points="53.6,115.1 52.3,111.3 48.3,110.9 			"/>
                <line class="st63" x1="43" y1="110.3" x2="31.8" y2="109.1"/>
                <polyline class="st25" points="29.2,108.8 25.2,108.4 26.7,112.1 			"/>
                <line class="st64" x1="28.4" y1="116.2" x2="44.8" y2="156.6"/>
                <polyline class="st25" points="45.6,158.7 47.1,162.4 50.9,163.7 			"/>
                <line class="st65" x1="56.2" y1="165.6" x2="67.5" y2="169.6"/>
                <polyline class="st25" points="70.2,170.5 73.9,171.9 72.6,168.1 			"/>
                <line class="st66" x1="70.9" y1="163.4" x2="54.4" y2="117.4"/>
		</g>
	</g>
</g>
    <g id="Layer_5_2_" class="st0">
	<line class="st67" x1="68.4" y1="20.3" x2="39.1" y2="54.7"/>
        <line class="st67" x1="25.5" y1="108.4" x2="39.1" y2="54.7"/>
        <line class="st67" x1="47" y1="162.4" x2="25.5" y2="108.4"/>
        <line class="st67" x1="74.5" y1="171.9" x2="47" y2="162.4"/>
        <line class="st67" x1="108.3" y1="177.1" x2="74.5" y2="171.9"/>
        <line class="st67" x1="145.2" y1="167.1" x2="108.3" y2="177.1"/>
        <line class="st67" x1="131.9" y1="126.5" x2="145.2" y2="167.1"/>
        <line class="st67" x1="142.6" y1="77" x2="131.9" y2="126.5"/>
        <line class="st67" x1="172.1" y1="40.4" x2="142.6" y2="77"/>
        <line class="st67" x1="139" y1="17.5" x2="172.1" y2="40.4"/>
        <line class="st67" x1="100.8" y1="12.5" x2="139" y2="17.5"/>
        <line class="st67" x1="68.4" y1="20.3" x2="100.8" y2="12.5"/>
</g>
    <g id="Layer_6_1_" class="st0">
	<g id="Layer_4_1_" class="st1">
		<polygon class="st68"
                 points="114.8,144.6 136.5,183.9 143.5,183.9 187.3,119.9 181.6,118.5 140,176.1 118.1,141.5 		"/>
	</g>
</g>
    <g id="Layer_7">
	<polygon class="st69" points="84.8,25.7 44.3,140.7 142.8,140.7 181.6,25.7 	"/>
</g>
    <g id="Layer_8">
	<g>
		<g>
			<line class="st70" x1="22.4" y1="81.5" x2="98.4" y2="81.5"/>
            <g>
				<polygon class="st71" points="91.2,106.4 134.3,81.5 91.2,56.6 				"/>
			</g>
		</g>
	</g>
        <text transform="matrix(1 0 0 1 26.1875 179.7646)" class="st72 st10 st73">LOD CREATE</text>
</g>
</svg>
