<?xml version="1.0" encoding="utf-8"?>
<!-- Generator: Adobe Illustrator 20.1.0, SVG Export Plug-In . SVG Version: 6.00 Build 0)  -->
<svg version="1.1" id="Layer_1" xmlns="http://www.w3.org/2000/svg" xmlns:xlink="http://www.w3.org/1999/xlink" x="0px" y="0px"
	 viewBox="0 0 200 200" style="enable-background:new 0 0 200 200;" xml:space="preserve">
<style type="text/css">
	.st0{display:none;}
	.st1{display:inline;fill:#414042;stroke:#000000;stroke-miterlimit:10;}
	.st2{display:inline;fill:none;stroke:#F7941D;stroke-width:10;stroke-miterlimit:10;}
	.st3{display:inline;fill:#F1F2F2;stroke:#F7941D;stroke-miterlimit:10;}
	.st4{display:inline;fill:#F7941D;stroke:#F7941D;stroke-miterlimit:10;}
	.st5{display:inline;fill:#F7941D;}
	.st6{display:inline;fill:#F7941D;fill-opacity:0.31;}
	.st7{display:inline;fill:#F1F2F2;}
	.st8{font-family:'MyriadPro-Regular';}
	.st9{font-size:47.9526px;}
	.st10{display:none;fill:#FFFFFF;enable-background:new    ;}
	.st11{font-size:41.4863px;}
	.st12{font-size:48.9839px;}
	.st13{fill:#B2B2B2;}
	.st14{fill:#A36A69;}
</style>
<g id="Layer_1_3_">
	<g id="Layer_1_2_">
		<g id="Layer_1_1_" class="st0">
			<rect x="-4" y="-4.1" class="st1" width="206" height="204.1"/>
		</g>
		<g id="vertexAlign" class="st0">
			<line class="st2" x1="33.4" y1="174.4" x2="167.8" y2="25"/>
			<circle class="st3" cx="110.3" cy="35" r="7"/>
			<circle class="st3" cx="61.2" cy="62.6" r="7"/>
			<circle class="st3" cx="36.9" cy="113.6" r="7"/>
			<circle class="st3" cx="33.3" cy="174.5" r="7"/>
			<circle class="st3" cx="166.7" cy="26.1" r="7"/>
		</g>
		<g id="CameraTool" class="st0">
			<polyline class="st4" points="141.4,120.8 177,90 177.1,151.5 141.4,120.8 			"/>
			<path class="st4" d="M133.6,151.6H47.4c-6.6,0-12-5.4-12-12V102c0-6.6,5.4-12,12-12h86.2c6.6,0,12,5.4,12,12v37.6
				C145.6,146.2,140.2,151.6,133.6,151.6z"/>
			<circle class="st4" cx="119.4" cy="62.8" r="28.7"/>
			<path class="st4" d="M90.1,63.4c0,15.9-12.9,28.7-28.7,28.7c-15.9,0-28.7-12.8-28.7-28.7s12.8-28.7,28.7-28.7
				C77.3,34.7,90.1,47.5,90.1,63.4z"/>
		</g>
		<g id="Texel" class="st0">
			<rect x="98.7" y="79.3" class="st5" width="60.4" height="55.3"/>
			<rect x="38.3" y="24" class="st5" width="60.4" height="55.3"/>
			<rect x="38.3" y="79.3" class="st6" width="60.4" height="55.3"/>
			<rect x="98.7" y="24" class="st6" width="60.4" height="55.3"/>
			<text transform="matrix(1.007 0 0 1 38.3325 175.3447)" class="st7 st8 st9">TEXEL</text>
		</g>
	</g>
	<text transform="matrix(1 0 0 1 18.6484 179.6211)" class="st10 st8 st11">CHECKER</text>
</g>
<g id="Layer_2_1_">
	<g id="Layer_2">
		<text transform="matrix(1 0 0 1 32.7749 211.6553)" class="st10 st8 st12">CHECKER</text>
		<rect x="33.8" y="32" class="st13" width="133.6" height="132.7"/>
	</g>
	<g id="Layer_3">
		<rect x="33.8" y="32" class="st14" width="27.8" height="28.9"/>
		<rect x="61.5" y="61" class="st14" width="29.3" height="28.4"/>
		<rect x="119.4" y="61.4" class="st14" width="28.4" height="28.4"/>
		<rect x="90.7" y="32" class="st14" width="28.4" height="28.9"/>
		<rect x="147.9" y="31.8" class="st14" width="19.5" height="29"/>
		<rect x="33.8" y="89.2" class="st14" width="27.8" height="28.4"/>
		<rect x="61.5" y="118.1" class="st14" width="28.4" height="28.4"/>
		<rect x="119.5" y="118.1" class="st14" width="28.4" height="28.4"/>
		<rect x="91" y="89.2" class="st14" width="28.4" height="28.4"/>
		<rect x="148.2" y="89.2" class="st14" width="19.2" height="28.4"/>
		<rect x="33.8" y="146" class="st14" width="27.8" height="18.7"/>
		<rect x="90.7" y="146" class="st14" width="28.4" height="18.7"/>
		<rect x="147.9" y="146" class="st14" width="19.5" height="18.7"/>
	</g>
</g>
</svg>
