<?xml version="1.0" encoding="utf-8"?>
<!-- Generator: Adobe Illustrator 20.1.0, SVG Export Plug-In . SVG Version: 6.00 Build 0)  -->
<svg version="1.1" xmlns="http://www.w3.org/2000/svg" xmlns:xlink="http://www.w3.org/1999/xlink" x="0px" y="0px"
	 viewBox="0 0 200 200" style="enable-background:new 0 0 200 200;" xml:space="preserve">
<style type="text/css">
	.st0{display:none;}
	.st1{display:inline;fill:#282828;stroke:#000000;stroke-miterlimit:10;}
	.st2{fill:#606060;}
	.st3{fill:#898585;}
	.st4{fill:#D8CBCB;}
	.st5{fill:#5B4B4B;}
	.st6{fill:#8C7070;}
	.st7{fill:#D19F9F;}
	.st8{fill:#603E3E;}
	.st9{fill:#8C5D5D;}
	.st10{fill:#D68080;}
</style>
<g id="Layer_1" class="st0">
	<rect x="-7.1" y="-10" class="st1" width="224" height="224"/>
</g>
<g id="Layer_4">
</g>
<g id="Layer_3">
</g>
<g id="Layer_2_copy_2">
	<polygon class="st2" points="33.9,29.7 33.9,63.4 61.3,55.9 61.3,25.2 	"/>
	<polygon class="st3" points="12.1,25.2 33.9,29.7 33.9,63.4 12.1,54.8 	"/>
	<polygon class="st4" points="33.9,29.7 61.3,25.2 36.7,21.6 12.1,25.2 	"/>
	<polygon class="st2" points="93.7,29.7 93.7,56.7 115.7,50.9 115.7,26 	"/>
	<polygon class="st3" points="76.2,26 93.7,29.7 93.7,56.7 76.2,49.9 	"/>
	<polygon class="st4" points="93.7,29.7 115.7,26 96,23.2 76.2,26 	"/>
	<polygon class="st2" points="143.1,29.4 143.1,48.7 158.9,44.9 158.9,26.8 	"/>
	<polygon class="st3" points="130.6,26.8 143.1,29.4 143.1,48.7 130.6,43.8 	"/>
	<polygon class="st4" points="143.1,29.4 158.9,26.8 144.7,24.7 130.6,26.8 	"/>
</g>
<g id="Layer_2_copy">
	<polygon class="st5" points="41.9,88.1 41.9,121.7 69.4,114.3 69.4,83.5 	"/>
	<polygon class="st6" points="20.2,83.6 41.9,88.2 41.9,121.8 20.2,113.3 	"/>
	<polygon class="st7" points="41.9,88.2 69.4,83.6 44.8,80 20.2,83.6 	"/>
	<polygon class="st5" points="108.2,79.8 108.2,106.8 130.2,101 130.2,76.2 	"/>
	<polygon class="st6" points="91.2,76.6 108.6,80.3 108.6,107.3 91.2,100.5 	"/>
	<polygon class="st7" points="108.6,80.3 130.7,76.6 110.9,73.7 91.2,76.6 	"/>
	<polygon class="st5" points="161,72.4 161,91.7 176.7,87.9 176.7,69.8 	"/>
	<polygon class="st6" points="148.5,69.8 161,72.4 161,91.7 148.5,86.8 	"/>
	<polygon class="st7" points="161,72.4 176.7,69.8 162.6,67.7 148.5,69.8 	"/>
</g>
<g id="Layer_2_5_">
	<polygon class="st8" points="52.8,148.2 52.8,181.9 80.3,174.5 80.3,143.7 	"/>
	<polygon class="st9" points="31.1,143.7 52.8,148.2 52.8,181.9 31.1,173.4 	"/>
	<polygon class="st10" points="52.8,148.2 80.3,143.7 55.7,140.1 31.1,143.7 	"/>
	<polygon class="st8" points="126.4,133 126.4,160 148.5,154.2 148.5,129.3 	"/>
	<polygon class="st9" points="109,129.3 126.4,133 126.4,160 109,153.2 	"/>
	<polygon class="st10" points="126.4,133 148.5,129.3 128.7,126.4 109,129.3 	"/>
	<polygon class="st8" points="176.1,116.3 176.1,135.6 191.8,131.8 191.8,113.7 	"/>
	<polygon class="st9" points="163.6,113.7 176.1,116.3 176.1,135.6 163.6,130.7 	"/>
	<polygon class="st10" points="176.1,116.3 191.8,113.7 177.7,111.6 163.6,113.7 	"/>
</g>
</svg>
