<?xml version="1.0" encoding="utf-8"?>
<!-- Generator: Adobe Illustrator 20.1.0, SVG Export Plug-In . SVG Version: 6.00 Build 0)  -->
<svg version="1.1" xmlns="http://www.w3.org/2000/svg" xmlns:xlink="http://www.w3.org/1999/xlink" x="0px" y="0px"
     viewBox="0 0 200 200" style="enable-background:new 0 0 200 200;" xml:space="preserve">
<style type="text/css">
	.st0{display:none;}
	.st1{display:inline;}
	.st2{fill:#414042;stroke:#000000;stroke-miterlimit:10;}
	.st3{display:inline;fill:none;stroke:#F7941D;stroke-width:10;stroke-miterlimit:10;}
	.st4{display:inline;fill:#F1F2F2;stroke:#F7941D;stroke-miterlimit:10;}
	.st5{display:inline;fill:#F7941D;stroke:#F7941D;stroke-miterlimit:10;}
	.st6{display:inline;fill:#F7941D;}
	.st7{display:inline;fill:#F7941D;fill-opacity:0.31;}
	.st8{display:inline;fill:#F1F2F2;}
	.st9{font-family:'MyriadPro-Regular';}
	.st10{font-size:47.9526px;}
	.st11{display:none;fill:#FFFFFF;enable-background:new    ;}
	.st12{font-size:41.4863px;}
	.st13{fill:#6A84CE;}
	.st14{fill:#7D6ACC;}
	.st15{fill:#A463CE;}
	.st16{fill:#CC6A6A;}
	.st17{fill:#B7B7B7;stroke:#000000;stroke-miterlimit:10;}
	.st18{fill:#1E1E1E;}
</style>
    <g id="Layer_3_1_" class="st0">
	<g id="Layer_1_3_" class="st1">
		<g id="Layer_1_2_">
			<g id="Layer_1_1_">
				<rect x="-4" y="-4.1" class="st2" width="206" height="204.1"/>
			</g>
            <g id="vertexAlign" class="st0">
				<line class="st3" x1="33.4" y1="174.4" x2="167.8" y2="25"/>
                <circle class="st4" cx="110.3" cy="35" r="7"/>
                <circle class="st4" cx="61.2" cy="62.6" r="7"/>
                <circle class="st4" cx="36.9" cy="113.6" r="7"/>
                <circle class="st4" cx="33.3" cy="174.5" r="7"/>
                <circle class="st4" cx="166.7" cy="26.1" r="7"/>
			</g>
            <g id="CameraTool" class="st0">
				<polyline class="st5" points="141.4,120.8 177,90 177.1,151.5 141.4,120.8 				"/>
                <path class="st5" d="M133.6,151.6H47.4c-6.6,0-12-5.4-12-12V102c0-6.6,5.4-12,12-12h86.2c6.6,0,12,5.4,12,12v37.6
					C145.6,146.2,140.2,151.6,133.6,151.6z"/>
                <circle class="st5" cx="119.4" cy="62.8" r="28.7"/>
                <path class="st5" d="M90.1,63.4c0,15.9-12.9,28.7-28.7,28.7c-15.9,0-28.7-12.8-28.7-28.7s12.8-28.7,28.7-28.7
					C77.3,34.7,90.1,47.5,90.1,63.4z"/>
			</g>
            <g id="Texel" class="st0">
				<rect x="98.7" y="79.3" class="st6" width="60.4" height="55.3"/>
                <rect x="38.3" y="24" class="st6" width="60.4" height="55.3"/>
                <rect x="38.3" y="79.3" class="st7" width="60.4" height="55.3"/>
                <rect x="98.7" y="24" class="st7" width="60.4" height="55.3"/>
                <text transform="matrix(1.007 0 0 1 38.3325 175.3447)" class="st8 st9 st10">TEXEL</text>
			</g>
		</g>
        <text transform="matrix(1 0 0 1 18.6484 179.6211)" class="st11 st9 st12">CHECKER</text>
	</g>
</g>
    <g id="Layer_4">
	<rect x="109.2" y="49.8" class="st13" width="29" height="29"/>
        <rect x="108.8" y="81.6" class="st13" width="29" height="29"/>
        <rect x="108.8" y="113.4" class="st13" width="29" height="29"/>
        <polygon class="st14" points="106,78.8 77,86.6 77,63.3 106,49.8 	"/>
        <polygon class="st14" points="105.7,110.6 76.7,104.9 76.7,89.4 105.7,81.6 	"/>
        <polygon class="st14" points="105.7,142.4 76.7,130.7 76.7,107.7 105.7,113.4 	"/>
        <polygon class="st15" points="46.8,89.4 73.9,86.6 73.9,63.3 47,55.5 	"/>
        <polygon class="st15" points="47.3,98.1 74.2,104.9 74.2,89.4 47.2,92.2 	"/>
        <polygon class="st15" points="47.3,136 74.2,130.7 74.2,107.7 47.3,101.4 	"/>
        <polygon class="st16" points="44.9,89.7 12.6,96.5 12.6,85.2 44.7,55.8 	"/>
        <polygon class="st16" points="44.6,97.9 22.2,105.2 12.3,99.4 44.6,92.5 	"/>
        <polygon class="st16" points="44.5,136.3 17,115.9 22.2,108 44.5,101.7 	"/>
        <rect x="140.6" y="49.8" class="st13" width="29" height="29"/>
        <rect x="140.3" y="81.6" class="st13" width="29" height="29"/>
        <rect x="140.3" y="113.4" class="st13" width="29" height="29"/>
</g>
    <g id="Layer_1">
	<g id="Layer_2_1_">
		<g id="Layer_2_5_">
			<rect x="150.5" y="136" class="st17" width="34.4" height="34.4"/>
		</g>
        <g id="Layer_3_3_">
			<rect x="150.5" y="136" class="st18" width="11.2" height="11.6"/>
            <rect x="161.7" y="147.7" class="st18" width="11.8" height="11.4"/>
            <rect x="173.4" y="136" class="st18" width="11.4" height="11.6"/>
            <rect x="150.5" y="159" class="st18" width="11.2" height="11.4"/>
            <rect x="173.5" y="159" class="st18" width="11.4" height="11.4"/>
		</g>
	</g>
</g>
</svg>
