<?xml version="1.0" encoding="utf-8"?>
<!-- Generator: Adobe Illustrator 20.1.0, SVG Export Plug-In . SVG Version: 6.00 Build 0)  -->
<svg version="1.1" id="Layer_1" xmlns="http://www.w3.org/2000/svg" xmlns:xlink="http://www.w3.org/1999/xlink" x="0px" y="0px"
	 viewBox="0 0 200 200" style="enable-background:new 0 0 200 200;" xml:space="preserve">
<style type="text/css">
	.st0{display:none;}
	.st1{display:inline;}
	.st2{fill:#282828;stroke:#000000;stroke-miterlimit:10;}
	.st3{display:none;opacity:0.87;}
	.st4{fill:none;}
	.st5{fill:#E8E8E8;}
	.st6{fill:#2F2675;}
	.st7{fill:none;stroke:#6FBC4B;stroke-width:5;stroke-miterlimit:10;}
	.st8{fill:none;stroke:#6FBC4B;stroke-width:5;stroke-miterlimit:10;stroke-dasharray:16.3227,10.8818;}
	.st9{fill:none;stroke:#6FBC4B;stroke-width:5;stroke-miterlimit:10;stroke-dasharray:16.3875,10.925;}
	.st10{display:inline;fill:#634FC6;stroke:#6BF97F;stroke-width:3;stroke-miterlimit:10;}
	.st11{display:inline;opacity:0.89;fill:#404066;enable-background:new    ;}
	.st12{display:inline;fill:#8E8EE8;}
	.st13{fill:none;stroke:#F9F9F9;stroke-width:4;stroke-miterlimit:10;}
	.st14{fill:none;stroke:#FCFCFC;stroke-width:4;stroke-miterlimit:10;}
	.st15{fill:none;stroke:#F9F9F9;stroke-width:4;stroke-miterlimit:10;stroke-dasharray:11.9469,9.9557;}
	.st16{fill:none;stroke:#6A84CE;stroke-width:3;stroke-miterlimit:10;stroke-dasharray:12,5;}
	.st17{fill:#6A84CE;}
	.st18{fill:none;stroke:#FFFFFF;stroke-width:10;stroke-miterlimit:10;}
	.st19{fill:#FFFFFF;}
</style>
<g id="Layer_1_2_" class="st0">
	<g id="Layer_1_1_" class="st1">
		<g id="Layer_3">
			<g id="Layer_2_3_">
				<rect x="-10" y="-10" class="st2" width="224" height="224"/>
			</g>
		</g>
		<g id="Layer_4" class="st3">
			<g id="Layer_4_6_" class="st1">
				<line class="st4" x1="84.9" y1="188.3" x2="102" y2="188.3"/>
				<rect x="84.9" y="153.6" transform="matrix(1 -1.900654e-03 1.900654e-03 1 -0.3083 0.1779)" width="17.1" height="17.4"/>
				<path class="st5" d="M102,188.3"/>
				<line class="st4" x1="102" y1="188.3" x2="101.9" y2="171"/>
				<line class="st4" x1="101.9" y1="171" x2="101.9" y2="153.6"/>
				<line class="st4" x1="101.9" y1="153.6" x2="101.9" y2="136.3"/>
				<line class="st4" x1="50.9" y1="188.4" x2="67.9" y2="188.3"/>
				<rect x="50.8" y="153.7" transform="matrix(1 -1.900654e-03 1.900654e-03 1 -0.3086 0.1131)" width="17.1" height="17.4"/>
				<line class="st4" x1="67.9" y1="188.3" x2="84.9" y2="188.3"/>
				<rect x="67.9" y="171" transform="matrix(1 -1.900654e-03 1.900654e-03 1 -0.3414 0.1456)" width="17.1" height="17.4"/>
				<rect x="67.8" y="136.3" transform="matrix(1 -1.900654e-03 1.900654e-03 1 -0.2755 0.1454)" width="17.1" height="17.4"/>
				<line class="st4" x1="84.9" y1="84.2" x2="67.8" y2="84.2"/>
				<rect x="67.8" y="101.5" width="17.1" height="17.4"/>
				<line class="st4" x1="67.8" y1="84.2" x2="50.8" y2="84.2"/>
				<rect x="50.8" y="84.1" width="17.1" height="17.4"/>
				<rect x="50.8" y="118.8" width="17.1" height="17.4"/>
				<line class="st4" x1="101.9" y1="136.2" x2="101.9" y2="118.8"/>
				<path d="M101.9,84.2"/>
				<line class="st4" x1="101.9" y1="101.5" x2="101.9" y2="84.1"/>
				<line class="st4" x1="101.9" y1="118.8" x2="101.9" y2="101.5"/>
				<line class="st4" x1="101.9" y1="84.2" x2="84.9" y2="84.2"/>
				<rect x="84.9" y="84.1" width="17.1" height="17.4"/>
				<rect x="84.9" y="118.8" width="17.1" height="17.4"/>
				<line class="st4" x1="16.9" y1="84.2" x2="-0.2" y2="84.2"/>
				<rect x="-0.2" y="101.5" width="17.1" height="17.4"/>
				<path class="st5" d="M-0.2,84.2"/>
				<line class="st4" x1="-0.2" y1="84.1" x2="-0.2" y2="101.5"/>
				<line class="st4" x1="-0.2" y1="101.5" x2="-0.2" y2="118.8"/>
				<line class="st4" x1="-0.2" y1="118.8" x2="-0.2" y2="136.2"/>
				<line class="st4" x1="51" y1="84.2" x2="33.9" y2="84.2"/>
				<rect x="33.9" y="101.5" width="17.1" height="17.4"/>
				<line class="st4" x1="34" y1="84.2" x2="16.9" y2="84.2"/>
				<rect x="16.9" y="84.1" width="17.1" height="17.4"/>
				<rect x="16.9" y="118.8" width="17.1" height="17.4"/>
				<line class="st4" x1="17" y1="188.5" x2="34" y2="188.4"/>
				
					<rect x="16.9" y="153.8" transform="matrix(1 -1.900654e-03 1.900654e-03 1 -0.3088 4.866526e-02)" width="17.1" height="17.4"/>
				<line class="st4" x1="34" y1="188.4" x2="51.1" y2="188.4"/>
				<rect x="34" y="171.1" transform="matrix(1 -1.900654e-03 1.900654e-03 1 -0.3417 8.119764e-02)" width="17.1" height="17.4"/>
				
					<rect x="33.9" y="136.4" transform="matrix(1 -1.900654e-03 1.900654e-03 1 -0.2757 8.094499e-02)" width="17.1" height="17.4"/>
				<line class="st4" x1="-0.1" y1="136.5" x2="-0.1" y2="153.9"/>
				<path d="M0,188.5"/>
				<line class="st4" x1="-0.1" y1="171.2" x2="0" y2="188.6"/>
				<line class="st4" x1="-0.1" y1="153.9" x2="-0.1" y2="171.2"/>
				<line class="st4" x1="-0.1" y1="188.5" x2="17" y2="188.5"/>
				
					<rect x="-0.1" y="171.2" transform="matrix(1 -1.900654e-03 1.900654e-03 1 -0.3419 1.638552e-02)" width="17.1" height="17.4"/>
				<rect x="-0.2" y="136.5" transform="matrix(1 -1.900654e-03 1.900654e-03 1 -0.276 1.613268e-02)" width="17.1" height="17.4"/>
			</g>
			<g id="Layer_4_1_" class="st1">
				<line class="st4" x1="203.9" y1="170.8" x2="203.9" y2="153.4"/>
				<path d="M204,205.4"/>
				<line class="st4" x1="204" y1="205.5" x2="204" y2="188.1"/>
				<line class="st4" x1="204" y1="188.1" x2="203.9" y2="170.8"/>
				<line class="st4" x1="169.9" y1="205.5" x2="187" y2="205.4"/>
				<rect x="169.9" y="170.8" transform="matrix(1 -1.900654e-03 1.900654e-03 1 -0.3408 0.3395)" width="17.1" height="17.4"/>
				<line class="st4" x1="186.9" y1="205.4" x2="204" y2="205.4"/>
				<rect x="186.9" y="188.1" transform="matrix(1 -1.900654e-03 1.900654e-03 1 -0.3737 0.3718)" width="17.1" height="17.4"/>
				<rect x="186.9" y="153.4" transform="matrix(1 -1.900654e-03 1.900654e-03 1 -0.3077 0.3718)" width="17.1" height="17.4"/>
				<line class="st4" x1="203.9" y1="101.3" x2="186.9" y2="101.3"/>
				<rect x="186.9" y="118.6" width="17.1" height="17.4"/>
				<line class="st4" x1="186.9" y1="101.3" x2="169.8" y2="101.3"/>
				<rect x="169.8" y="101.2" width="17.1" height="17.4"/>
				<rect x="169.8" y="135.9" width="17.1" height="17.4"/>
				<path class="st5" d="M203.9,101.3"/>
				<line class="st4" x1="203.9" y1="118.6" x2="203.9" y2="101.2"/>
				<line class="st4" x1="203.9" y1="135.9" x2="203.9" y2="118.6"/>
				<line class="st4" x1="203.9" y1="153.3" x2="203.9" y2="135.9"/>
				<line class="st4" x1="136" y1="101.3" x2="118.9" y2="101.3"/>
				<rect x="118.9" y="118.6" width="17.1" height="17.4"/>
				<line class="st4" x1="118.9" y1="101.3" x2="101.9" y2="101.3"/>
				<rect x="101.9" y="101.2" width="17.1" height="17.4"/>
				<rect x="101.9" y="135.9" width="17.1" height="17.4"/>
				<line class="st4" x1="170" y1="101.3" x2="153" y2="101.3"/>
				<rect x="153" y="118.6" width="17.1" height="17.4"/>
				<line class="st4" x1="153" y1="101.3" x2="136" y2="101.3"/>
				<rect x="136" y="101.2" width="17.1" height="17.4"/>
				<rect x="136" y="135.9" width="17.1" height="17.4"/>
				<line class="st4" x1="136" y1="205.6" x2="153.1" y2="205.5"/>
				<rect x="136" y="170.9" transform="matrix(1 -1.900654e-03 1.900654e-03 1 -0.3411 0.2751)" width="17.1" height="17.4"/>
				<line class="st4" x1="153.1" y1="205.5" x2="170.1" y2="205.5"/>
				<rect x="153.1" y="188.2" transform="matrix(1 -1.900654e-03 1.900654e-03 1 -0.3739 0.3076)" width="17.1" height="17.4"/>
				<rect x="153" y="153.5" transform="matrix(1 -1.900654e-03 1.900654e-03 1 -0.308 0.3073)" width="17.1" height="17.4"/>
				<line class="st4" x1="102" y1="205.6" x2="119" y2="205.6"/>
				<rect x="101.9" y="171" transform="matrix(1 -1.900654e-03 1.900654e-03 1 -0.3413 0.2103)" width="17.1" height="17.4"/>
				<line class="st4" x1="119" y1="205.6" x2="136" y2="205.6"/>
				<rect x="119" y="188.3" transform="matrix(1 -1.900654e-03 1.900654e-03 1 -0.3742 0.2428)" width="17.1" height="17.4"/>
				<rect x="118.9" y="153.6" transform="matrix(1 -1.900654e-03 1.900654e-03 1 -0.3082 0.2425)" width="17.1" height="17.4"/>
			</g>
			<g id="Layer_4_2_" class="st1">
				<line class="st4" x1="203.5" y1="66.5" x2="203.5" y2="49.2"/>
				<path d="M203.6,101.2"/>
				<line class="st4" x1="203.6" y1="101.2" x2="203.5" y2="83.9"/>
				<line class="st4" x1="203.5" y1="83.9" x2="203.5" y2="66.5"/>
				<line class="st4" x1="169.5" y1="101.2" x2="186.6" y2="101.2"/>
				<rect x="169.5" y="66.6" transform="matrix(1 -1.900654e-03 1.900654e-03 1 -0.1428 0.3385)" width="17.1" height="17.4"/>
				<line class="st4" x1="186.5" y1="101.2" x2="203.6" y2="101.2"/>
				<rect x="186.5" y="83.9" transform="matrix(1 -1.900654e-03 1.900654e-03 1 -0.1756 0.3709)" width="17.1" height="17.4"/>
				<rect x="186.4" y="49.2" transform="matrix(1 -1.900654e-03 1.900654e-03 1 -0.1097 0.3706)" width="17.1" height="17.4"/>
				<line class="st4" x1="203.5" y1="-3" x2="186.5" y2="-3"/>
				<rect x="186.5" y="14.3" width="17.1" height="17.4"/>
				<line class="st4" x1="186.5" y1="-3" x2="169.4" y2="-3"/>
				<rect x="169.4" y="-3" width="17.1" height="17.4"/>
				<rect x="169.4" y="31.7" width="17.1" height="17.4"/>
				<path class="st5" d="M203.5-3"/>
				<line class="st4" x1="203.5" y1="14.3" x2="203.5" y2="-3"/>
				<line class="st4" x1="203.5" y1="31.7" x2="203.5" y2="14.3"/>
				<line class="st4" x1="203.5" y1="49" x2="203.5" y2="31.7"/>
				<line class="st4" x1="135.6" y1="-2.9" x2="118.5" y2="-2.9"/>
				<rect x="118.5" y="14.4" width="17.1" height="17.4"/>
				<line class="st4" x1="118.5" y1="-2.9" x2="101.4" y2="-2.9"/>
				<rect x="101.4" y="-3" width="17.1" height="17.4"/>
				<rect x="101.4" y="31.7" width="17.1" height="17.4"/>
				<line class="st4" x1="169.6" y1="-2.9" x2="152.5" y2="-2.9"/>
				<rect x="152.5" y="14.4" width="17.1" height="17.4"/>
				<line class="st4" x1="152.6" y1="-2.9" x2="135.6" y2="-2.9"/>
				<rect x="135.6" y="-3" width="17.1" height="17.4"/>
				<rect x="135.6" y="31.7" width="17.1" height="17.4"/>
				<line class="st4" x1="135.6" y1="101.3" x2="152.7" y2="101.3"/>
				<rect x="135.6" y="66.7" transform="matrix(1 -1.900654e-03 1.900654e-03 1 -0.143 0.2741)" width="17.1" height="17.4"/>
				<line class="st4" x1="152.7" y1="101.3" x2="169.7" y2="101.3"/>
				<rect x="152.6" y="84" transform="matrix(1 -1.900654e-03 1.900654e-03 1 -0.1759 0.3065)" width="17.1" height="17.4"/>
				<rect x="152.6" y="49.3" transform="matrix(1 -1.900654e-03 1.900654e-03 1 -0.1099 0.3064)" width="17.1" height="17.4"/>
				<line class="st4" x1="101.6" y1="101.4" x2="118.6" y2="101.4"/>
				<rect x="101.5" y="66.7" transform="matrix(1 -1.900654e-03 1.900654e-03 1 -0.1431 0.2093)" width="17.1" height="17.4"/>
				<line class="st4" x1="118.6" y1="101.4" x2="135.6" y2="101.3"/>
				<rect x="118.5" y="84.1" transform="matrix(1 -1.900654e-03 1.900654e-03 1 -0.1762 0.2416)" width="17.1" height="17.4"/>
				<rect x="118.5" y="49.4" transform="matrix(1 -1.900654e-03 1.900654e-03 1 -0.1102 0.2416)" width="17.1" height="17.4"/>
			</g>
			<g id="Layer_4_4_" class="st1">
				<line class="st4" x1="84.3" y1="84.2" x2="101.3" y2="84.2"/>
				<rect x="84.2" y="49.6" transform="matrix(1 -1.900654e-03 1.900654e-03 1 -0.1106 0.1764)" width="17.1" height="17.4"/>
				<path class="st5" d="M101.3,84.2"/>
				<line class="st4" x1="101.3" y1="84.2" x2="101.3" y2="66.9"/>
				<line class="st4" x1="101.3" y1="66.9" x2="101.3" y2="49.5"/>
				<line class="st4" x1="101.3" y1="49.5" x2="101.2" y2="32.2"/>
				<line class="st4" x1="50.2" y1="84.3" x2="67.3" y2="84.3"/>
				<rect x="50.2" y="49.6" transform="matrix(1 -1.900654e-03 1.900654e-03 1 -0.1107 0.1118)" width="17.1" height="17.4"/>
				<line class="st4" x1="67.2" y1="84.3" x2="84.3" y2="84.2"/>
				<rect x="67.2" y="66.9" transform="matrix(1 -1.900654e-03 1.900654e-03 1 -0.1436 0.1441)" width="17.1" height="17.4"/>
				<rect x="67.1" y="32.2" transform="matrix(1 -1.900654e-03 1.900654e-03 1 -7.760031e-02 0.1439)" width="17.1" height="17.4"/>
				<line class="st4" x1="84.2" y1="-2.6" x2="67.2" y2="-2.6"/>
				<rect x="67.2" y="-2.6" width="17.1" height="17.4"/>
				<line class="st4" x1="67.2" y1="-2.6" x2="50.1" y2="-2.6"/>
				<rect x="50.1" y="14.7" width="17.1" height="17.4"/>
				<line class="st4" x1="101.2" y1="32.1" x2="101.2" y2="14.7"/>
				<path class="st5" d="M101.2-2.6"/>
				<line class="st4" x1="101.2" y1="14.7" x2="101.2" y2="-2.6"/>
				<line class="st4" x1="101.3" y1="-2.6" x2="84.2" y2="-2.6"/>
				<rect x="84.2" y="14.7" width="17.1" height="17.4"/>
				<line class="st4" x1="16.3" y1="-2.6" x2="-0.8" y2="-2.6"/>
				<rect x="-0.8" y="-2.6" width="17.1" height="17.4"/>
				<path d="M-0.8-2.6"/>
				<line class="st4" x1="-0.8" y1="14.8" x2="-0.8" y2="32.1"/>
				<line class="st4" x1="50.3" y1="-2.6" x2="33.3" y2="-2.6"/>
				<rect x="33.3" y="-2.6" width="17.1" height="17.4"/>
				<line class="st4" x1="33.3" y1="-2.6" x2="16.3" y2="-2.6"/>
				<rect x="16.3" y="14.8" width="17.1" height="17.4"/>
				<line class="st4" x1="16.3" y1="84.4" x2="33.4" y2="84.4"/>
				<rect x="16.3" y="49.7" transform="matrix(1 -1.900654e-03 1.900654e-03 1 -0.111 4.733672e-02)" width="17.1" height="17.4"/>
				<line class="st4" x1="33.4" y1="84.4" x2="50.4" y2="84.3"/>
				<rect x="33.4" y="67" transform="matrix(1 -1.900654e-03 1.900654e-03 1 -0.1438 7.986930e-02)" width="17.1" height="17.4"/>
				
					<rect x="33.3" y="32.3" transform="matrix(1 -1.900654e-03 1.900654e-03 1 -7.785134e-02 7.961655e-02)" width="17.1" height="17.4"/>
				<line class="st4" x1="-0.8" y1="32.4" x2="-0.7" y2="49.8"/>
				<path d="M-0.7,84.4"/>
				<line class="st4" x1="-0.7" y1="67.1" x2="-0.7" y2="84.5"/>
				<line class="st4" x1="-0.7" y1="49.8" x2="-0.7" y2="67.1"/>
				<line class="st4" x1="-0.7" y1="84.4" x2="16.3" y2="84.4"/>
				<rect x="-0.7" y="67.1" transform="matrix(1 -1.900654e-03 1.900654e-03 1 -0.1441 1.505699e-02)" width="17.1" height="17.4"/>
				
					<rect x="-0.8" y="32.4" transform="matrix(1 -1.900654e-03 1.900654e-03 1 -7.810301e-02 1.480433e-02)" width="17.1" height="17.4"/>
			</g>
			<g id="Layer_4_3_" class="st1">
				<line class="st4" x1="84.9" y1="188.6" x2="67.9" y2="188.6"/>
				<line class="st4" x1="67.9" y1="205.9" x2="84.9" y2="205.9"/>
				<line class="st4" x1="67.9" y1="188.6" x2="50.8" y2="188.6"/>
				<rect x="50.8" y="188.5" width="17.1" height="17.4"/>
				<line class="st4" x1="50.8" y1="205.9" x2="67.9" y2="205.9"/>
				<path d="M101.9,188.6"/>
				<line class="st4" x1="101.9" y1="205.9" x2="101.9" y2="188.5"/>
				<path d="M101.9,205.9"/>
				<line class="st4" x1="102" y1="188.6" x2="84.9" y2="188.6"/>
				<rect x="84.9" y="188.5" width="17.1" height="17.4"/>
				<line class="st4" x1="84.9" y1="205.9" x2="102" y2="205.9"/>
				<line class="st4" x1="16.9" y1="188.6" x2="-0.1" y2="188.6"/>
				<line class="st4" x1="-0.1" y1="205.9" x2="16.9" y2="205.9"/>
				<path class="st5" d="M-0.1,188.6"/>
				<line class="st4" x1="-0.1" y1="188.6" x2="-0.1" y2="205.9"/>
				<path class="st5" d="M-0.1,205.9"/>
				<line class="st4" x1="51" y1="188.6" x2="33.9" y2="188.6"/>
				<line class="st4" x1="33.9" y1="205.9" x2="51" y2="205.9"/>
				<line class="st4" x1="34" y1="188.6" x2="16.9" y2="188.6"/>
				<rect x="16.9" y="188.6" width="17.1" height="17.4"/>
				<line class="st4" x1="16.9" y1="205.9" x2="34" y2="205.9"/>
			</g>
		</g>
	</g>
	<g id="Layer_2">
		<g class="st1">
			<rect x="22" y="27.4" class="st6" width="161.9" height="135.2"/>
			<g>
				<polyline class="st7" points="183.9,155 183.9,162.5 176.4,162.5 				"/>
				<line class="st8" x1="165.5" y1="162.5" x2="35" y2="162.5"/>
				<polyline class="st7" points="29.5,162.5 22,162.5 22,155 				"/>
				<line class="st9" x1="22" y1="144.1" x2="22" y2="40.3"/>
				<polyline class="st7" points="22,34.9 22,27.4 29.5,27.4 				"/>
				<line class="st8" x1="40.4" y1="27.4" x2="171" y2="27.4"/>
				<polyline class="st7" points="176.4,27.4 183.9,27.4 183.9,34.9 				"/>
				<line class="st9" x1="183.9" y1="45.8" x2="183.9" y2="149.6"/>
			</g>
		</g>
		<rect x="14" y="102.5" class="st10" width="93.5" height="78.1"/>
	</g>
</g>
<g id="Layer_2_1_" class="st0">
	<polygon class="st11" points="102.6,27.3 145.7,50.2 115.4,138.4 37.3,161.2 38.2,50.2 	"/>
	<polygon class="st12" points="145.5,65.2 178.1,101.6 118.9,173.9 37.7,168.1 77.2,64.2 	"/>
	<g id="Layer_3_1_" class="st1">
		<line class="st13" x1="37.1" y1="167.6" x2="76.6" y2="63.8"/>
		<g>
			<g>
				<line class="st14" x1="37.3" y1="167.5" x2="37.3" y2="162.1"/>
				<line class="st15" x1="37.4" y1="153.3" x2="38.2" y2="59.9"/>
				<line class="st14" x1="38.2" y1="55.5" x2="38.2" y2="50.2"/>
			</g>
		</g>
	</g>
</g>
<g id="Layer_2_2_">
	<rect x="24" y="32.1" class="st16" width="121" height="121"/>
	<rect x="49" y="41.7" transform="matrix(0.4732 -0.881 0.881 0.4732 -32.2992 150.3073)" class="st17" width="121" height="121"/>
</g>
<g>
	<g>
		<path class="st18" d="M98.9,91.5c6.6-2.9,13.7-4.3,17.9-0.1c10.9,10.4,2.9,33.1-17.7,24.6"/>
		<g>
			<polygon class="st19" points="109.3,101.4 82.6,101.6 95.7,78.4 			"/>
		</g>
	</g>
</g>
</svg>
