<?xml version="1.0" encoding="utf-8"?>
<!-- Generator: Adobe Illustrator 20.1.0, SVG Export Plug-In . SVG Version: 6.00 Build 0)  -->
<svg version="1.1" id="Layer_1" xmlns="http://www.w3.org/2000/svg" xmlns:xlink="http://www.w3.org/1999/xlink" x="0px"
     y="0px"
     viewBox="0 0 200 200" style="enable-background:new 0 0 200 200;" xml:space="preserve">
<style type="text/css">
	.st0{display:none;}
	.st1{display:inline;fill:#474747;stroke:#000000;stroke-miterlimit:10;}
	.st2{display:inline;opacity:0.51;fill:#AF9A61;enable-background:new    ;}
	.st3{display:inline;fill:#604E26;}
	.st4{display:inline;opacity:0.47;fill:#3D3418;enable-background:new    ;}
	.st5{display:inline;fill:#231C07;}
	.st6{display:inline;fill:#4F4A19;}
	.st7{display:inline;fill:#AA9A66;}
	.st8{display:inline;}
	.st9{display:inline;fill:#414042;stroke:#000000;stroke-miterlimit:10;}
	.st10{display:inline;fill:none;stroke:#F7941D;stroke-width:10;stroke-miterlimit:10;}
	.st11{display:inline;fill:#F1F2F2;stroke:#F7941D;stroke-miterlimit:10;}
	.st12{display:inline;fill:#F7941D;stroke:#F7941D;stroke-miterlimit:10;}
	.st13{display:inline;fill:#F7941D;}
	.st14{display:inline;fill:#F7941D;fill-opacity:0.31;}
	.st15{display:inline;fill:#F1F2F2;}
	.st16{font-family:'MyriadPro-Regular';}
	.st17{font-size:47.9526px;}
	.st18{display:none;fill:#FFFFFF;enable-background:new    ;}
	.st19{font-size:41.3342px;}
	.st20{fill:#D1D1D1;}
	.st21{fill:#FFFFFF;}
	.st22{fill:#939393;}
	.st23{fill:#282828;}
	.st24{fill:#919191;}
	.st25{fill:#BFBFBF;}
	.st26{fill:#2AD159;}
	.st27{fill:#8C8C8C;}
</style>
    <g id="Layer_2_2_" class="st0">
	<g id="Layer_2_1_">
		<rect x="-3" y="-17" class="st1" width="216" height="229"/>
	</g>
        <polygon class="st2" points="22.3,173.2 22.3,62.3 98.8,12.6 51.5,173.2 	"/>
        <polygon class="st2" points="176.1,173.2 176.1,62.3 98.8,12.6 146.5,173.2 	"/>
        <polygon class="st3" points="51.5,173.2 51.5,76.8 98.8,12.6 	"/>
        <polygon class="st3" points="146.8,173.3 146.8,76.9 99.2,12.7 	"/>
        <polygon class="st4" points="22.3,62.3 98.8,168.1 176.1,62.3 98.8,12.6 	"/>
        <polygon class="st5" points="51.5,76.8 79.9,76.8 98.8,12.6 	"/>
        <polygon class="st5" points="98.8,12.6 118.2,76.8 146.8,76.9 	"/>
        <polygon class="st6" points="79.9,76.8 118.2,76.8 98.8,12.6 	"/>
        <polygon class="st7" points="79.9,76.8 66.3,123.1 98.8,168.1 131.6,123.1 118.2,76.8 	"/>
</g>
    <g id="Layer_1_4_" class="st0">
	<g id="Layer_1_3_" class="st8">
		<g id="Layer_1_2_">
			<g id="Layer_1_1_" class="st0">
				<rect x="-4" y="-4.1" class="st9" width="206" height="204.1"/>
			</g>
            <g id="vertexAlign" class="st0">
				<line class="st10" x1="33.4" y1="174.4" x2="167.8" y2="25"/>
                <circle class="st11" cx="110.3" cy="35" r="7"/>
                <circle class="st11" cx="61.2" cy="62.6" r="7"/>
                <circle class="st11" cx="36.9" cy="113.6" r="7"/>
                <circle class="st11" cx="33.3" cy="174.5" r="7"/>
                <circle class="st11" cx="166.7" cy="26.1" r="7"/>
			</g>
            <g id="CameraTool" class="st0">
				<polyline class="st12" points="141.4,120.8 177,90 177.1,151.5 141.4,120.8 				"/>
                <path class="st12" d="M133.6,151.6H47.4c-6.6,0-12-5.4-12-12V102c0-6.6,5.4-12,12-12h86.2c6.6,0,12,5.4,12,12v37.6
					C145.6,146.2,140.2,151.6,133.6,151.6z"/>
                <circle class="st12" cx="119.4" cy="62.8" r="28.7"/>
                <path class="st12" d="M90.1,63.4c0,15.9-12.9,28.7-28.7,28.7c-15.9,0-28.7-12.8-28.7-28.7s12.8-28.7,28.7-28.7
					C77.3,34.7,90.1,47.5,90.1,63.4z"/>
			</g>
            <g id="Texel" class="st0">
				<rect x="98.7" y="79.3" class="st13" width="60.4" height="55.3"/>
                <rect x="38.3" y="24" class="st13" width="60.4" height="55.3"/>
                <rect x="38.3" y="79.3" class="st14" width="60.4" height="55.3"/>
                <rect x="98.7" y="24" class="st14" width="60.4" height="55.3"/>
                <text transform="matrix(1.007 0 0 1 38.3325 175.3447)" class="st15 st16 st17">TEXEL</text>
			</g>
		</g>
        <g id="Layer_2">
			<text transform="matrix(1 0 0 1 17.4229 206.5332)" class="st18 st16 st19">CHECKER</text>
            <rect x="18.3" y="54.9" class="st20" width="112.8" height="112.1"/>
            <polyline class="st21" points="76.1,27.3 18.3,54.9 131.1,54.9 180.8,27.3 			"/>
            <path class="st22" d="M130.8,54.9l50-27.6c0.4,36.8,0.9,71.1,1.3,107.8c-17,9.9-34.1,22.3-51.1,32.2"/>
		</g>
        <g id="Layer_3">
			<rect x="18.3" y="54.9" class="st23" width="24" height="24"/>
            <rect x="42.1" y="79" class="st23" width="24" height="24"/>
            <rect x="90.9" y="79.3" class="st23" width="24" height="24"/>
            <rect x="66.7" y="54.9" class="st23" width="24" height="24"/>
            <rect x="115" y="54.9" class="st23" width="16.1" height="24"/>
            <rect x="17.4" y="102.8" class="st23" width="24" height="24"/>
            <rect x="42.4" y="126.9" class="st23" width="24" height="24"/>
            <rect x="91.1" y="127.2" class="st23" width="24" height="24"/>
            <rect x="67" y="102.8" class="st23" width="24" height="24"/>
            <rect x="115.2" y="102.8" class="st23" width="16.1" height="24"/>
            <rect x="18.3" y="150.8" class="st23" width="24" height="16.5"/>
            <rect x="66.7" y="150.8" class="st23" width="24" height="16.5"/>
            <rect x="115" y="150.8" class="st23" width="16.1" height="16.5"/>
		</g>
        <g id="Layer_4">
			<polyline points="130.8,54.9 150.5,44.3 150.5,78.9 130.9,89.6 			"/>
            <polyline points="169.2,33.5 169.2,67.9 181.9,60 181.9,27 			"/>
            <polyline points="150.5,78.9 169.2,67.9 169.2,102.8 150.5,114.8 			"/>
            <polyline points="131.3,125.1 151,114.5 151,149 131.5,159.7 			"/>
            <polyline points="169.7,102.5 169.7,137 182.5,129.1 182.5,96 			"/>
            <polyline points="151,154.9 151,149 169.7,137 169.7,142.7 			"/>
		</g>
        <g id="Layer_5">
			<polyline class="st23" points="18.4,54.8 46.8,41.3 52.4,41.3 24.8,54.9 			"/>
            <polyline class="st23" points="32.2,54.6 59.5,41.7 66.3,41.7 38.6,54.7 			"/>
            <polyline class="st23" points="45,54.9 72.3,41.9 79,41.9 51.4,54.9 			"/>
            <polyline class="st23" points="58.9,54.6 86.1,41.7 92.9,41.7 65.3,54.7 			"/>
            <polyline class="st23" points="71.2,54.7 99.3,41.3 106.1,41.3 77.3,54.9 			"/>
            <polyline class="st23" points="84.6,54.7 113.2,41.1 119.9,41.1 91.1,54.7 			"/>
            <polyline class="st23" points="99,54.9 126.3,40.8 133.1,40.6 105,54.9 			"/>
            <polyline class="st23" points="112.1,54.6 139.1,40.7 145.9,40.4 117.6,54.9 			"/>
            <polyline class="st23" points="123.9,54.9 151.5,40.7 157.6,40.5 131.1,54.9 			"/>
            <polyline class="st23" points="53,41.4 81.4,27.9 87,27.9 59.4,41.4 			"/>
            <polyline class="st23" points="66.9,41.1 94.1,28.2 100.9,28.2 73.3,41.2 			"/>
            <polyline class="st23" points="79.7,41.4 106.9,28.4 113.7,28.4 86.1,41.4 			"/>
            <polyline class="st23" points="92.4,41.2 119.7,28.2 126.5,28.2 98.8,41.2 			"/>
            <polyline class="st23" points="105.9,41.2 133.9,27.9 140.7,27.9 111.9,41.4 			"/>
            <polyline class="st23" points="119.3,41.2 147.8,27.6 154.6,27.6 125.8,41.2 			"/>
            <polyline class="st23" points="131.9,40.7 159.2,26.6 166,26.4 137.9,40.7 			"/>
            <polyline class="st23" points="144.5,41.1 171.6,27.2 178.4,27 150.1,41.4 			"/>
		</g>
	</g>
        <g id="Layer_3_1_" class="st8">
		<rect x="29" y="45" class="st24" width="111" height="111"/>
            <polygon class="st25" points="29,45 84.5,27 163,27 140,45 		"/>
            <polygon class="st23" points="140,45 163,27 163,123 140,156 		"/>
	</g>
        <g id="Layer_4_1_" class="st8">
		<polygon class="st26"
                 points="114.8,144.6 136.5,183.9 143.5,183.9 187.3,119.9 181.6,118.5 140,176.1 118.1,141.5 		"/>
	</g>
</g>
    <sodipodi:namedview bordercolor="#666666" borderopacity="1" gridtolerance="10" guidetolerance="10"
                        id="namedview3031" inkscape:current-layer="svg3025" inkscape:cx="896" inkscape:cy="896"
                        inkscape:pageopacity="0" inkscape:pageshadow="2" inkscape:window-height="480"
                        inkscape:window-maximized="0" inkscape:window-width="640" inkscape:window-x="0"
                        inkscape:window-y="25" inkscape:zoom="0.13169643" objecttolerance="10" pagecolor="#ffffff"
                        showgrid="false">
	</sodipodi:namedview>
    <g id="g3027" transform="matrix(1,0,0,-1,121.49153,1285.4237)">
	<path id="path3029" inkscape:connector-curvature="0" class="st27" d="M-31.8,1158.8c0,4.8-1.7,8.9-5.1,12.2s-7.5,5.1-12.2,5.1
		s-8.9-1.7-12.2-5.1s-5.1-7.5-5.1-12.2s1.7-8.9,5.1-12.2c3.4-3.4,7.5-5.1,12.2-5.1s8.9,1.7,12.2,5.1
		C-33.5,1150-31.8,1154.1-31.8,1158.8z M2.8,1166.2v-15c0-0.5-0.2-1.1-0.5-1.6c-0.4-0.5-0.8-0.8-1.4-0.9l-12.5-1.9
		c-0.9-2.4-1.7-4.5-2.6-6.2c1.6-2.3,4-5.4,7.2-9.3c0.5-0.5,0.7-1.1,0.7-1.7s-0.2-1.1-0.6-1.6c-1.2-1.7-3.4-4.1-6.7-7.3
		c-3.2-3.2-5.4-4.8-6.4-4.8c-0.5,0-1.1,0.2-1.8,0.6l-9.3,7.3c-2-1-4-1.9-6.2-2.6c-0.7-6.1-1.4-10.3-2-12.6c-0.3-1.3-1.1-1.9-2.4-1.9
		h-15c-0.6,0-1.2,0.2-1.7,0.6c-0.5,0.4-0.7,0.9-0.8,1.5l-1.9,12.4c-2.2,0.7-4.2,1.6-6.1,2.5l-9.5-7.2c-0.5-0.4-1-0.6-1.7-0.6
		c-0.6,0-1.2,0.2-1.7,0.7c-5.7,5.1-9.4,8.9-11.2,11.4c-0.3,0.5-0.5,1-0.5,1.6c0,0.5,0.2,1.1,0.5,1.6c0.7,0.9,1.8,2.4,3.4,4.5
		s2.8,3.6,3.6,4.8c-1.2,2.3-2.1,4.5-2.8,6.7L-99,1149c-0.6,0.1-1.1,0.4-1.4,0.8c-0.4,0.5-0.5,1-0.5,1.6v15c0,0.5,0.2,1.1,0.5,1.6
		c0.4,0.5,0.8,0.8,1.3,0.9l12.6,1.9c0.6,2.1,1.5,4.1,2.6,6.2c-1.8,2.6-4.2,5.7-7.2,9.3c-0.5,0.5-0.7,1.1-0.7,1.6
		c0,0.5,0.2,1,0.6,1.6c1.2,1.6,3.4,4,6.7,7.3s5.4,4.8,6.4,4.8c0.6,0,1.2-0.2,1.8-0.7l9.3-7.2c2,1,4,1.9,6.2,2.6
		c0.7,6.1,1.4,10.3,2,12.6c0.3,1.3,1.1,1.9,2.4,1.9h15c0.6,0,1.2-0.2,1.7-0.6c0.5-0.4,0.7-0.9,0.8-1.5l1.9-12.4
		c2.2-0.7,4.2-1.6,6.1-2.5l9.6,7.2c0.4,0.4,0.9,0.6,1.6,0.6c0.6,0,1.1-0.2,1.7-0.7c5.8-5.4,9.5-9.2,11.2-11.5
		c0.3-0.4,0.5-0.9,0.5-1.5c0-0.5-0.2-1.1-0.5-1.6c-0.7-0.9-1.8-2.4-3.4-4.5s-2.8-3.6-3.6-4.8c1.2-2.3,2.1-4.5,2.8-6.6l12.4-1.9
		c0.6-0.1,1.1-0.4,1.4-0.8S2.8,1166.8,2.8,1166.2z"/>
</g>
    <g id="g3027_1_" transform="matrix(1,0,0,-1,121.49153,1285.4237)">
	<path id="path3029_1_" inkscape:connector-curvature="0" class="st27" d="M28.1,1218.9c1.3,3.3,1.3,6.5-0.1,9.8
		c-1.4,3.3-3.7,5.5-7,6.9s-6.5,1.3-9.8-0.1c-3.3-1.4-5.5-3.7-6.9-7s-1.3-6.5,0.1-9.8s3.7-5.5,7-6.9c3.3-1.3,6.5-1.3,9.8,0.1
		C24.5,1213.3,26.8,1215.6,28.1,1218.9z M53.9,1214.3l-4.2-10.3c-0.1-0.4-0.4-0.7-0.8-0.9c-0.4-0.2-0.8-0.3-1.2-0.2l-9.1,2.2
		c-1.3-1.4-2.4-2.6-3.5-3.5c0.5-2,1.2-4.8,2.4-8.4c0.2-0.5,0.2-0.9,0-1.3c-0.2-0.4-0.4-0.7-0.8-0.9c-1.3-0.8-3.5-1.9-6.6-3.2
		c-3.1-1.3-5-1.8-5.7-1.5c-0.4,0.1-0.7,0.5-1,0.9l-4.4,7.6c-1.6-0.2-3.3-0.2-4.9-0.1c-2.2-4-3.8-6.7-4.8-8.1c-0.6-0.8-1.3-1-2.2-0.6
		l-10.3,4.2c-0.4,0.2-0.8,0.5-1,0.9s-0.3,0.8-0.1,1.2l2.1,9.1c-1.3,1.1-2.5,2.2-3.5,3.4l-8.5-2.3c-0.4-0.2-0.9-0.1-1.3,0.1
		c-0.4,0.2-0.8,0.5-1,1c-2.5,5.1-4,8.7-4.5,10.9c-0.1,0.4-0.1,0.8,0.1,1.2c0.1,0.4,0.4,0.7,0.8,0.9c0.7,0.5,1.9,1.2,3.6,2.1
		c1.7,1,3,1.7,3.8,2.3c-0.2,1.9-0.2,3.7,0,5.4l-8,4.7c-0.4,0.2-0.6,0.5-0.7,1c-0.1,0.4-0.1,0.8,0.1,1.2l4.2,10.3
		c0.1,0.4,0.4,0.7,0.8,0.9s0.8,0.3,1.1,0.2l9.1-2.2c1,1.2,2.2,2.4,3.5,3.5c-0.5,2.3-1.3,5.1-2.4,8.4c-0.2,0.5-0.2,0.9,0,1.3
		c0.1,0.3,0.4,0.6,0.8,0.9c1.3,0.8,3.4,1.8,6.6,3.1s5,1.8,5.7,1.5c0.4-0.2,0.7-0.5,1-1l4.4-7.5c1.6,0.2,3.3,0.2,4.9,0.1
		c2.2,4,3.8,6.7,4.8,8.1c0.6,0.8,1.3,1,2.2,0.6l10.3-4.2c0.4-0.2,0.8-0.5,1-0.9c0.2-0.4,0.3-0.8,0.1-1.2l-2.1-9.1
		c1.3-1.1,2.5-2.2,3.5-3.4l8.6,2.3c0.4,0.2,0.8,0.2,1.3,0c0.4-0.2,0.7-0.5,1-0.9c2.5-5.3,4-8.9,4.5-11c0.1-0.3,0.1-0.7-0.1-1.2
		c-0.1-0.4-0.4-0.7-0.8-0.9c-0.7-0.5-1.9-1.2-3.6-2.1c-1.7-1-3-1.7-3.8-2.3c0.2-1.9,0.2-3.6,0.1-5.3l8-4.7c0.4-0.2,0.6-0.5,0.7-1
		C54,1215.1,54,1214.7,53.9,1214.3z"/>
</g>
</svg>
