<?xml version="1.0" encoding="utf-8"?>
<!-- Generator: Adobe Illustrator 20.1.0, SVG Export Plug-In . SVG Version: 6.00 Build 0)  -->
<svg version="1.1" id="Layer_1" xmlns="http://www.w3.org/2000/svg" xmlns:xlink="http://www.w3.org/1999/xlink" x="0px" y="0px"
	 viewBox="0 0 200 200" style="enable-background:new 0 0 200 200;" xml:space="preserve">
<style type="text/css">
	.st0{display:none;}
	.st1{display:inline;fill:#414042;stroke:#000000;stroke-miterlimit:10;}
	.st2{display:inline;fill:none;stroke:#F7941D;stroke-width:10;stroke-miterlimit:10;}
	.st3{display:inline;fill:#F1F2F2;stroke:#F7941D;stroke-miterlimit:10;}
	.st4{display:none;fill:#FCFCFC;enable-background:new    ;}
	.st5{font-family:'MyriadPro-Regular';}
	.st6{font-size:37.1055px;}
	.st7{display:none;fill:#FFFFFF;stroke:#000000;stroke-miterlimit:10;}
	.st8{display:none;fill:#D1D1D1;stroke:#000000;stroke-miterlimit:10;}
	.st9{fill:#A56B6A;}
	.st10{fill:none;stroke:#FFFFFF;stroke-width:5;stroke-miterlimit:10;}
	.st11{fill:#FFFFFF;}
	.st12{display:none;fill:#FF0B0B;}
	.st13{fill:#6BEF3A;}
</style>
<g id="Layer_1_1_" class="st0">
	<rect x="-4" y="-4.1" class="st1" width="206" height="204.1"/>
</g>
<g id="Layer_2" class="st0">
	<line class="st2" x1="41.3" y1="145" x2="157.2" y2="16.2"/>
	<circle class="st3" cx="107.6" cy="24.8" r="6"/>
	<circle class="st3" cx="65.3" cy="48.6" r="6"/>
	<circle class="st3" cx="44.4" cy="92.5" r="6"/>
	<circle class="st3" cx="41.3" cy="145" r="6"/>
	<circle class="st3" cx="156.3" cy="17.1" r="6"/>
</g>
<text transform="matrix(1 0 0 1 26.5161 182.1592)" class="st4 st5 st6">ANIMATE</text>
<circle class="st7" cx="99" cy="84.1" r="66.4"/>
<circle class="st8" cx="98.6" cy="84.6" r="57"/>
<g>
	<g>
		<g>
			<path class="st9" d="M119.7,69.3c0.1-2.8,1.2-5.5,3.3-7.8c1.5-1.5,3.4-2.5,5.3-3c-5.3-3.6-11.5-6.2-18.1-7.5
				c1.1,1.7,1.7,3.7,1.7,5.9c0,3-1.2,5.8-3.1,7.8C112.7,65.6,116.4,67.2,119.7,69.3z"/>
			<path class="st9" d="M100.5,68.2c-17.5,0-31.8,14.3-31.8,31.8s14.3,31.8,31.8,31.8s31.8-14.3,31.8-31.8S118,68.2,100.5,68.2z
				 M100.5,124.9c-13.7,0-24.9-11.2-24.9-24.9s11.2-24.9,24.9-24.9s24.9,11.2,24.9,24.9S114.3,124.9,100.5,124.9z"/>
			<path class="st9" d="M81.3,69.3c3.3-2.1,7-3.6,11-4.6c-1.9-2-3.1-4.8-3.1-7.8c0-2.1,0.6-4.2,1.7-5.9c-6.6,1.3-12.7,3.8-18.1,7.5
				c1.9,0.4,3.8,1.4,5.3,3C80.3,63.7,81.3,66.4,81.3,69.3z"/>
			<path class="st9" d="M100.5,63.8c3.7,0,6.8-3.1,6.8-6.8s-3.1-6.8-6.8-6.8s-6.8,3.1-6.8,6.8S96.8,63.8,100.5,63.8z"/>
			<path class="st9" d="M65.3,91.8c1-3.9,2.5-7.6,4.6-11c-2.8-0.1-5.5-1.2-7.8-3.3c-1.5-1.5-2.5-3.4-3-5.3
				c-3.6,5.3-6.2,11.5-7.5,18.1c1.7-1.1,3.7-1.7,5.9-1.7C60.5,88.7,63.2,89.9,65.3,91.8z"/>
			<path class="st9" d="M74.8,74.3c2.7-2.7,2.7-6.9,0-9.6c-1.3-1.3-3.1-2-4.8-2c-1.6,0-3.3,0.6-4.6,1.8c-0.1,0.1-0.3,0.3-0.4,0.4
				c-2.5,2.7-2.3,6.8,0.2,9.4C67.9,77,72.3,77,74.8,74.3z"/>
			<path class="st9" d="M100.5,79.6c-11.3,0-20.4,9.2-20.4,20.4s9.2,20.4,20.4,20.4s20.4-9.2,20.4-20.4S111.8,79.6,100.5,79.6z"/>
			<path class="st9" d="M74.8,125.7c-1.3-1.3-3.1-2-4.8-2c-1.7,0-3.5,0.6-4.8,2c-2.6,2.6-2.7,6.7-0.2,9.4c0.1,0.1,0.3,0.3,0.4,0.4
				c2.7,2.5,6.8,2.3,9.4-0.2C77.5,132.6,77.5,128.4,74.8,125.7z"/>
			<path class="st9" d="M126.2,74.3c2.7,2.7,6.9,2.7,9.6,0c2.6-2.6,2.7-6.7,0.2-9.4c-0.1-0.1-0.3-0.3-0.4-0.4
				c-1.3-1.2-2.9-1.8-4.6-1.8c-1.7,0-3.5,0.6-4.8,2C123.6,67.4,123.6,71.8,126.2,74.3z"/>
			<path class="st9" d="M135.8,108.2c-1,3.9-2.5,7.6-4.6,11c2.8,0.1,5.5,1.2,7.8,3.3c1.5,1.5,2.5,3.4,3,5.3
				c3.6-5.3,6.2-11.5,7.5-18.1c-1.7,1.1-3.7,1.7-5.9,1.7C140.6,111.3,137.8,110.1,135.8,108.2z"/>
			<path class="st9" d="M100.5,32c-37.5,0-68,30.5-68,68s30.5,68,68,68s68-30.5,68-68S138,32,100.5,32z M139.2,138.3
				c-0.1,0.1-0.1,0.2-0.2,0.2c-0.1,0.1-0.2,0.1-0.2,0.2c-9.8,9.7-23.3,15.7-38.3,15.7s-28.4-6-38.2-15.7c-0.1-0.1-0.2-0.1-0.2-0.2
				c-0.1-0.1-0.1-0.2-0.2-0.2c-9.8-9.9-15.8-23.3-15.8-38.3s6-28.4,15.8-38.2c0.1-0.1,0.1-0.2,0.2-0.2c0.1-0.1,0.2-0.1,0.2-0.2
				c9.8-9.8,23.2-15.8,38.2-15.8s28.4,6,38.3,15.8c0.1,0.1,0.2,0.1,0.2,0.2c0.1,0.1,0.1,0.2,0.2,0.2c9.7,9.8,15.7,23.3,15.7,38.2
				S148.9,128.4,139.2,138.3z"/>
			<path class="st9" d="M135.8,91.8c2-1.9,4.8-3.1,7.8-3.1c2.1,0,4.2,0.6,5.9,1.7c-1.3-6.6-3.8-12.7-7.5-18.1
				c-0.4,1.9-1.4,3.8-3,5.3c-2.1,2.1-4.9,3.2-7.8,3.3C133.4,84.2,135,87.8,135.8,91.8z"/>
			<path class="st9" d="M57.5,106.8c3.7,0,6.8-3.1,6.8-6.8s-3.1-6.8-6.8-6.8s-6.8,3.1-6.8,6.8S53.7,106.8,57.5,106.8z"/>
			<path class="st9" d="M131,123.7c-1.7,0-3.5,0.6-4.8,2c-2.7,2.7-2.7,6.9,0,9.6c2.6,2.6,6.7,2.7,9.4,0.2c0.1-0.1,0.3-0.3,0.4-0.4
				c2.5-2.7,2.3-6.8-0.2-9.4C134.5,124.3,132.7,123.7,131,123.7z"/>
			<path class="st9" d="M143.6,93.2c-3.7,0-6.8,3.1-6.8,6.8s3.1,6.8,6.8,6.8s6.8-3.1,6.8-6.8S147.3,93.2,143.6,93.2z"/>
			<path class="st9" d="M119.7,130.8c-3.3,2.1-7,3.6-11,4.6c1.9,2,3.1,4.8,3.1,7.8c0,2.1-0.6,4.2-1.7,5.9c6.6-1.3,12.7-3.8,18.1-7.5
				c-1.9-0.4-3.8-1.4-5.3-3C120.9,136.3,119.7,133.6,119.7,130.8z"/>
			<path class="st9" d="M65.3,108.2c-2,1.9-4.8,3.1-7.8,3.1c-2.1,0-4.2-0.6-5.9-1.7c1.3,6.6,3.8,12.7,7.5,18.1
				c0.4-1.9,1.4-3.8,3-5.3c2.1-2.1,4.9-3.2,7.8-3.3C67.7,115.9,66.1,112.2,65.3,108.2z"/>
			<path class="st9" d="M81.3,130.8c-0.1,2.8-1.2,5.5-3.3,7.8c-1.5,1.5-3.4,2.5-5.3,3c5.3,3.6,11.5,6.2,18.1,7.5
				c-1.1-1.7-1.7-3.7-1.7-5.9c0-3,1.2-5.8,3.1-7.8C88.4,134.4,84.8,132.8,81.3,130.8z"/>
			<path class="st9" d="M100.5,136.2c-3.7,0-6.8,3.1-6.8,6.8s3.1,6.8,6.8,6.8s6.8-3.1,6.8-6.8S104.3,136.2,100.5,136.2z"/>
		</g>
	</g>
</g>
<g>
	<g>
		<path class="st10" d="M62.9,34.5c0,0-19.5,13.3-29.4,36.1c-8.7,20.3-8.5,43.4,1.4,61.2c5.5,10,11.5,18.1,16.3,24"/>
		<g>
			<polygon class="st11" points="41.4,160.4 61.6,166.9 57.2,146.2 			"/>
		</g>
	</g>
</g>
<g>
	<g>
		<path class="st10" d="M138.6,163.7c0,0,19-13.1,28.6-35.5c8.5-19.9,8.3-42.5-1.4-60c-5.3-9.7-11-17.5-15.6-23.2"/>
		<g>
			<polygon class="st11" points="160,40.4 139.9,33.8 144.2,54.6 			"/>
		</g>
	</g>
</g>
<rect x="154.4" y="127.1" class="st12" width="24.4" height="24.4"/>
<polygon class="st13" points="77,127.1 77,75.3 129.8,99.8 "/>
</svg>
