/* XPM */
static char *checkerramp45[] = {
/* columns rows colors chars-per-pixel */
"45 45 44 1 ",
"  c #ED1000",
". c #E21A00",
"X c #D72500",
"o c #CA3200",
"O c #C13D00",
"+ c #9E5F00",
"@ c #B64700",
"# c #A95401",
"$ c #916B00",
"% c #877600",
"& c #7C8100",
"* c #708D01",
"= c #659700",
"- c #4EAF00",
"; c #5BA301",
": c #43BA00",
"> c #36C700",
", c #2BD200",
"< c #20DC00",
"1 c #14E800",
"2 c #03F702",
"3 c #0BF301",
"4 c #00F30B",
"5 c #00E816",
"6 c #00DC20",
"7 c #00D12D",
"8 c #00C637",
"9 c #00AF4D",
"0 c #01BA43",
"q c #00A35A",
"w c #009865",
"e c #018D70",
"r c #00817C",
"t c #015F9F",
"y c #017688",
"u c #006B92",
"i c #0053A9",
"p c #0048B4",
"a c #013DC1",
"s c #0132CC",
"d c #0027D7",
"f c #001CE2",
"g c #0111ED",
"h c #0007F6",
/* pixels */
"  .XoO@#+$%&*=;-:>,<1324567809qweryutipasdfgh",
"  .XoO@#+$%&*=;-:>,<1324567809qweryutipasdfgh",
"  .XoO@#+$%&*=;-:>,<1324567809qweryutipasdfgh",
"  .XoO@#+$%&*=;-:>,<1324567809qweryutipasdfgh",
"  .XoO@#+$%&*=;-:>,<1324567809qweryutipasdfgh",
"  .XoO@#+$%&*=;-:>,<1324567809qweryutipasdfgh",
"  .XoO@#+$%&*=;-:>,<1324567809qweryutipasdfgh",
"  .XoO@#+$%&*=;-:>,<1324567809qweryutipasdfgh",
"  .XoO@#+$%&*=;-:>,<1324567809qweryutipasdfgh",
"  .XoO@#+$%&*=;-:>,<1324567809qweryutipasdfgh",
"  .XoO@#+$%&*=;-:>,<1324567809qweryutipasdfgh",
"  .XoO@#+$%&*=;-:>,<1324567809qweryutipasdfgh",
"  .XoO@#+$%&*=;-:>,<1324567809qweryutipasdfgh",
"  .XoO@#+$%&*=;-:>,<1324567809qweryutipasdfgh",
"  .XoO@#+$%&*=;-:>,<1324567809qweryutipasdfgh",
"  .XoO@#+$%&*=;-:>,<1324567809qweryutipasdfgh",
"  .XoO@#+$%&*=;-:>,<1324567809qweryutipasdfgh",
"  .XoO@#+$%&*=;-:>,<1324567809qweryutipasdfgh",
"  .XoO@#+$%&*=;-:>,<1324567809qweryutipasdfgh",
"  .XoO@#+$%&*=;-:>,<1324567809qweryutipasdfgh",
"  .XoO@#+$%&*=;-:>,<1324567809qweryutipasdfgh",
"  .XoO@#+$%&*=;-:>,<1324567809qweryutipasdfgh",
"  .XoO@#+$%&*=;-:>,<1324567809qweryutipasdfgh",
"  .XoO@#+$%&*=;-:>,<1324567809qweryutipasdfgh",
"  .XoO@#+$%&*=;-:>,<1324567809qweryutipasdfgh",
"  .XoO@#+$%&*=;-:>,<1324567809qweryutipasdfgh",
"  .XoO@#+$%&*=;-:>,<1324567809qweryutipasdfgh",
"  .XoO@#+$%&*=;-:>,<1324567809qweryutipasdfgh",
"  .XoO@#+$%&*=;-:>,<1324567809qweryutipasdfgh",
"  .XoO@#+$%&*=;-:>,<1324567809qweryutipasdfgh",
"  .XoO@#+$%&*=;-:>,<1324567809qweryutipasdfgh",
"  .XoO@#+$%&*=;-:>,<1324567809qweryutipasdfgh",
"  .XoO@#+$%&*=;-:>,<1324567809qweryutipasdfgh",
"  .XoO@#+$%&*=;-:>,<1324567809qweryutipasdfgh",
"  .XoO@#+$%&*=;-:>,<1324567809qweryutipasdfgh",
"  .XoO@#+$%&*=;-:>,<1324567809qweryutipasdfgh",
"  .XoO@#+$%&*=;-:>,<1324567809qweryutipasdfgh",
"  .XoO@#+$%&*=;-:>,<1324567809qweryutipasdfgh",
"  .XoO@#+$%&*=;-:>,<1324567809qweryutipasdfgh",
"  .XoO@#+$%&*=;-:>,<1324567809qweryutipasdfgh",
"  .XoO@#+$%&*=;-:>,<1324567809qweryutipasdfgh",
"  .XoO@#+$%&*=;-:>,<1324567809qweryutipasdfgh",
"  .XoO@#+$%&*=;-:>,<1324567809qweryutipasdfgh",
"  .XoO@#+$%&*=;-:>,<1324567809qweryutipasdfgh",
"  .XoO@#+$%&*=;-:>,<1324567809qweryutipasdfgh"
};
