/* XPM */
static char *CheckerRed___[] = {
/* columns rows colors chars-per-pixel */
"45 45 255 2",
"   c #AC7A7B",
".  c #AC7C7A",
"X  c #AD7B7C",
"o  c #AE7C7D",
"O  c #AF7D7E",
"+  c #AE7E7E",
"@  c #AF7F7F",
"#  c #B07E7D",
"$  c #B17D7F",
"%  c #B07E7F",
"&  c #6D8762",
"*  c #6E8662",
"=  c #6F8763",
"-  c #6B8665",
";  c #6B8667",
":  c #6C8565",
">  c #6D8764",
",  c #6F8765",
"<  c #6D8467",
"1  c #6C8567",
"2  c #6D8666",
"3  c #6C8766",
"4  c #6E8666",
"5  c #6E8767",
"6  c #6F8767",
"7  c #6E8863",
"8  c #6C8568",
"9  c #6E8568",
"0  c #6D8668",
"q  c #6C8768",
"w  c #6D8669",
"e  c #6F8669",
"r  c #6E8769",
"t  c #6E876A",
"y  c #6D8869",
"u  c #708461",
"i  c #728663",
"p  c #708566",
"a  c #718667",
"s  c #708468",
"d  c #718569",
"f  c #AE817E",
"g  c #AF827F",
"h  c #B1817F",
"j  c #B2807F",
"k  c #B3807F",
"l  c #AF7E81",
"z  c #B17F80",
"x  c #B27E80",
"c  c #B17F82",
"v  c #AF8181",
"b  c #B18181",
"n  c #B38180",
"m  c #B28081",
"M  c #B28280",
"N  c #B38381",
"B  c #B18083",
"V  c #B38182",
"C  c #B28083",
"Z  c #B28282",
"A  c #B38383",
"S  c #B48180",
"D  c #B48281",
"F  c #B58382",
"G  c #B48283",
"H  c #B68382",
"J  c #B28582",
"K  c #B48482",
"L  c #B58583",
"P  c #B68483",
"I  c #B58384",
"U  c #B68284",
"Y  c #B78385",
"T  c #B28484",
"R  c #B38585",
"E  c #B48484",
"W  c #B58585",
"Q  c #B78584",
"!  c #B68485",
"~  c #B68684",
"^  c #B78785",
"/  c #B78586",
"(  c #B68487",
")  c #B48686",
"_  c #B58787",
"`  c #B68686",
"'  c #B78787",
"]  c #B88486",
"[  c #B98786",
"{  c #B88687",
"}  c #BA8786",
"|  c #B58885",
" . c #B88886",
".. c #B98987",
"X. c #BA8887",
"o. c #BA8A86",
"O. c #BB8A86",
"+. c #B68588",
"@. c #B78588",
"#. c #B98788",
"$. c #BB8789",
"%. c #B9878A",
"&. c #B88888",
"*. c #B98989",
"=. c #BB8988",
"-. c #BA8889",
";. c #BB8B89",
":. c #BB898A",
">. c #BA888B",
",. c #B88A8A",
"<. c #B98B8B",
"1. c #BB8B8B",
"2. c #BC888A",
"3. c #BD898B",
"4. c #BD8B8A",
"5. c #BC8A8B",
"6. c #BE8B8A",
"7. c #BA8D88",
"8. c #BD8D89",
"9. c #BE8D89",
"0. c #BC8C8A",
"q. c #BD8D8B",
"w. c #BE8C8B",
"e. c #BF8C8B",
"r. c #BF8E8A",
"t. c #BF8F8B",
"y. c #BB898C",
"u. c #BD8B8C",
"i. c #BE8A8C",
"p. c #BF8B8D",
"a. c #BD8B8E",
"s. c #BC8C8C",
"d. c #BD8D8D",
"f. c #BF8D8C",
"g. c #BE8C8D",
"h. c #BE8E8C",
"j. c #BF8F8D",
"k. c #BF8D8E",
"l. c #BE8C8F",
"z. c #BC8E8E",
"x. c #BD8F8F",
"c. c #BE8E8E",
"v. c #BF8F8F",
"b. c #BD908B",
"n. c #BD908D",
"m. c #BE918C",
"M. c #BF928D",
"N. c #BE918E",
"B. c #BD9190",
"V. c #BE9090",
"C. c #BF9191",
"Z. c #BF9392",
"A. c #C18B8B",
"S. c #C08F8B",
"D. c #C08D8C",
"F. c #C08E8D",
"G. c #C08C8E",
"H. c #C18D8F",
"J. c #C18F8E",
"K. c #C08E8F",
"L. c #C28F8E",
"P. c #C0908C",
"I. c #C1918D",
"U. c #C2918D",
"Y. c #C0908E",
"T. c #C1918F",
"R. c #C2908F",
"E. c #C3908F",
"W. c #C2928E",
"Q. c #C3928E",
"!. c #C3938F",
"~. c #C4938F",
"^. c #C1948F",
"/. c #C18F90",
"(. c #C08E91",
"). c #C28E90",
"_. c #C38F91",
"`. c #C08F92",
"'. c #C18F92",
"]. c #C38F93",
"[. c #C48D90",
"{. c #C58E91",
"}. c #C68F92",
"|. c #C09090",
" X c #C19191",
".X c #C39190",
"XX c #C29091",
"oX c #C09390",
"OX c #C29290",
"+X c #C39391",
"@X c #C39192",
"#X c #C29093",
"$X c #C09292",
"%X c #C19393",
"&X c #C29292",
"*X c #C39393",
"=X c #C79191",
"-X c #C49291",
";X c #C59291",
":X c #C49092",
">X c #C59193",
",X c #C79093",
"<X c #C59392",
"1X c #C49293",
"2X c #C69392",
"3X c #C29590",
"4X c #C09493",
"5X c #C49490",
"6X c #C59490",
"7X c #C59591",
"8X c #C69591",
"9X c #C49492",
"0X c #C59593",
"qX c #C69493",
"wX c #C79692",
"eX c #C29194",
"rX c #C39194",
"tX c #C39295",
"yX c #C59394",
"uX c #C49295",
"iX c #C69294",
"pX c #C59396",
"aX c #C19594",
"sX c #C39595",
"dX c #C39597",
"fX c #C49494",
"gX c #C59595",
"hX c #C79594",
"jX c #C69495",
"kX c #C69694",
"lX c #C79596",
"zX c #C69497",
"xX c #C49696",
"cX c #C69696",
"vX c #C79797",
"bX c #C99393",
"nX c #C89793",
"mX c #C89194",
"MX c #CA9396",
"NX c #C89695",
"BX c #C99695",
"VX c #C89496",
"CX c #C99597",
"ZX c #C89697",
"AX c #C89896",
"SX c #CB9897",
"DX c #C69598",
"FX c #C49698",
"GX c #C79699",
"HX c #C99798",
"JX c #CC9598",
"KX c #C89898",
"LX c #CA9899",
"PX c #CB999A",
"IX c #CA9A9A",
/* pixels */
"'.P.6 [ &X5.>XE ] X U [ g.U z DXj.n.i j.n.gX#.E 5.A U U E U #.'.&Xj.i =.sX=.>XE E O A U 5.",
"yXy 6 6 &X&X>X=.z A E E A U U >XDX9 9 9 t.>XJ.G z G O z E 5.A >X>Xy 9 9 P.tX~.5.G G [ G G ",
"6 &X6 &X9 ~.CXL X [ A O z U R g.6 &X6 gX9 0XyX#.[ z U A [ E A '.6 &X6 &X9 !.HXE $ E A O A ",
"n.CX6 &XP.V.0XE G % G A U U z &XV.J.6 j.>XV.yXJ U #.A U G G A CXn.gX6 >X&XV.>XE A % G A G ",
"gX=.9 zXj.&XLXE U U U U U #.U yX>X&X9 '.j.=.sX#.U z U =.[ U A '.>X=.9 DXj.J.LX[ U U U E E ",
"&Xg.i '.gXg.&XE A #.l A O % z gX*X&Xi =.yXV.=.L A A G E z z [ g.&Xz.i tXtXj.&XE z #.z U O ",
"'.7.LXj.J.0X=.z U #.A z E #.z yXgXn.'.>XsX~.>XU #.X U U #.U z HXj.=.LXt.&X>X .z E #.U z U ",
"G z h G E % A >XyXJ.'.CXg.&XP.G 5.A L 5.A G A J.g.&XgXyX'.yXj.U A A O G L % G >XgXJ.yXyX'.",
"#.A #.U G G U '.&XgXV.J.bXV.'.E U #.#.E E U z >Xg.g.V.&XbXgXj.G #.U #.U U G E '.tXgX&Xj.}.",
"E [ #.z A U U j.5.P.'.9 V.Z.>X@.G E E U E X G &X>X'.j.9 V.V.j.@.E E =.z U E G j.5.V.J.9 P.",
"U z =.U U A z '.j.&X&XCX9 g.gXL z A =.l G U U tX&Xj.&X>X6 >XtXL U A #.A U z z '.J.&X&XLX9 ",
"E G z z G z G '.6 6 6 * i < 0XG z U U [ % #.U g.6 ; 6 * 6 6 P.G U z % A G A A '.; 6 9 7 d ",
"G G U E =.A z J.V.DXJ.j.9 gXyXh U z l [ z G [ g.'.0X&Xj.8 yX'.h z A U U #.z z J.&XVXn.}.; ",
"z G G g.l @.l yX&XJ.J.9 j.5.'.z z #.A U #.A z yXt.>XgX6 1.j.G.z A A G g.z [ l >X&XJ.j.9 j.",
"U U #.U z U 1.j.&XgX&XyX0X'.j. .#.E A G G [ #.V.j.j.'.>XP.P.sXE U U @.U z U 5.j.P.&X&XyXgX",
"V.'.&Xg.>XJ.'.=.[ h [ z [ E z gX>XJ.>X'.>X'.'.=.G G #.G A G ] &XJ.'.&Xj.>X'.'.5.=.A =.z #.",
"g.t.6 j.*XLXCXJ @.U #.U U % z '.'.0X6 P.'.j.'.E #.z U E z U @.j.V.5.i n.yXLXgXE [ E #.U U ",
"V.y 9 9 t.>XgXO E =.z U z A z g.j.9 d y P.&XJ.[ U X E z =.X #.'.J.y 9 9 j.&XSX. E =.G U z ",
"6 gX6 1.9 7.}.O E [ U z G U z yX6 V.9 j.6 0X}.A A E A U #.U % '.6 CX6 g.9  .}.O E U U A z ",
"j.g.6 j.P.j.&XG G U #.E #.E [ &Xj.CX9 P.gX&X&XR G U U #.U =.G yXn.$.; g.&Xj.&XA E A @.E [ ",
"yX&X9 '.P.&X&XE U z @.U % A ] >XP.gX9 yXj.'.gX=.U U U A =.G A '.gX&X6 '.P.J.&XE U A [ G % ",
"yXgXi yXJ.0XyXA G E #.E #.#.z J.&Xj.u '.&Xj.&X[ U 5.z z E G E yX0XgXi yX&XVXgXL G U 5.E #.",
"J.*X'.J.0X>X0XG U A z E G G U >XyXz.j.J.yXt.J.U =.G U #.#.[ [ J.j.&X'.J.tX>XgXG U z % E G ",
"=.z E E 5.G E &X'.CX&XyXyX&X&XG #.@.E E E #.A '.&XV.yXgXg.tX'.U =.l L [  .A E &X'.gX>X>XyX",
"G U [ z l #.U '.j.&X,.&XA.j.&XE A U =.O E O G &XyX'.j.&XA.&X&XG x U #.z % #.U '.j.&X#.&Xg.",
"G G z A G z E >X*XtX'.9 V.V.yXz l #.z #.[ 5.U &XP.&X'.< j.Z.1.G A A z A U z U yXyX0X'.8 n.",
"@.O @.E z #.A J.=.&Xt.SX9 >X&X. U A A A G z U CXV.'.P.t.d  .sXA [ z #.E z =.z '.5.&Xg.HX6 ",
"A U =.O [ A G yX6 8 6 7 y 9 !.L E U G U U U [ '.6 9 9 6 6 d P.G A U #.O E G U gX; 6 6 * s ",
"E E G [ z z U '.&X>XJ.*X9 J.>X[ U E #.E G U U '.DX&XP.gX9 j.tX5.U E U @.z z G '.J.}.j.&X6 ",
"U =.U G $ #.z &X&Xt.>X9 V.t.'.( #.z U 5.z @.E &XP.>XJ.6 V.P.'.#.U #.E U % [ A &X&Xg.>X9 V.",
"#.U E #.#.O U >Xg.HXj.'.P.'.V.E U #.=.A #.#.O >X&XgX'.>XS.5.gXE #.A U #.#.% U &Xt.SXj.&X&X",
"'.'.>X&X'.g.yXA z R =.G =.[ #.j.&XyXCXyXJ.J.gXE k z.G h G A % J.J.'.yX>XJ.g.yXA l R =.U =.",
"'.P.i =.yX1.yXR E % U U 1.U A gXg.J.6 j.j.yX$.J 5.A U G #.U #.'.'.n.i =.yX1.yXR E O A U =.",
">Xy 9 y P.'.>X=.z G [ G A U U yXgX; < 6 j.&XJ.E z U X A E #.A yX>X9 9 y P.'.>X=.A G #.U U ",
"6 &X6 &X6 ~.JXE O E U O z G U g.6 &X6 gX8 0XyX .#.z U A [ U A &X6 &X6 &X6 ~.JXE X [ z O A ",
"n.CX6 &X&Xn.gX .G % U A U A A '.&XJ.6 g.>Xj.yXG E #.z U z G G CXn.gX6 >X&Xn.sX[ x z U A G ",
"0X=.8 zXj.J.LXE U U G U U =.E yX0X&Xd '.t.0.>X#.[ z U =.@.U A '.0X5.9 zXj.j.LXE E U U U U ",
"&Xj.i &XyXg.&XE A #.z A O O z HX&X&Xi 1.sX'.=.L G z z #.z A E j.&Xt.i &XtXg.&XE A =.l U X ",
"V.=.PXj.V.>X .% U [ G % U [ O &XyXn.&X~.&X&X>XL #.X A U #.U A LXj.=.PXj.&X>X .h U =.U z E ",
"A z l G E z L >XyXV.&XCXg.'.'.A 5.A G 5.G G A '.g.>XyXyX'.>Xg.U G c l G J z G >XyXj.yXyXV.",
"#.G #.U U G [ '.>XgX&XJ.&X&X'.| U E =.E #.E z &Xg.g.gXP.yXgXg.J #.G #.U U G [ '.&XdX].J.tX",
"U E 5.A z E U g.5.'.P.y >XP.>XE U U @.E ] X G '.gXV.j.9 yXj.J.R U U 1.A z U U j.1.j.P.6 &X",
"U G #.A U z z &Xt.&X>XgX; V.gX[ z z #.z z U E >X&XJ.&X&X; >XsXU U G #.G E z z '.g.yX&XDX6 ",
"U A z z U A z '.6 - 6 6 6 i >XR A U E U z #.#.g.6 6 6 6 ; i J.L E A z z U A z J.9 8 6 9 * ",
"A z U [ #.A z J.tXgX}.P.; ~.>Xf U % z #.X A ] g.V.tX}.t.9 0XP.v G z U @. .G A J.>XgXJ.n.9 "
};
