/* XPM */
static char *checkergreen45[] = {
/* columns rows colors chars-per-pixel */
"45 45 256 2 ",
"   c #021F21",
".  c #033535",
"X  c #093736",
"o  c #033A34",
"O  c #0A3A37",
"+  c #05343B",
"@  c #0A373A",
"#  c #063A39",
"$  c #093939",
"%  c #123C3B",
"&  c #05513D",
"*  c #09543F",
"=  c #397F36",
"-  c #4B7B3F",
";  c #517F3E",
":  c #193F55",
">  c #163F53",
",  c #493A6A",
"<  c #593D6B",
"1  c #5A3575",
"2  c #642E7D",
"3  c #693B76",
"4  c #73387A",
"5  c #63386E",
"6  c #1A4646",
"7  c #134C45",
"8  c #1B4947",
"9  c #1C464C",
"0  c #144D48",
"q  c #1D4B4B",
"w  c #0A5541",
"e  c #065540",
"r  c #1D524B",
"t  c #165049",
"y  c #1B4353",
"u  c #1E4951",
"i  c #184157",
"p  c #224C4C",
"a  c #274B4E",
"s  c #23514E",
"d  c #2A534F",
"f  c #234C51",
"g  c #2B4D53",
"h  c #384B58",
"j  c #255151",
"k  c #2B5152",
"l  c #365455",
"z  c #33655C",
"x  c #2F675C",
"c  c #3B5F60",
"v  c #375F61",
"b  c #0F6B6B",
"n  c #3D6364",
"m  c #386364",
"M  c #257B7B",
"N  c #2A7C7D",
"B  c #425456",
"V  c #4B7941",
"C  c #427143",
"Z  c #507E40",
"A  c #484463",
"S  c #56416B",
"D  c #604071",
"F  c #436465",
"G  c #567578",
"H  c #9E5D73",
"J  c #9D5E6F",
"K  c #B3566A",
"L  c #AE4D7E",
"P  c #B8497A",
"I  c #AA5C76",
"U  c #A4547D",
"Y  c #A95875",
"T  c #B2537C",
"R  c #A7596F",
"E  c #B56279",
"W  c #AB6074",
"Q  c #C3417F",
"!  c #C0627D",
"~  c #3B872F",
"^  c #6DBA14",
"/  c #68B61D",
"(  c #69B71D",
")  c #73B618",
"_  c #4A932E",
"`  c #4E9B2B",
"'  c #448934",
"]  c #5B893B",
"[  c #56853B",
"{  c #5D9036",
"}  c #589831",
"|  c #4A962D",
" . c #649339",
".. c #6A9B38",
"X. c #629733",
"o. c #5BAE3B",
"O. c #6AAF29",
"+. c #6BAF25",
"@. c #7BA625",
"#. c #7BA823",
"$. c #7BAC2C",
"%. c #66B621",
"&. c #6AB323",
"*. c #6ABA21",
"=. c #7DB12C",
"-. c #75BD22",
";. c #74AA35",
":. c #72C31D",
">. c #1D837D",
",. c #22827C",
"<. c #598640",
"1. c #5C975C",
"2. c #5C9958",
"3. c #5E9F4D",
"4. c #669D46",
"5. c #639C4B",
"6. c #699E41",
"7. c #609952",
"8. c #57A845",
"9. c #4BA654",
"0. c #52A84E",
"q. c #64A541",
"w. c #56956A",
"e. c #81B42D",
"r. c #81B330",
"t. c #772788",
"y. c #7F3680",
"u. c #6F2886",
"i. c #2A7981",
"p. c #267A83",
"a. c #7C5B99",
"s. c #775C96",
"d. c #597D87",
"f. c #5C7692",
"g. c #596E9B",
"h. c #6C6493",
"j. c #696A95",
"k. c #66679C",
"l. c #746298",
"z. c #617193",
"x. c #7559A4",
"c. c #6C5FA4",
"v. c #6466A1",
"b. c #843385",
"n. c #8A2291",
"m. c #BA3D8A",
"M. c #BD3A93",
"N. c #963DB1",
"B. c #C3368C",
"V. c #C33C95",
"C. c #DD0FAF",
"Z. c #CD1DAB",
"A. c #D518AE",
"S. c #D60DBC",
"D. c #DB0BBC",
"F. c #DC0BB7",
"G. c #DB1DB5",
"H. c #D914B6",
"J. c #E204BD",
"K. c #E507BB",
"L. c #E419BB",
"P. c #CA21AC",
"I. c #D121AF",
"U. c #8D4F9D",
"Y. c #83569A",
"T. c #94499E",
"R. c #AC4A86",
"E. c #AD468A",
"W. c #B2428C",
"Q. c #B84689",
"!. c #AD5281",
"~. c #B95482",
"^. c #AF4291",
"/. c #844DAA",
"(. c #9045AC",
"). c #C34A8D",
"_. c #C94F8D",
"`. c #DC0EC1",
"'. c #E40DC4",
"]. c #EA06C5",
"[. c #1C8281",
"{. c #368485",
"}. c #3C8686",
"|. c #338D85",
" X c #3C8986",
".X c #3B868A",
"XX c #348C8A",
"oX c #3D8A8B",
"OX c #35868A",
"+X c #269A84",
"@X c #2A9B86",
"#X c #2B9A88",
"$X c #2E9786",
"%X c #35908A",
"&X c #359089",
"*X c #3B8794",
"=X c #3C8892",
"-X c #39869A",
";X c #388699",
":X c #2F8E86",
">X c #498585",
",X c #418A87",
"<X c #41878B",
"1X c #418A8B",
"2X c #468588",
"3X c #538386",
"4X c #4B9595",
"5X c #429D92",
"6X c #4C9499",
"7X c #479797",
"8X c #549696",
"9X c #569997",
"0X c #56979A",
"qX c #59969B",
"wX c #559999",
"eX c #589899",
"rX c #589897",
"tX c #428890",
"yX c #4CA196",
"uX c #579EA2",
"iX c #609FA4",
"pX c #57A1A2",
"aX c #64A3A4",
"sX c #ACBCBC",
"dX c #A9B8B8",
"fX c #B3C1BF",
"gX c #AFC2BE",
"hX c #B2BFC2",
"jX c #AFC3C2",
"kX c #AFC7C9",
"lX c #B2C1C2",
"zX c #BCC9C7",
"xX c #BCC7C9",
"cX c #B6CCCB",
"vX c #BBCACB",
"bX c #B1C2C9",
"nX c #B7D2CE",
"mX c #BCD6D5",
"MX c #BBD8D5",
"NX c #BCD6D9",
"BX c #BFD9DB",
"VX c #B3D1D2",
"CX c #BACCD0",
"ZX c #C0CBCD",
"AX c #C5CFD1",
"SX c #C3D1D1",
"DX c #C5DCDC",
"FX c #C8DCDD",
"GX c #CAE0DE",
"HX c #C6DDE1",
"JX c #CCE0E1",
"KX c #E6ECEB",
"LX c #E9EEED",
"PX c #E9F2EE",
"IX c #ECEFF1",
"UX c #ECF2F2",
/* pixels */
"IXlXzXZXzXvXvXzXxXzXAXLXxXvXvXvXzXvXZXZXvXZXIXGXDXDXFXDXDXFXDXDXDXIXJXDXFXDXGXFXDXDXDXMXUX",
"lX  # @ @ + @ @ X . j dX+ @ $ $ + + @ X O % kXOXM M N N M M N N M VX,XM N M i.[.N N N b NX",
"ZX$ j j f d f f j p n fXq p a u j p f f p k cX6XoX XtX1X1X=XoX,X XMX0X,X<X=XoX,X=X1X1Xi.DX",
"vXO a u q ..] i u p n jX9 j u q  . .y u s k cX4X,X=X;X4.6.=X*X1X.XmX0X}.=X*X5...tXtX1X,.DX",
"zX$ 9 f  .=.=.[ 9 9 n hXa 9 u  .e.=.<.u u k cX4X.X;X5.@.#.4.=X=XoXMX8XOX;X7.@.@.6.oXtXN DX",
"vX+ s ..-.+.O.-.[ 9 n lXq k } -.O.+.-.} f g CX7X.Xq.) +.+.) q.,XOXmX0X=X3.) +.O.^ q.1Xp.FX",
"ZXo l _.M.W.W.V.R.r m lX0 l Q.M.W.W.V.Q.k s cX7X>XW.M.W.^.M.m.>X|.NX8X}.R.B.^.W.M.B.3X,.DX",
"zX$ r 2 '.D.`.S., 7 F sXp 0 1 K.D.'.D., t k cX4X%Xk.S.F.F.D.l.%X.XMX8X:Xg.S.D.S.K.x.%X,.DX",
"vX@ j w S L.P.h * p n hXq j w A G.I.A w a k cX4X<X#Xd.Z.A.g.+X2X}.MX0X}.$Xd.P.C.j.@XoXN FX",
"vX. q q & 5 , & q 8 c hX6 p 9 & < , & p 8 p cX4X}.<X+Xh.h.#X}.}.{.mX8X}..X+Xz.s.+X XoXM DX",
"AXa n F n x z n n v G zXv n n n z z F n m F nXiXwX9XqXyXyXqX9X0X8XDXaX8X0X0XyXyX0X0XrX1XHX",
"KXdXfXhXfXhXjXhXlXsXxXKXlXlXlXfXfXfXhXlXhXlXKXDXMXmXmXmXMXMXmXmXNXUXFXnXNXMXMXNXmXMXNXVXPX",
"zX. q q p 9 9 p q 8 m hX6 8 q p 9 9 q p q s cX4X X.X X.X.X X}..X{.mX8X{.}. X X=X}..X}.M DX",
"vX@ f g 9 j p f a p n lXp j p f a p p p f k cX7XtX,XoXtXtX=X,XoX.XMX8X.XoX=X<X1X=X XoXN HX",
"zXX j 9 9  .[ i f q n lX9 p q i { ] i f f k vX6XoXoX-X5.5.*X=XoX.XMXeX XoX;X2.6.=X=X1XN DX",
"xX$ u 9  .=.$.Z > 9 F fXp q y ] r.$.[ y u k cX4X.X*X7.@.#.5.=X=X.XMX9X.X-X1.@.#.4.=X=XN GX",
"vX+ d ` :.&.%.-.' 9 F bX9 j } :.+.%.:._ u g vX6XoX8.^ +.%.^ o.,X.XNX0X.X0.^ %.%.^ o.,Xi.FX",
"vXo B _.W.R.E.).T p m lX7 l Q.Q.R.R.Q.~.k j cX7X>XQ.W.R.R.W.P 3XXXMXwX}.!.m.R.R.W.Q 3X>.DX",
"vX$ 0 t.'.S.'.`., q n jXp 0 2 '.`.`.'.1 0 d cX4X&Xc.J.F.F.K.x.=X{.MX0X|.v.D.J.S.K./. Xi.DX",
"ZX$ p w D L.I.h w 9 n lXp a w S G.G.A 7 j k cX4X,X@Xz.A.A.j.@XtX.XmX0X}.$Xf.Z.C.l.@XoXN DX",
"zX@ p u * 4 S w a q n fX9 j p w 3 5 w p q k vX4XoX,X+Xl.a.@XoXoX{.mX8X}. X@Xk.a.@XoX1XM DX",
"vX% k k k r s d k p F lXa d d g r r k k d l nXuX4X6X6X5X5X4X4X4X7XDXiX7X4X4X5X5X7X4X4XoXGX",
"IXkXcXcXCXcXcXvXcXcXSXLXcXcXcXcXcXCXcXcXcXcXLXnXcXcXcXCXcXCXcXvXzXKXSXcXcXvXcXvXcXcXcXbXPX",
"FXXX6X4X6X7X6X4X4X7XiXBX4X4X8X4X7X6X4X6X4XpXCXl k k g j j k k k d bXF a k d g j k k k % vX",
"HXN 1X XoXoX=XoXoX}.0XMXOXoXoX.XoXtX.XoX,X6XcXk q j u q f q a q 9 hXv p a q p p u a p X zX",
"DXN 1X=X*X4.1.;XoX}.0XmX.X,X.X;X5.2.-X<X.X6XcXg p p > [ [ y u j p fXn q p : V { y 9 j $ zX",
"DXN .X;X5.@.$.1.-X.XeXmX}.=X*X3.@.@.2.-XoX4XcXk u i [ =.r.[ y u q fXn 9 : V $.e.] u u @ vX",
"FXi.oXo.^ %.( ^ 9..X0XMX.XtX8.^ / ( ^ 0.=X6XvXg q ' :.%.%.:._ p 9 fXF 9 ' :.%.%.:.` s + ZX",
"DX,.3XP U U U P Y ,X8XNX%X3XP L !.U L T >X7XcXr k T ~.U U !.~.l 0 hXm p T ~.U U !._.B o zX",
"DX,.1X(.K.D.D.J.x.|.9XmX|.%X/.K.S.D.J.x.%X4XcXd t u.'.`.`.].u.r 0 lXn 7 1 '.`.`.].t.r O zX",
"DXN oX@Xa.C.A.z.#XoXeXmX.XoX@Xl.C.A.h.@XoX4XvXk p * S G.G.D w j p gXF 9 w A I.L.4 w s $ xX",
"DXN oXoX@XU.l.+X1X.X0XNX}.oXoX@XY.a.@XoXoX4XcXk p s * 4 4 w s s q lXn q f e < y.e p j $ ZX",
"DXM .X}.OX:X&X X.X{.4XmXOX}.}.OX|.|.OX.X}.4XcXa q u q 7 7 q q q 6 sXc 9 f q 7 7 0 p p . vX",
"UXVXmXmXNXNXmXMXMXMXFXLXNXmXMXmXMXMXMXmXMXDXLXhXlXfXlXlXlXlXfXhXhXKXzXgXlXsXlXlXlXlXsXdXKX",
"JX1X9X9XwXwX9XwX0X8XaXDX8X0X9X0X0XwX9X9X0XiXSXF n n n m n n n n c xXG z c F n n n n n k AX",
"DXM  X.X.XOX*X*X.X{.8XmX{.oX X.X=XOX.X X}.7XcXp 9 p 9 9 9 q p q 6 hXc 6 p 9 9 9 9 p p . zX",
"FXN 1X.X*X5.1.-XoXoX9XMX}.tXtX;X7.2.;X=X,X4XcXk p p > ; [ i f a p sXn q p : V [ i u j $ vX",
"DXN =X-X7.@.@.w.*X.X9XNX}.oX*X2.#.#.1.;XtX4XcXk f : V =.e.- i p p lXn 9 : C =.e.[ y f O zX",
"DXN oXo.^ %.( ^ 9.*XeXMX.X=X0.^ *.( ^ 9.=X6XcXk 9 ~ :.*.( :.~ j 9 hXn 9 = :.*.%.:.| p + zX",
"DX[.d.K I H H R J 2XwXMXOX>XK R H H R K 2X7XcXf k E I H H I E l 7 hXv j I W J H I E B . zX",
"FX,.1XN.].D.S.].x.|.9XMX X%X(.].S.F.J.x.=X4XcXd t u.].`.`.].t.q 0 jXn 8 2 '.`.`.].n.q o ZX",
"DXN oX@XU.C.A.j.#X}.9XNX.XoX$Xa.C.G.a.@XoX4XvXg s e 3 G.L.4 w r p lXn q w S G.L.b.w s @ zX",
"HXN tX&X+XT.a.@X,X}.qXNX.X,XoX@XU.Y.@X,X X4XvXk s j e 4 b.w s a p fXc p f w 3 b.w s s $ vX",
"NXb M N M M >.M i.M 1XVXM M N M ,.>.M N N |.kX% @ # # o o o O O . dXj o @ # o o o @ @   lX",
"UXDXDXDXFXBXDXHXFXFXJXIXDXFXDXFXFXDXDXDXDXHXLXZXvXvXzXvXzXvXZXzXxXKXAXxXZXvXzXvXvXzXZXlXUX"
};
