/* XPM */
static char *checkertwocolor45[] = {
/* columns rows colors chars-per-pixel */
"45 45 71 1 ",
"  c #5B6A76",
". c #5C6D7B",
"X c #5F717F",
"o c #616D76",
"O c #616F7B",
"+ c #64727E",
"@ c #69767F",
"# c #5E7182",
"$ c #637482",
"% c #697581",
"& c #677987",
"* c #6C7B86",
"= c #677A89",
"- c #6C7C8B",
"; c #717F8A",
": c #6E808C",
"> c #75848E",
", c #78858E",
"< c #6F8090",
"1 c #768592",
"2 c #798793",
"3 c #778997",
"4 c #7A8894",
"5 c #788A98",
"6 c #808C95",
"7 c #838F98",
"8 c #87939D",
"9 c #8C959B",
"0 c #8A97A0",
"q c #8E9AA3",
"w c #939CA3",
"e c #929FA8",
"r c #95A0AB",
"t c #9BA4AC",
"y c #9DA8B1",
"u c #A4ADB3",
"i c #A8AFB5",
"p c #A0ACB8",
"a c #A9B0B6",
"s c #A7B0B9",
"d c #AAB3BB",
"f c #AFB8BF",
"g c #B3B8BE",
"h c #B3BCC3",
"j c #BBBFC2",
"k c #BDC3C6",
"l c #BDC3C9",
"z c #C1C7CC",
"x c #C4CACE",
"c c #C4CCD0",
"v c #CCCFD4",
"b c #CDD3DA",
"n c #D2D3D7",
"m c #D3D5DA",
"M c #D6DADC",
"N c #DADBDF",
"B c #D5DBE0",
"V c #DDDFE2",
"C c #DEE1E4",
"Z c #E0E0E2",
"A c #E6E7E9",
"S c #E5E9ED",
"D c #EAEBEC",
"F c #E7EFF2",
"G c #EBEEF2",
"H c #EFF0F2",
"J c #F4F5F6",
"K c #FAF9F7",
"L c #F6F7F9",
"P c #F5F9FC",
"I c #FFFFFE",
/* pixels */
"IIIIIt-223255252222252252274;7;54223$8LIIIIII",
"IIIP0O>22<2;;2<12222111<5;;45;5;11,$%DIIIIIII",
"IIIe.11111222<222<<2<111;22;;5;512$;ZIIIIIIII",
"IIh.>>1>22<<22<2122<111252;45;242-*DIIIIIIIII",
"IS::3>>122;222222212<2<2;55;422;-.mIIIIIIIIII",
"G4$11111223223;2111122216;4;2;5; jIIIIIIIIIII",
"q$11113>2<222<2222112222;;44;3%%kIIIIIIIIIIIF",
":,11>11>22<<22<2<211<2<255;33.6CIIIIIIIIIIIK9",
"411111111211222<>1>>111,4;;;#rLIIIIIIIIIIIIp$",
"411>1111112122221111>13>;4-#aKIIIIIIIIIIIIz#;",
"411111112111;2;211111>115;#gIIIIIIIIIIIIIN==5",
"1<111111111222221111>111;#jKIIIIIIIIIIIIS-=6;",
"511<411111;7;552>11>>11-+zIIIIKIIIIIIIIG;$416",
"41111111;25;5;;211>411-OvIIIIIIIIIIIIIH4$2115",
"411141115;5654441>114-ozIIIIIIIIIIIIIP7#4;;2;",
"41<11111;65;;5;5>141-+xIIIIIIIIIIIIIIy#212126",
"51111111>>111>11111> zIIIIIIIIIIIIIIs$;411112",
"4<11111112211>1111>XuIKIIIIIIIIIIIId#;1211112",
"41111411112>1>1111X8IIIIIIIIIIIIIIv#-22112112",
"111111111>>211144@:FIIIIIIIIIIIIKA--2;11122;5",
"41<1121112>1>113:OMIIIIIIIIIIIIIL8%5;22<112;5",
"41111211>121111- zIIIIIIIIIIIIIIs#;;22;1115;5",
"411111112>>1>2>ohIIIIIIIIIIIIIIb#;5;;31211112",
"411<111111>12> sIIIIIIIIIIIIIIP7-255;21111112",
"4111>11>11>3>.tIIIIIIIIIIIIIIIkX2;52;21111114",
"11>21111111>.qIIIIIIIIIIIIIIIP6&2222221111114",
"4;21111111> tIIIIIIIIIIIIIIIIy$1;25;22<2111;1",
"4111>2113- iIIIIIIIIIIIIIIIId$>12222222211214",
"1>1111>3$+zIIIIIIIIIIIIIIIFr$>1154;2;55;11111",
"4111>1>$6NIIIIIIIIIIIIIIIc,$>1>1;4526;5212114",
"4>11>1.9IIIIIIIIIIIIIIIJt+=>1>>15455;5;5;21;4",
"1111<.wKIIIIIIIIIIIIIIB4#>13>111;5;;7;2232222",
"1>4:.uIIIIIIIIIIIIIIIj-$21112;22;22;211111<22",
"41=XkIIIIIIIIIIIIIIIs#-12;1222225225112111122",
"4&@bIIIIIIKIIIIIIIKp#;211112;55;2222121211<12",
"=@MIIIIIIIIIIIIIILr#;11212112224222;1211112<2",
"$NIIIIIIIIIIIIIIHq#4222521;6;7;511211211222;1",
"nIIIIIIIIIIIIIIC5%;;25;;215;5;4411111111;22-,",
"IIIIIIIIIIIIIIb;%;5;;2;5;2225;5;12122111;4-%n",
"IIIIIIIIIIIIIk*&2223;22522;5;554111111115;oxL",
"IIIIIIIIIIIIuX=255;5;55;12212111111221;22.uII",
"IIIIIIIIIILyX>2>;55;;5;211111121>2<11211#qIII",
"IIIIIIIIIc5$>2113;6;55422;1111111>,>2>4$;LKII",
"IIIIIIINq+&2<1>>7;;54;;412111;111>1111$*ALKII",
"IIIIIPh-@1144144225;26252222224422241-9DIIIII"
};
