/* XPM */
static char *checkertricolor45[] = {
/* columns rows colors chars-per-pixel */
"45 45 110 2 ",
"   c #5D6F3B",
".  c #5D7436",
"X  c #5D723B",
"o  c #617636",
"O  c #657D36",
"+  c #6F7C34",
"@  c #607538",
"#  c #657D38",
"$  c #687F39",
"%  c #7A7335",
"&  c #717835",
"*  c #747438",
"=  c #757A38",
"-  c #627345",
";  c #6F7F5A",
":  c #727E58",
">  c #9D592A",
",  c #A55D22",
"<  c #A85B23",
"1  c #AB5C2A",
"2  c #BE5F27",
"3  c #BA5A2A",
"4  c #A65F31",
"5  c #966427",
"6  c #9D6626",
"7  c #98652D",
"8  c #856B38",
"9  c #966930",
"0  c #837234",
"q  c #A7602A",
"w  c #A76D2E",
"e  c #A96B2E",
"r  c #BC632E",
"t  c #AE6834",
"y  c #B66530",
"u  c #CC5118",
"i  c #CF5C1D",
"p  c #DE5415",
"a  c #DC5C15",
"s  c #D1581F",
"d  c #DE5A1A",
"f  c #FD4F01",
"g  c #ED520B",
"h  c #F55205",
"j  c #FD5001",
"k  c #F35309",
"l  c #F85208",
"z  c #E55617",
"x  c #EB5513",
"c  c #EE5917",
"v  c #E15D1D",
"b  c #C45B22",
"n  c #D55623",
"m  c #DE672F",
"M  c #DB6C35",
"N  c #DF6D39",
"B  c #E76022",
"V  c #E06C3B",
"C  c #E4753E",
"Z  c #D97443",
"A  c #DA7B4B",
"S  c #668237",
"D  c #6A8236",
"F  c #66823A",
"G  c #68823A",
"H  c #76825C",
"J  c #778564",
"K  c #7F8D6C",
"L  c #869075",
"P  c #8F957B",
"I  c #DA875F",
"U  c #D28662",
"Y  c #DC8760",
"T  c #D88D65",
"R  c #DC8C6B",
"E  c #D99371",
"W  c #949C83",
"Q  c #A0A795",
"!  c #A3AB95",
"~  c #A9B29E",
"^  c #ADB3A3",
"/  c #B8BFAF",
"(  c #D79F84",
")  c #DD9E82",
"_  c #DAA88F",
"`  c #DDAC94",
"'  c #DDB09D",
"]  c #E4AE94",
"[  c #E1AE99",
"{  c #E3B095",
"}  c #E2B29B",
"|  c #E0B6A6",
" . c #E7B8A6",
".. c #BCC2B4",
"X. c #E9CDBF",
"o. c #C9CCC3",
"O. c #D3D5CB",
"+. c #DEDFD7",
"@. c #ECD5C7",
"#. c #EDD1CA",
"$. c #F1DED7",
"%. c #EEE0D7",
"&. c #EFE0DD",
"*. c #E6E7E2",
"=. c #EDEFEA",
"-. c #F0F1EB",
";. c #F5F6F4",
":. c #FBF7F4",
">. c #FFFAF7",
",. c #FFFFFE",
/* pixels */
"j j j j f j j f ' ,.,.,.,.,.,.,.,.,.~ F F F G G F G F F F t j j j f j j f j f j [ ,.,.,.,.",
"f j j f j j j _ ,.,.,.,.,.,.,.,.,.O.G F F F F G G F F + b j j j f j j f j j j _ ,.,.,.,.,.",
"f j f j j f ` ,.,.,.,.,.,.,.,.,.=.. F F G F F F G G 8 x j j j j j j j j j f ` ,.,.,.,.,.,.",
"j j f j f T ,.,.,.,.,.,.,.,.,.:.X F G F F F F # F 1 j j j j j j j f f j j T ,.,.,.,.,.,.,.",
"j f j f m ,.,.,.,.,.,.,.,.,.,.- G S F F F F O G u f j j j f j j j f j j m ,.,.,.,.,.,.,.,.",
"j f j z >.,.,.,.,.,.,.,.,.,.K F $ $ F F F F $ s f j j j f f f j f f j z :.,.,.,.,.,.,.,.,.",
"j j k %.,.,.,.,.,.,.,.,.,...F F S F F G F G * f j f f j f j j f j j k %.,.,.,.,.,.,.,.,.,.",
"f j #.,.,.,.,.,.,.,.,.,.,.X G F G G F G F F n h j f j f j f j j j f #.,.,.,.,.,.,.,.,.,.,.",
"j ` ,.,.,.,.,.,.,.,.,.,.W G G F F F F F G a f h j j j j j j j j f ` ,.,.,.,.,.,.,.,.,.,.W ",
"{ ,.,.,.,.,.,.,.,.,.,.;.. F F F G F G F 3 f h k f j j f j j j f { ,.,.,.,.,.,.,.,.,.,.;.@ ",
",.,.,.,.,.,.,.,.,.,.;.  F G F F F F S r f f h h j f j f j f h | ,.,.,.,.,.,.,.,.,.,.;.X F ",
",.,.,.,.,.,.,.,.,.^ . $ F G F F F F < j j f k h f j j j j B @.,.,.,.,.,.,.,.,.,.,.^ . F F ",
",.,.,.,.,.,.,.,.; F F F F F F F G 4 j j j j h k j f f j Z ,.,.,.,.,.,.,.,.,.,.,.; F S $ G ",
",.,.,.,.,.,.O.X F F F F F F F G b j j f j j h j j f j A ,.,.,.,.,.,.,.,.,.,.O.X F F F F F ",
",.,.,.,.,.! # F F F G F G G % d j j j j f j h h j f E ,.,.,.,.,.,.,.,.,.,.! # F G F F F G ",
",.,.,.,.W F $ F F F F F F 0 k j j f j j f f h j f  .,.,.,.,.,.,.,.,.,.,.W F G F F F S F F ",
",.,.,.L F G F F F G G G % j j j j j j f f j j f ( ,.,.,.,.,.,.,.,.,.,.L F F F F G S G G 0 ",
",.,.: F F G F G F F F 7 j j j f j f j j j j h | ,.,.,.,.,.,.,.,.,.,.: F F D F F F F F 7 j ",
",.- F F G D F F F G w j j f j j j j j f j j ' ,.,.,.,.,.,.,.,.,.,.- F F F G G G F F e j f ",
"X F F G F F F F G 6 j j j j j j j f f j j R ,.,.,.,.,.,.,.,.,.+.X F F G F F F S G 6 j j j ",
"G F F F F F $ F y j f j f f j j f j j j C ,.,.,.,.,.,.,.,.,./ . G F G F F G G G y j j j f ",
"S F G F F S G > j j j j f j j f j j j d ,.,.,.,.,.,.,.,.o.- F G F F F F F F G > j j j f j ",
"G G F G G $ & g h l h h k k h h h j N ,.,.,.,.,.,.,.,.Q . G F F G G F G F # & g j h h h h ",
"F F F G F q g h h k h h j h h k j V ,.,.,.,.,.,.,.,.J # O F S F F F F F F 1 g h k k h h h ",
"F F F = p f f j j f j j f j j j x %.,.,.,.,.,.,.,.H F F F F G F F G G = p j j j j j f j j ",
"F F G a f f j j j j f f j j j z ,.,.,.,.,.,.,.,.~ F G F G G # F F F G a f f j j j f j j j ",
"F D i j f f j j j j j j j f j &.,.,.,.,.,.,.,.*.o F $ F G F F G F G i j f f j j j j j j j ",
"G r f j f j j j j j j j j c X.,.,.,.,.,.,.,.-.X F F F F F F G F G 2 f j f j j j j j j j j ",
"5 j j f j j j j j j j j N :.,.,.,.,.,.,.,.,.X G G F $ G F F F F 5 j j f j j j j j f j j M ",
"f j j j j j j j j j j Y ,.,.,.,.,.,.,.,.,.- G F F F F S G F F 9 f j j j j j j f f j j I ,.",
"j j j f f j f f j j U ,.,.,.,.,.,.,.,.,.P G F F F F F F F F % f j j j f f j f f f f U ,.,.",
"j j f j j f j j l E ,.,.,.,.,.,.,.,.,.! F G F F G G S F F F z j j j f j j f j j j ) ,.,.,.",
"j j j j f j j j [ ,.,.,.,.,.,.,.,.,.~ F F F F F F G F S F t j f j j j j f j j j [ ,.,.,.,.",
"f j j f j j f _ ,.,.,.,.,.,.,.,.,.O.$ F F F F F G G G + b j j j f j j f j j f _ ,.,.,.,.,.",
"j j f j j j _ ,.,.,.,.,.,.,.,.,.=.. F F G F G S F F 8 x j j j f j f f j j j _ ,.,.,.,.,.,.",
"j f f j j T ,.,.,.,.,.,.,.,.,.:.X F F F G S F $ F 1 j j j j f f j j f j j T ,.,.,.,.,.,.,.",
"j f j j m ,.,.,.,.,.,.,.,.,.,.- G F F F F F $ G u f j f j f j j j f j f m ,.,.,.,.,.,.,.,.",
"j f j z >.,.,.,.,.,.,.,.,.,.K S $ G F F F F # s j j j j f f f j j f j z >.,.,.,.,.,.,.,.,.",
"j j k $.,.,.,.,.,.,.,.,.,...F F F F F G F G * f j j f j f j j f j f k %.,.,.,.,.,.,.,.,.,.",
"j f #.,.,.,.,.,.,.,.,.,.,.X F F F F F G F F n h j f j f j j j j j j #.,.,.,.,.,.,.,.,.,.,.",
"j ` ,.,.,.,.,.,.,.,.,.,.W G F G F F G G F a j h j j f j j j j j j ` ,.,.,.,.,.,.,.,.,.,.W ",
"{ ,.,.,.,.,.,.,.,.,.,.;.. G F G G F F G 3 j j k j j f j f f f j ] ,.,.,.,.,.,.,.,.,.,.;.@ ",
",.,.,.,.,.,.,.,.,.,.;.X F G F F F G F r j j j h j f j j f f h | ,.,.,.,.,.,.,.,.,.,.;.X F ",
",.,.,.,.,.,.,.,.,.^ X $ F S F F F F , f j j k h j j j j j B @.,.,.,.,.,.,.,.,.,.,.^ o S G ",
",.,.,.,.,.,.,.,.H F S F F F G G F 1 j f j j h h j j j j Z ,.,.,.,.,.,.,.,.,.,.,.; G $ G G "
};
