<?xml version="1.0" encoding="utf-8"?>
<!-- Generator: Adobe Illustrator 20.1.0, SVG Export Plug-In . SVG Version: 6.00 Build 0)  -->
<svg version="1.1" id="Layer_1" xmlns="http://www.w3.org/2000/svg" xmlns:xlink="http://www.w3.org/1999/xlink" x="0px"
     y="0px"
     viewBox="0 0 200 200" style="enable-background:new 0 0 200 200;" xml:space="preserve">
<style type="text/css">
	.st0{display:none;}
	.st1{display:inline;}
	.st2{fill:#282828;stroke:#000000;stroke-miterlimit:10;}
	.st3{opacity:0.87;}
	.st4{fill:none;}
	.st5{fill:#E8E8E8;}
	.st6{display:inline;opacity:0.89;fill:#2D2375;enable-background:new    ;}
	.st7{display:inline;fill:#634FC6;}
	.st8{fill:none;stroke:#6CFF7A;stroke-width:4;stroke-miterlimit:10;}
	.st9{fill:none;stroke:#6CFF7A;stroke-width:4;stroke-miterlimit:10;stroke-dasharray:11.9469,9.9557;}
	.st10{fill:none;stroke:#FFFFFF;stroke-width:10;stroke-miterlimit:10;}
	.st11{fill:#FFFFFF;}
	.st12{display:inline;fill:#878787;}
	.st13{fill:#7061DB;}
	.st14{fill:none;stroke:#47F478;stroke-width:4;}
	.st15{fill:none;stroke:#47F478;stroke-width:4;stroke-dasharray:12.5444,12.5444;}
	.st16{fill:none;stroke:#47F478;stroke-width:4;stroke-dasharray:11.2277,11.2277;}
	.st17{fill:none;stroke:#47F478;stroke-width:4;stroke-dasharray:11.3411,11.3411;}
	.st18{fill:#A0A0A0;stroke:#000000;}
	.st19{display:inline;fill:#3BF451;}
	.st20{fill:#FF9700;}
	.st21{display:inline;fill:#7061DB;}
	.st22{display:inline;fill:#FFFFFF;}
	.st23{display:inline;fill:#FCB71D;}
	.st24{display:inline;fill:#F90DF9;}
	.st25{display:inline;fill:#901993;}
	.st26{display:none;fill:#777777;}
	.st27{fill:#A8A8A8;}
	.st28{display:none;fill:#FFFFFF;enable-background:new    ;}
	.st29{font-family:'MyriadPro-Regular';}
	.st30{font-size:34.8192px;}
	.st31{fill:#6FC186;stroke:#3D3D3D;stroke-width:2;stroke-miterlimit:10;}
</style>
    <g id="Layer_1_2_">
	<g id="Layer_2" class="st0">
		<g id="Layer_3" class="st1">
			<g id="Layer_2_3_">
				<rect x="-10" y="-10" class="st2" width="224" height="224"/>
			</g>
		</g>
        <g id="Layer_4" class="st3">
			<g id="Layer_4_6_" class="st1">
				<line class="st4" x1="84.9" y1="188.3" x2="102" y2="188.3"/>
                <rect x="84.9" y="153.6" transform="matrix(1 -1.900654e-03 1.900654e-03 1 -0.3083 0.1779)" width="17.1"
                      height="17.4"/>
                <path class="st5" d="M102,188.3"/>
                <line class="st4" x1="102" y1="188.3" x2="101.9" y2="171"/>
                <line class="st4" x1="101.9" y1="171" x2="101.9" y2="153.6"/>
                <line class="st4" x1="101.9" y1="153.6" x2="101.9" y2="136.3"/>
                <line class="st4" x1="50.9" y1="188.4" x2="67.9" y2="188.3"/>
                <rect x="50.8" y="153.7" transform="matrix(1 -1.900654e-03 1.900654e-03 1 -0.3086 0.1131)" width="17.1"
                      height="17.4"/>
                <line class="st4" x1="67.9" y1="188.3" x2="84.9" y2="188.3"/>
                <rect x="67.9" y="171" transform="matrix(1 -1.900654e-03 1.900654e-03 1 -0.3414 0.1456)" width="17.1"
                      height="17.4"/>
                <rect x="67.8" y="136.3" transform="matrix(1 -1.900654e-03 1.900654e-03 1 -0.2755 0.1454)" width="17.1"
                      height="17.4"/>
                <line class="st4" x1="84.9" y1="84.2" x2="67.8" y2="84.2"/>
                <rect x="67.8" y="101.5" width="17.1" height="17.4"/>
                <line class="st4" x1="67.8" y1="84.2" x2="50.8" y2="84.2"/>
                <rect x="50.8" y="84.1" width="17.1" height="17.4"/>
                <rect x="50.8" y="118.8" width="17.1" height="17.4"/>
                <line class="st4" x1="101.9" y1="136.2" x2="101.9" y2="118.8"/>
                <path d="M101.9,84.2"/>
                <line class="st4" x1="101.9" y1="101.5" x2="101.9" y2="84.1"/>
                <line class="st4" x1="101.9" y1="118.8" x2="101.9" y2="101.5"/>
                <line class="st4" x1="101.9" y1="84.2" x2="84.9" y2="84.2"/>
                <rect x="84.9" y="84.1" width="17.1" height="17.4"/>
                <rect x="84.9" y="118.8" width="17.1" height="17.4"/>
                <line class="st4" x1="16.9" y1="84.2" x2="-0.2" y2="84.2"/>
                <rect x="-0.2" y="101.5" width="17.1" height="17.4"/>
                <path class="st5" d="M-0.2,84.2"/>
                <line class="st4" x1="-0.2" y1="84.1" x2="-0.2" y2="101.5"/>
                <line class="st4" x1="-0.2" y1="101.5" x2="-0.2" y2="118.8"/>
                <line class="st4" x1="-0.2" y1="118.8" x2="-0.2" y2="136.2"/>
                <line class="st4" x1="51" y1="84.2" x2="33.9" y2="84.2"/>
                <rect x="33.9" y="101.5" width="17.1" height="17.4"/>
                <line class="st4" x1="34" y1="84.2" x2="16.9" y2="84.2"/>
                <rect x="16.9" y="84.1" width="17.1" height="17.4"/>
                <rect x="16.9" y="118.8" width="17.1" height="17.4"/>
                <line class="st4" x1="17" y1="188.5" x2="34" y2="188.4"/>

                <rect x="16.9" y="153.8" transform="matrix(1 -1.900654e-03 1.900654e-03 1 -0.3088 4.866526e-02)"
                      width="17.1" height="17.4"/>
                <line class="st4" x1="34" y1="188.4" x2="51.1" y2="188.4"/>
                <rect x="34" y="171.1" transform="matrix(1 -1.900654e-03 1.900654e-03 1 -0.3417 8.119764e-02)"
                      width="17.1" height="17.4"/>

                <rect x="33.9" y="136.4" transform="matrix(1 -1.900654e-03 1.900654e-03 1 -0.2757 8.094499e-02)"
                      width="17.1" height="17.4"/>
                <line class="st4" x1="-0.1" y1="136.5" x2="-0.1" y2="153.9"/>
                <path d="M0,188.5"/>
                <line class="st4" x1="-0.1" y1="171.2" x2="0" y2="188.6"/>
                <line class="st4" x1="-0.1" y1="153.9" x2="-0.1" y2="171.2"/>
                <line class="st4" x1="-0.1" y1="188.5" x2="17" y2="188.5"/>

                <rect x="-0.1" y="171.2" transform="matrix(1 -1.900654e-03 1.900654e-03 1 -0.3419 1.638552e-02)"
                      width="17.1" height="17.4"/>
                <rect x="-0.2" y="136.5" transform="matrix(1 -1.900654e-03 1.900654e-03 1 -0.276 1.613268e-02)"
                      width="17.1" height="17.4"/>
			</g>
            <g id="Layer_4_1_" class="st1">
				<line class="st4" x1="203.9" y1="170.8" x2="203.9" y2="153.4"/>
                <path d="M204,205.4"/>
                <line class="st4" x1="204" y1="205.5" x2="204" y2="188.1"/>
                <line class="st4" x1="204" y1="188.1" x2="203.9" y2="170.8"/>
                <line class="st4" x1="169.9" y1="205.5" x2="187" y2="205.4"/>
                <rect x="169.9" y="170.8" transform="matrix(1 -1.900654e-03 1.900654e-03 1 -0.3408 0.3395)" width="17.1"
                      height="17.4"/>
                <line class="st4" x1="186.9" y1="205.4" x2="204" y2="205.4"/>
                <rect x="186.9" y="188.1" transform="matrix(1 -1.900654e-03 1.900654e-03 1 -0.3737 0.3718)" width="17.1"
                      height="17.4"/>
                <rect x="186.9" y="153.4" transform="matrix(1 -1.900654e-03 1.900654e-03 1 -0.3077 0.3718)" width="17.1"
                      height="17.4"/>
                <line class="st4" x1="203.9" y1="101.3" x2="186.9" y2="101.3"/>
                <rect x="186.9" y="118.6" width="17.1" height="17.4"/>
                <line class="st4" x1="186.9" y1="101.3" x2="169.8" y2="101.3"/>
                <rect x="169.8" y="101.2" width="17.1" height="17.4"/>
                <rect x="169.8" y="135.9" width="17.1" height="17.4"/>
                <path class="st5" d="M203.9,101.3"/>
                <line class="st4" x1="203.9" y1="118.6" x2="203.9" y2="101.2"/>
                <line class="st4" x1="203.9" y1="135.9" x2="203.9" y2="118.6"/>
                <line class="st4" x1="203.9" y1="153.3" x2="203.9" y2="135.9"/>
                <line class="st4" x1="136" y1="101.3" x2="118.9" y2="101.3"/>
                <rect x="118.9" y="118.6" width="17.1" height="17.4"/>
                <line class="st4" x1="118.9" y1="101.3" x2="101.9" y2="101.3"/>
                <rect x="101.9" y="101.2" width="17.1" height="17.4"/>
                <rect x="101.9" y="135.9" width="17.1" height="17.4"/>
                <line class="st4" x1="170" y1="101.3" x2="153" y2="101.3"/>
                <rect x="153" y="118.6" width="17.1" height="17.4"/>
                <line class="st4" x1="153" y1="101.3" x2="136" y2="101.3"/>
                <rect x="136" y="101.2" width="17.1" height="17.4"/>
                <rect x="136" y="135.9" width="17.1" height="17.4"/>
                <line class="st4" x1="136" y1="205.6" x2="153.1" y2="205.5"/>
                <rect x="136" y="170.9" transform="matrix(1 -1.900654e-03 1.900654e-03 1 -0.3411 0.2751)" width="17.1"
                      height="17.4"/>
                <line class="st4" x1="153.1" y1="205.5" x2="170.1" y2="205.5"/>
                <rect x="153.1" y="188.2" transform="matrix(1 -1.900654e-03 1.900654e-03 1 -0.3739 0.3076)" width="17.1"
                      height="17.4"/>
                <rect x="153" y="153.5" transform="matrix(1 -1.900654e-03 1.900654e-03 1 -0.308 0.3073)" width="17.1"
                      height="17.4"/>
                <line class="st4" x1="102" y1="205.6" x2="119" y2="205.6"/>
                <rect x="101.9" y="171" transform="matrix(1 -1.900654e-03 1.900654e-03 1 -0.3413 0.2103)" width="17.1"
                      height="17.4"/>
                <line class="st4" x1="119" y1="205.6" x2="136" y2="205.6"/>
                <rect x="119" y="188.3" transform="matrix(1 -1.900654e-03 1.900654e-03 1 -0.3742 0.2428)" width="17.1"
                      height="17.4"/>
                <rect x="118.9" y="153.6" transform="matrix(1 -1.900654e-03 1.900654e-03 1 -0.3082 0.2425)" width="17.1"
                      height="17.4"/>
			</g>
            <g id="Layer_4_2_" class="st1">
				<line class="st4" x1="203.5" y1="66.5" x2="203.5" y2="49.2"/>
                <path d="M203.6,101.2"/>
                <line class="st4" x1="203.6" y1="101.2" x2="203.5" y2="83.9"/>
                <line class="st4" x1="203.5" y1="83.9" x2="203.5" y2="66.5"/>
                <line class="st4" x1="169.5" y1="101.2" x2="186.6" y2="101.2"/>
                <rect x="169.5" y="66.6" transform="matrix(1 -1.900654e-03 1.900654e-03 1 -0.1428 0.3385)" width="17.1"
                      height="17.4"/>
                <line class="st4" x1="186.5" y1="101.2" x2="203.6" y2="101.2"/>
                <rect x="186.5" y="83.9" transform="matrix(1 -1.900654e-03 1.900654e-03 1 -0.1756 0.3709)" width="17.1"
                      height="17.4"/>
                <rect x="186.4" y="49.2" transform="matrix(1 -1.900654e-03 1.900654e-03 1 -0.1097 0.3706)" width="17.1"
                      height="17.4"/>
                <line class="st4" x1="203.5" y1="-3" x2="186.5" y2="-3"/>
                <rect x="186.5" y="14.3" width="17.1" height="17.4"/>
                <line class="st4" x1="186.5" y1="-3" x2="169.4" y2="-3"/>
                <rect x="169.4" y="-3" width="17.1" height="17.4"/>
                <rect x="169.4" y="31.7" width="17.1" height="17.4"/>
                <path class="st5" d="M203.5-3"/>
                <line class="st4" x1="203.5" y1="14.3" x2="203.5" y2="-3"/>
                <line class="st4" x1="203.5" y1="31.7" x2="203.5" y2="14.3"/>
                <line class="st4" x1="203.5" y1="49" x2="203.5" y2="31.7"/>
                <line class="st4" x1="135.6" y1="-2.9" x2="118.5" y2="-2.9"/>
                <rect x="118.5" y="14.4" width="17.1" height="17.4"/>
                <line class="st4" x1="118.5" y1="-2.9" x2="101.4" y2="-2.9"/>
                <rect x="101.4" y="-3" width="17.1" height="17.4"/>
                <rect x="101.4" y="31.7" width="17.1" height="17.4"/>
                <line class="st4" x1="169.6" y1="-2.9" x2="152.5" y2="-2.9"/>
                <rect x="152.5" y="14.4" width="17.1" height="17.4"/>
                <line class="st4" x1="152.6" y1="-2.9" x2="135.6" y2="-2.9"/>
                <rect x="135.6" y="-3" width="17.1" height="17.4"/>
                <rect x="135.6" y="31.7" width="17.1" height="17.4"/>
                <line class="st4" x1="135.6" y1="101.3" x2="152.7" y2="101.3"/>
                <rect x="135.6" y="66.7" transform="matrix(1 -1.900654e-03 1.900654e-03 1 -0.143 0.2741)" width="17.1"
                      height="17.4"/>
                <line class="st4" x1="152.7" y1="101.3" x2="169.7" y2="101.3"/>
                <rect x="152.6" y="84" transform="matrix(1 -1.900654e-03 1.900654e-03 1 -0.1759 0.3065)" width="17.1"
                      height="17.4"/>
                <rect x="152.6" y="49.3" transform="matrix(1 -1.900654e-03 1.900654e-03 1 -0.1099 0.3064)" width="17.1"
                      height="17.4"/>
                <line class="st4" x1="101.6" y1="101.4" x2="118.6" y2="101.4"/>
                <rect x="101.5" y="66.7" transform="matrix(1 -1.900654e-03 1.900654e-03 1 -0.1431 0.2093)" width="17.1"
                      height="17.4"/>
                <line class="st4" x1="118.6" y1="101.4" x2="135.6" y2="101.3"/>
                <rect x="118.5" y="84.1" transform="matrix(1 -1.900654e-03 1.900654e-03 1 -0.1762 0.2416)" width="17.1"
                      height="17.4"/>
                <rect x="118.5" y="49.4" transform="matrix(1 -1.900654e-03 1.900654e-03 1 -0.1102 0.2416)" width="17.1"
                      height="17.4"/>
			</g>
            <g id="Layer_4_4_" class="st1">
				<line class="st4" x1="84.3" y1="84.2" x2="101.3" y2="84.2"/>
                <rect x="84.2" y="49.6" transform="matrix(1 -1.900654e-03 1.900654e-03 1 -0.1106 0.1764)" width="17.1"
                      height="17.4"/>
                <path class="st5" d="M101.3,84.2"/>
                <line class="st4" x1="101.3" y1="84.2" x2="101.3" y2="66.9"/>
                <line class="st4" x1="101.3" y1="66.9" x2="101.3" y2="49.5"/>
                <line class="st4" x1="101.3" y1="49.5" x2="101.2" y2="32.2"/>
                <line class="st4" x1="50.2" y1="84.3" x2="67.3" y2="84.3"/>
                <rect x="50.2" y="49.6" transform="matrix(1 -1.900654e-03 1.900654e-03 1 -0.1107 0.1118)" width="17.1"
                      height="17.4"/>
                <line class="st4" x1="67.2" y1="84.3" x2="84.3" y2="84.2"/>
                <rect x="67.2" y="66.9" transform="matrix(1 -1.900654e-03 1.900654e-03 1 -0.1436 0.1441)" width="17.1"
                      height="17.4"/>
                <rect x="67.1" y="32.2" transform="matrix(1 -1.900654e-03 1.900654e-03 1 -7.760031e-02 0.1439)"
                      width="17.1" height="17.4"/>
                <line class="st4" x1="84.2" y1="-2.6" x2="67.2" y2="-2.6"/>
                <rect x="67.2" y="-2.6" width="17.1" height="17.4"/>
                <line class="st4" x1="67.2" y1="-2.6" x2="50.1" y2="-2.6"/>
                <rect x="50.1" y="14.7" width="17.1" height="17.4"/>
                <line class="st4" x1="101.2" y1="32.1" x2="101.2" y2="14.7"/>
                <path class="st5" d="M101.2-2.6"/>
                <line class="st4" x1="101.2" y1="14.7" x2="101.2" y2="-2.6"/>
                <line class="st4" x1="101.3" y1="-2.6" x2="84.2" y2="-2.6"/>
                <rect x="84.2" y="14.7" width="17.1" height="17.4"/>
                <line class="st4" x1="16.3" y1="-2.6" x2="-0.8" y2="-2.6"/>
                <rect x="-0.8" y="-2.6" width="17.1" height="17.4"/>
                <path d="M-0.8-2.6"/>
                <line class="st4" x1="-0.8" y1="14.8" x2="-0.8" y2="32.1"/>
                <line class="st4" x1="50.3" y1="-2.6" x2="33.3" y2="-2.6"/>
                <rect x="33.3" y="-2.6" width="17.1" height="17.4"/>
                <line class="st4" x1="33.3" y1="-2.6" x2="16.3" y2="-2.6"/>
                <rect x="16.3" y="14.8" width="17.1" height="17.4"/>
                <line class="st4" x1="16.3" y1="84.4" x2="33.4" y2="84.4"/>
                <rect x="16.3" y="49.7" transform="matrix(1 -1.900654e-03 1.900654e-03 1 -0.111 4.733672e-02)"
                      width="17.1" height="17.4"/>
                <line class="st4" x1="33.4" y1="84.4" x2="50.4" y2="84.3"/>
                <rect x="33.4" y="67" transform="matrix(1 -1.900654e-03 1.900654e-03 1 -0.1438 7.986930e-02)"
                      width="17.1" height="17.4"/>

                <rect x="33.3" y="32.3" transform="matrix(1 -1.900654e-03 1.900654e-03 1 -7.785134e-02 7.961655e-02)"
                      width="17.1" height="17.4"/>
                <line class="st4" x1="-0.8" y1="32.4" x2="-0.7" y2="49.8"/>
                <path d="M-0.7,84.4"/>
                <line class="st4" x1="-0.7" y1="67.1" x2="-0.7" y2="84.5"/>
                <line class="st4" x1="-0.7" y1="49.8" x2="-0.7" y2="67.1"/>
                <line class="st4" x1="-0.7" y1="84.4" x2="16.3" y2="84.4"/>
                <rect x="-0.7" y="67.1" transform="matrix(1 -1.900654e-03 1.900654e-03 1 -0.1441 1.505699e-02)"
                      width="17.1" height="17.4"/>

                <rect x="-0.8" y="32.4" transform="matrix(1 -1.900654e-03 1.900654e-03 1 -7.810301e-02 1.480433e-02)"
                      width="17.1" height="17.4"/>
			</g>
            <g id="Layer_4_3_" class="st1">
				<line class="st4" x1="84.9" y1="188.6" x2="67.9" y2="188.6"/>
                <line class="st4" x1="67.9" y1="205.9" x2="84.9" y2="205.9"/>
                <line class="st4" x1="67.9" y1="188.6" x2="50.8" y2="188.6"/>
                <rect x="50.8" y="188.5" width="17.1" height="17.4"/>
                <line class="st4" x1="50.8" y1="205.9" x2="67.9" y2="205.9"/>
                <path d="M101.9,188.6"/>
                <line class="st4" x1="101.9" y1="205.9" x2="101.9" y2="188.5"/>
                <path d="M101.9,205.9"/>
                <line class="st4" x1="102" y1="188.6" x2="84.9" y2="188.6"/>
                <rect x="84.9" y="188.5" width="17.1" height="17.4"/>
                <line class="st4" x1="84.9" y1="205.9" x2="102" y2="205.9"/>
                <line class="st4" x1="16.9" y1="188.6" x2="-0.1" y2="188.6"/>
                <line class="st4" x1="-0.1" y1="205.9" x2="16.9" y2="205.9"/>
                <path class="st5" d="M-0.1,188.6"/>
                <line class="st4" x1="-0.1" y1="188.6" x2="-0.1" y2="205.9"/>
                <path class="st5" d="M-0.1,205.9"/>
                <line class="st4" x1="51" y1="188.6" x2="33.9" y2="188.6"/>
                <line class="st4" x1="33.9" y1="205.9" x2="51" y2="205.9"/>
                <line class="st4" x1="34" y1="188.6" x2="16.9" y2="188.6"/>
                <rect x="16.9" y="188.6" width="17.1" height="17.4"/>
                <line class="st4" x1="16.9" y1="205.9" x2="34" y2="205.9"/>
			</g>
		</g>
	</g>
        <g id="Layer_1_1_" class="st0">
		<polygon class="st6" points="110.5,14.3 158.8,39.9 124.8,138.8 37.3,164.3 38.3,39.9 		"/>
            <polygon class="st7" points="158.5,56.7 195,97.5 128.7,178.5 37.8,172 82,55.6 		"/>
            <g id="Layer_3_1_" class="st1">
			<line class="st8" x1="37.1" y1="171.5" x2="81.3" y2="55.2"/>
                <g>
				<g>
					<line class="st8" x1="37.3" y1="171.3" x2="37.3" y2="165.3"/>
                    <line class="st9" x1="37.4" y1="155.4" x2="38.3" y2="50.8"/>
                    <line class="st8" x1="38.3" y1="45.9" x2="38.3" y2="39.9"/>
				</g>
			</g>
		</g>
            <g class="st1">
			<g>
				<path class="st10" d="M60.9,87.2c7.4-3.2,15.3-4.8,20.1-0.1c12.2,11.7,3.3,37.1-19.8,27.6"/>
                <g>
					<polygon class="st11" points="72.5,98.3 42.6,98.5 57.3,72.5 					"/>
				</g>
			</g>
		</g>
	</g>
        <g id="Layer_3_2_" class="st0">
		<polygon class="st12" points="193.2,78.4 152.5,169.6 6.1,110.2 99.1,55.4 		"/>
            <g class="st1">
			<polygon class="st13" points="192.4,46.4 151.7,137.6 5.4,78.2 98.4,23.4 			"/>
                <g>
				<polyline class="st14" points="186.6,45 192.4,46.4 190,51.9 				"/>
                    <line class="st15" x1="184.8" y1="63.4" x2="156.7" y2="126.4"/>
                    <polyline class="st14" points="154.2,132.1 151.7,137.6 146.2,135.3 				"/>
                    <line class="st16" x1="135.8" y1="131.1" x2="16.1" y2="82.6"/>
                    <polyline class="st14" points="10.9,80.5 5.4,78.2 10.5,75.2 				"/>
                    <polyline class="st17" points="20.3,69.4 98.4,23.4 181.1,43.7 				"/>
			</g>
		</g>
            <g id="Layer_5_1_" class="st1">
			<rect x="12.1" y="13.5" class="st18" width="45.1" height="26.4"/>
                <rect x="57.2" y="17.1" class="st18" width="5.1" height="19.1"/>
                <polygon class="st18" points="71.8,13.5 62.2,17.1 62.2,36.2 71.8,39.9 			"/>
                <ellipse class="st18" cx="24.2" cy="2.2" rx="10.8" ry="11.3"/>
                <ellipse class="st18" cx="46.1" cy="2.3" rx="10.8" ry="11.3"/>
		</g>
            <circle class="st19" cx="16" cy="168" r="10.8"/>
	</g>
        <g id="Layer_6" class="st0">
		<g id="Layer_4_5_" class="st1">
			<polygon class="st20"
                     points="31.6,147.5 23.7,157.6 31.6,163.7 45.7,174.8 48.1,171.7 47,159.5 			"/>

            <rect x="6.4" y="176.6" transform="matrix(0.6142 -0.7892 0.7892 0.6142 -132.5092 87.9642)" class="st20"
                  width="34.6" height="5.8"/>
		</g>
            <g id="Layer_5" class="st1">
			<polygon class="st20" points="6.8,159.1 33.6,192.7 38,194 39.1,193.1 8.2,157.7 			"/>
                <polygon class="st20" points="9.3,156.9 38.8,188.2 39.8,192.5 38.9,193.3 8,157.9 			"/>
		</g>
	</g>
</g>
    <g id="Layer_2_1_" class="st0">
	<rect x="13.8" y="46.8" class="st21" width="16.9" height="18"/>
        <rect x="167.9" y="46.8" class="st21" width="16.9" height="18"/>
        <rect x="33.4" y="46.8" class="st21" width="64.5" height="18"/>
        <rect x="100.7" y="46.8" class="st21" width="64.5" height="18"/>
        <rect x="13.8" y="35" class="st21" width="16.9" height="9"/>
        <rect x="167.9" y="35" class="st21" width="16.9" height="9"/>
        <rect x="33.4" y="35" class="st21" width="64.5" height="9"/>
        <rect x="100.7" y="35" class="st21" width="64.5" height="9"/>
        <rect x="13.8" y="126.3" class="st21" width="16.9" height="18"/>
        <rect x="167.9" y="126.3" class="st21" width="16.9" height="18"/>
        <rect x="33.4" y="126.3" class="st21" width="64.5" height="18"/>
        <rect x="100.7" y="126.3" class="st21" width="64.5" height="18"/>
        <rect x="13.8" y="67.5" class="st21" width="16.9" height="56.8"/>
        <rect x="167.9" y="67.5" class="st21" width="16.9" height="56.8"/>
        <rect x="33.4" y="67.5" class="st21" width="64.5" height="56.8"/>
        <rect x="100.7" y="67.5" class="st21" width="64.5" height="56.8"/>
</g>
    <g id="Layer_3_3_" class="st0">
	<rect x="4.7" y="110.6" class="st22" width="192.7" height="5.9"/>
        <polygon class="st23" points="32.7,110.6 32.7,36.9 63.9,14.1 63.9,110.6 	"/>
        <rect x="66.7" y="14.1" class="st23" width="67" height="96.5"/>
        <polygon class="st23" points="136.6,14.1 136.6,110.6 169.3,110.6 169.3,33.8 	"/>
        <rect x="29.8" y="110.3" class="st24" width="7.2" height="7.2"/>
        <rect x="29.1" y="33.3" class="st25" width="7.2" height="7.2"/>
        <rect x="165.1" y="110.3" class="st24" width="7.2" height="7.2"/>
        <rect x="131.5" y="110.3" class="st24" width="7.2" height="7.2"/>
        <rect x="165.1" y="30.5" class="st25" width="7.2" height="7.2"/>
        <rect x="131.5" y="12.1" class="st25" width="7.2" height="7.2"/>
        <rect x="61.4" y="110.4" class="st24" width="7.2" height="7.2"/>
        <rect x="61.4" y="12.1" class="st25" width="7.2" height="7.2"/>
</g>
    <polygon class="st26" points="59.4,91.8 102.7,74.3 160.9,104.8 129.6,132.8 "/>
    <g id="Layer_4_7_">
	<polygon class="st27" points="8.7,84.3 100.6,59 190.9,103.2 139.2,168.1 109.3,149.2 160.9,104.8 102.7,74.3 59.4,91.8 
		129.6,132.8 109.3,149.2 	"/>
        <text transform="matrix(1 0 0 1 19.5366 198.1504)" class="st28 st29 st30">DUPLICATE</text>
        <text transform="matrix(1 0 0 1 27.7007 233.8164)" class="st28 st29 st30">SEPARATE</text>
        <polygon class="st31" points="80,73.3 140.3,109.3 171.2,87.2 117.3,61.1 	"/>
</g>
</svg>
