/* XPM */
static char *checker_xpm[] = {
/* width height num_colors chars_per_pixel */
"   128   128        8            1",
/* colors */
"` c #000000",
". c #1b73a1",
"# c #8d8c8d",
"a c #c1c1c1",
"b c #259edc",
"c c #204253",
"d c #5d5b5d",
"e c #696c6a",
/* pixels */
"````````````````````````````````````````````````````````````````````````````````````````````````````````````````````````````````",
"`bbbbbb.bbbbbbb.bbbbbbb.bbbbbbb.bbbbbbb.bbbbbbb.bbbbbbb.bbbbbbb``aaaaaa#aaaaaaa#aaaaaaa#aaaaaaa#aaaaaaa#aaaaaaa#aaaaaaa#aaaaaaa`",
"`bbbbbb.bbbbbbb.bbbbbbb.bbbbbbb.bbbbbbb.bbbbbbb.bbbbbbb.bbbbbbb``aaaaaa#aaaaaaa#aaaaaaa#aaaaaaa#aaaaaaa#aaaaaaa#aaaaaaa#aaaaaaa`",
"`bbbbbb.bbbbbbb.bbbbbbb.bbbbbbb.bbbbbbb.bbbbbbb.bbbbbbb.bbbbbbb``aaaaaa#aaaaaaa#aaaaaaa#aaaaaaa#aaaaaaa#aaaaaaa#aaaaaaa#aaaaaaa`",
"`bbbbbb.bbbbbbb.bbbbbbb.bbbbbbb.bbbbbbb.bbbbbbb.bbbbbbb.bbbbbbb``aaaaaa#aaaaaaa#aaaaaaa#aaaaaaa#aaaaaaa#aaaaaaa#aaaaaaa#aaaaaaa`",
"`bbbbbb.bbbbbbb.bbbbbbb.bbbbbbb.bbbbbbb.bbbbbbb.bbbbbbb.bbbbbbb``aaaaaa#aaaaaaa#aaaaaaa#aaaaaaa#aaaaaaa#aaaaaaa#aaaaaaa#aaaaaaa`",
"`bbbbbb.bbbbbbb.bbbbbbb.bbbbbbb.bbbbbbb.bbbbbbb.bbbbbbb.bbbbbbb``aaaaaa#aaaaaaa#aaaaaaa#aaaaaaa#aaaaaaa#aaaaaaa#aaaaaaa#aaaaaaa`",
"`..............................................................``##############################################################`",
"`bbbbbb.bbbbbbb.bbbbbbb.bbbbbbb.bbbbbbb.bbbbbbb.bbbbbbb.bbbbbbb``aaaaaa#aaaaaaa#aaaaaaa#aaaaaaa#aaaaaaa#aaaaaaa#aaaaaaa#aaaaaaa`",
"`bbbbbb.bbbbbbb.bbbbbbb.bbbbbbb.bbbbbbb.bbbbbbb.bbbbbbb.bbbbbbb``aaaaaa#aaaaaaa#aaaaaaa#aaaaaaa#aaaaaaa#aaaaaaa#aaaaaaa#aaaaaaa`",
"`bbbbbb.bbbbbbb.bbbbbbb.bbbbbbb.bbbbbbb.bbbbbbb.bbbbbbb.bbbbbbb``aaaaaa#aaaaaaa#aaaaaaa#aaaaaaa#aaaaaaa#aaaaaaa#aaaaaaa#aaaaaaa`",
"`bbbbbb.bbbbbbb.bbbbbbb.bbbbbbb.bbbbbbb.bbbbbbb.bbbbbbb.bbbbbbb``aaaaaa#aaaaaaa#aaaaaaa#aaaaaaa#aaaaaaa#aaaaaaa#aaaaaaa#aaaaaaa`",
"`bbbbbb.bbbbbbb.bbbbbbb.bbbbbbb.bbbbbbb.bbbbbbb.bbbbbbb.bbbbbbb``aaaaaa#aaaaaaa#aaaaaaa#aaaaaaa#aaaaaaa#aaaaaaa#aaaaaaa#aaaaaaa`",
"`bbbbbb.bbbbbbb.bbbbbbb.bbbbbbb.bbbbbbb.bbbbbbb.bbbbbbb.bbbbbbb``aaaaaa#aaaaaaa#aaaaaaa#aaaaaaa#aaaaaaa#aaaaaaa#aaaaaaa#aaaaaaa`",
"`bbbbbb.bbbbbbb.bbbbbbb.bbbbbbb.bbbbbbb.bbbbbbb.bbbbbbb.bbbbbbb``aaaaaa#aaaaaaa#aaaaaaa#aaaaaaa#aaaaaaa#aaaaaaa#aaaaaaa#aaaaaaa`",
"`..............................................................``##############################################################`",
"`bbbbbb.bbbbbbb.bbbbbbb.bbbbbbb.bbbbbbb.bbbbbbb.bbbbbbb.bbbbbbb``aaaaaa#aaaaaaa#aaaaaaa#aaaaaaa#aaaaaaa#aaaaaaa#aaaaaaa#aaaaaaa`",
"`bbbbbb.bbbbbbb.bbbbbbb.bbbbbbb.bbbbbbb.bbbbbbb.bbbbbbb.bbbbbbb``aaaaaa#aaaaaaa#aaaaaaa#aaaaaaa#aaaaaaa#aaaaaaa#aaaaaaa#aaaaaaa`",
"`bbbbbb.bbbbbbb.bbbbbbb.bbbbbbb.bbbbbbb.bbbbbbb.bbbbbbb.bbbbbbb``aaaaaa#aaaaaaa#aaaaaaa#aaaaaaa#aaaaaaa#aaaaaaa#aaaaaaa#aaaaaaa`",
"`bbbbbb.bbbbbbb.bbbbbbb.bbbbb.`````bbbb.bbbbbbb.bbbbbbb.bbbbbbb``aaaaaa#aaaaaaa#aaaaaaa#a#e``````ddaaaa#aaaaaaa#aaaaaaa#aaaaaaa`",
"`bbbbbb.bbbbbbb.bbbbbbb.bbbbbc`````bbbb.bbbbbbb.bbbbbbb.bbbbbbb``aaaaaa#aaaaaaa#aaaaaaad````````````eaa#aaaaaaa#aaaaaaa#aaaaaaa`",
"`bbbbbb.bbbbbbb.bbbbbbb.bbbbc``````bbbb.bbbbbbb.bbbbbbb.bbbbbbb``aaaaaa#aaaaaaa#aaaaaae``````````````ca#aaaaaaa#aaaaaaa#aaaaaaa`",
"`bbbbbb.bbbbbbb.bbbbbbb.bbb.```````bbbb.bbbbbbb.bbbbbbb.bbbbbbb``aaaaaa#aaaaaaa#aaaaae````````````````d#aaaaaaa#aaaaaaa#aaaaaaa`",
"`.........................c````````............................``###################e``````````````````e#######################`",
"`bbbbbb.bbbbbbb.bbbbbbb..``````````bbbb.bbbbbbb.bbbbbbb.bbbbbbb``aaaaaa#aaaaaaa#aaaae``````daaaec``````caaaaaaa#aaaaaaa#aaaaaaa`",
"`bbbbbb.bbbbbbb.bbbbbbc````````````bbbb.bbbbbbb.bbbbbbb.bbbbbbb``aaaaaa#aaaaaaa#aaaac`````eaaaa#ac`````caaaaaaa#aaaaaaa#aaaaaaa`",
"`bbbbbb.bbbbbbb.bbbbbc`````````````bbbb.bbbbbbb.bbbbbbb.bbbbbbb``aaaaaa#aaaaaaa#aaaa``````aaaaa#a#`````caaaaaaa#aaaaaaa#aaaaaaa`",
"`bbbbbb.bbbbbbb.bbbbbc``````.``````bbbb.bbbbbbb.bbbbbbb.bbbbbbb``aaaaaa#aaaaaaa#aaaaeec``caaaaa#aa`````caaaaaaa#aaaaaaa#aaaaaaa`",
"`bbbbbb.bbbbbbb.bbbbbc````cbb``````bbbb.bbbbbbb.bbbbbbb.bbbbbbb``aaaaaa#aaaaaaa#aaaaaaa#aaaaaaa#ae`````daaaaaaa#aaaaaaa#aaaaaaa`",
"`bbbbbb.bbbbbbb.bbbbbc```.bbb``````bbbb.bbbbbbb.bbbbbbb.bbbbbbb``aaaaaa#aaaaaaa#aaaaaaa#aaaaaaa#a``````#aaaaaaa#aaaaaaa#aaaaaaa`",
"`bbbbbb.bbbbbbb.bbbbbcccbbbbb``````bbbb.bbbbbbb.bbbbbbb.bbbbbbb``aaaaaa#aaaaaaa#aaaaaaa#aaaaaaa#d`````e#aaaaaaa#aaaaaaa#aaaaaaa`",
"`............................``````............................``##############################c`````c#########################`",
"`bbbbbb.bbbbbbb.bbbbbbb.bbbbb``````bbbb.bbbbbbb.bbbbbbb.bbbbbbb``aaaaaa#aaaaaaa#aaaaaaa#aaaaaac`````caa#aaaaaaa#aaaaaaa#aaaaaaa`",
"`bbbbbb.bbbbbbb.bbbbbbb.bbbbb``````bbbb.bbbbbbb.bbbbbbb.bbbbbbb``aaaaaa#aaaaaaa#aaaaaaa#aaaa#``````caaa#aaaaaaa#aaaaaaa#aaaaaaa`",
"`bbbbbb.bbbbbbb.bbbbbbb.bbbbb``````bbbb.bbbbbbb.bbbbbbb.bbbbbbb``aaaaaa#aaaaaaa#aaaaaaa#aaad``````eaaaa#aaaaaaa#aaaaaaa#aaaaaaa`",
"`bbbbbb.bbbbbbb.bbbbbbb.bbbbb``````bbbb.bbbbbbb.bbbbbbb.bbbbbbb``aaaaaa#aaaaaaa#aaaaaaa#aac``````#aaaaa#aaaaaaa#aaaaaaa#aaaaaaa`",
"`bbbbbb.bbbbbbb.bbbbbbb.bbbbb``````bbbb.bbbbbbb.bbbbbbb.bbbbbbb``aaaaaa#aaaaaaa#aaaaaaa##``````caaaaaaa#aaaaaaa#aaaaaaa#aaaaaaa`",
"`bbbbbb.bbbbbbb.bbbbbbb.bbbbb``````bbbb.bbbbbbb.bbbbbbb.bbbbbbb``aaaaaa#aaaaaaa#aaaaaaae``````##aaaaaaa#aaaaaaa#aaaaaaa#aaaaaaa`",
"`bbbbbb.bbbbbbb.bbbbbbb.bbbbb``````bbbb.bbbbbbb.bbbbbbb.bbbbbbb``aaaaaa#aaaaaaa#aaaaaa#`````c#a#aaaaaaa#aaaaaaa#aaaaaaa#aaaaaaa`",
"`............................``````............................``####################e``````###################################`",
"`bbbbbb.bbbbbbb.bbbbbbb.bbbbb``````bbbb.bbbbbbb.bbbbbbb.bbbbbbb``aaaaaa#aaaaaaa#aaaaa``````````````````caaaaaaa#aaaaaaa#aaaaaaa`",
"`bbbbbb.bbbbbbb.bbbbbbb.bbbbb``````bbbb.bbbbbbb.bbbbbbb.bbbbbbb``aaaaaa#aaaaaaa#aaaad``````````````````caaaaaaa#aaaaaaa#aaaaaaa`",
"`bbbbbb.bbbbbbb.bbbbbbb.bbbbb``````bbbb.bbbbbbb.bbbbbbb.bbbbbbb``aaaaaa#aaaaaaa#aaaa```````````````````caaaaaaa#aaaaaaa#aaaaaaa`",
"`bbbbbb.bbbbbbb.bbbbbbb.bbbbb``````bbbb.bbbbbbb.bbbbbbb.bbbbbbb``aaaaaa#aaaaaaa#aaad```````````````````caaaaaaa#aaaaaaa#aaaaaaa`",
"`bbbbbb.bbbbbbb.bbbbbbb.bbbbb``````bbbb.bbbbbbb.bbbbbbb.bbbbbbb``aaaaaa#aaaaaaa#aaac```````````````````caaaaaaa#aaaaaaa#aaaaaaa`",
"`bbbbbb.bbbbbbb.bbbbbbb.bbbbbbb.bbbbbbb.bbbbbbb.bbbbbbb.bbbbbbb``aaaaaa#aaaaaaa#aaaaaaa#aaaaaaa#aaaaaaa#aaaaaaa#aaaaaaa#aaaaaaa`",
"`bbbbbb.bbbbbbb.bbbbbbb.bbbbbbb.bbbbbbb.bbbbbbb.bbbbbbb.bbbbbbb``aaaaaa#aaaaaaa#aaaaaaa#aaaaaaa#aaaaaaa#aaaaaaa#aaaaaaa#aaaaaaa`",
"`..............................................................``##############################################################`",
"`bbbbbb.bbbbbbb.bbbbbbb.bbbbbbb.bbbbbbb.bbbbbbb.bbbbbbb.bbbbbbb``aaaaaa#aaaaaaa#aaaaaaa#aaaaaaa#aaaaaaa#aaaaaaa#aaaaaaa#aaaaaaa`",
"`bbbbbb.bbbbbbb.bbbbbbb.bbbbbbb.bbbbbbb.bbbbbbb.bbbbbbb.bbbbbbb``aaaaaa#aaaaaaa#aaaaaaa#aaaaaaa#aaaaaaa#aaaaaaa#aaaaaaa#aaaaaaa`",
"`bbbbbb.bbbbbbb.bbbbbbb.bbbbbbb.bbbbbbb.bbbbbbb.bbbbbbb.bbbbbbb``aaaaaa#aaaaaaa#aaaaaaa#aaaaaaa#aaaaaaa#aaaaaaa#aaaaaaa#aaaaaaa`",
"`bbbbbb.bbbbbbb.bbbbbbb.bbbbbbb.bbbbbbb.bbbbbbb.bbbbbbb.bbbbbbb``aaaaaa#aaaaaaa#aaaaaaa#aaaaaaa#aaaaaaa#aaaaaaa#aaaaaaa#aaaaaaa`",
"`bbbbbb.bbbbbbb.bbbbbbb.bbbbbbb.bbbbbbb.bbbbbbb.bbbbbbb.bbbbbbb``aaaaaa#aaaaaaa#aaaaaaa#aaaaaaa#aaaaaaa#aaaaaaa#aaaaaaa#aaaaaaa`",
"`bbbbbb.bbbbbbb.bbbbbbb.bbbbbbb.bbbbbbb.bbbbbbb.bbbbbbb.bbbbbbb``aaaaaa#aaaaaaa#aaaaaaa#aaaaaaa#aaaaaaa#aaaaaaa#aaaaaaa#aaaaaaa`",
"`bbbbbb.bbbbbbb.bbbbbbb.bbbbbbb.bbbbbbb.bbbbbbb.bbbbbbb.bbbbbbb``aaaaaa#aaaaaaa#aaaaaaa#aaaaaaa#aaaaaaa#aaaaaaa#aaaaaaa#aaaaaaa`",
"`..............................................................``##############################################################`",
"`bbbbbb.bbbbbbb.bbbbbbb.bbbbbbb.bbbbbbb.bbbbbbb.bbbbbbb.bbbbbbb``aaaaaa#aaaaaaa#aaaaaaa#aaaaaaa#aaaaaaa#aaaaaaa#aaaaaaa#aaaaaaa`",
"`bbbbbb.bbbbbbb.bbbbbbb.bbbbbbb.bbbbbbb.bbbbbbb.bbbbbbb.bbbbbbb``aaaaaa#aaaaaaa#aaaaaaa#aaaaaaa#aaaaaaa#aaaaaaa#aaaaaaa#aaaaaaa`",
"`bbbbbb.bbbbbbb.bbbbbbb.bbbbbbb.bbbbbbb.bbbbbbb.bbbbbbb.bbbbbbb``aaaaaa#aaaaaaa#aaaaaaa#aaaaaaa#aaaaaaa#aaaaaaa#aaaaaaa#aaaaaaa`",
"`bbbbbb.bbbbbbb.bbbbbbb.bbbbbbb.bbbbbbb.bbbbbbb.bbbbbbb.bbbbbbb``aaaaaa#aaaaaaa#aaaaaaa#aaaaaaa#aaaaaaa#aaaaaaa#aaaaaaa#aaaaaaa`",
"`bbbbbb.bbbbbbb.bbbbbbb.bbbbbbb.bbbbbbb.bbbbbbb.bbbbbbb.bbbbbbb``aaaaaa#aaaaaaa#aaaaaaa#aaaaaaa#aaaaaaa#aaaaaaa#aaaaaaa#aaaaaaa`",
"`bbbbbb.bbbbbbb.bbbbbbb.bbbbbbb.bbbbbbb.bbbbbbb.bbbbbbb.bbbbbbb``aaaaaa#aaaaaaa#aaaaaaa#aaaaaaa#aaaaaaa#aaaaaaa#aaaaaaa#aaaaaaa`",
"`bbbbbb.bbbbbbb.bbbbbbb.bbbbbbb.bbbbbbb.bbbbbbb.bbbbbbb.bbbbbbb``aaaaaa#aaaaaaa#aaaaaaa#aaaaaaa#aaaaaaa#aaaaaaa#aaaaaaa#aaaaaaa`",
"````````````````````````````````````````````````````````````````````````````````````````````````````````````````````````````````",
"````````````````````````````````````````````````````````````````````````````````````````````````````````````````````````````````",
"`aaaaaa#aaaaaaa#aaaaaaa#aaaaaaa#aaaaaaa#aaaaaaa#aaaaaaa#aaaaaaa``bbbbbb.bbbbbbb.bbbbbbb.bbbbbbb.bbbbbbb.bbbbbbb.bbbbbbb.bbbbbbb`",
"`aaaaaa#aaaaaaa#aaaaaaa#aaaaaaa#aaaaaaa#aaaaaaa#aaaaaaa#aaaaaaa``bbbbbb.bbbbbbb.bbbbbbb.bbbbbbb.bbbbbbb.bbbbbbb.bbbbbbb.bbbbbbb`",
"`aaaaaa#aaaaaaa#aaaaaaa#aaaaaaa#aaaaaaa#aaaaaaa#aaaaaaa#aaaaaaa``bbbbbb.bbbbbbb.bbbbbbb.bbbbbbb.bbbbbbb.bbbbbbb.bbbbbbb.bbbbbbb`",
"`aaaaaa#aaaaaaa#aaaaaaa#aaaaaaa#aaaaaaa#aaaaaaa#aaaaaaa#aaaaaaa``bbbbbb.bbbbbbb.bbbbbbb.bbbbbbb.bbbbbbb.bbbbbbb.bbbbbbb.bbbbbbb`",
"`aaaaaa#aaaaaaa#aaaaaaa#aaaaaaa#aaaaaaa#aaaaaaa#aaaaaaa#aaaaaaa``bbbbbb.bbbbbbb.bbbbbbb.bbbbbbb.bbbbbbb.bbbbbbb.bbbbbbb.bbbbbbb`",
"`aaaaaa#aaaaaaa#aaaaaaa#aaaaaaa#aaaaaaa#aaaaaaa#aaaaaaa#aaaaaaa``bbbbbb.bbbbbbb.bbbbbbb.bbbbbbb.bbbbbbb.bbbbbbb.bbbbbbb.bbbbbbb`",
"`aaaaaa#aaaaaaa#aaaaaaa#aaaaaaa#aaaaaaa#aaaaaaa#aaaaaaa#aaaaaaa``bbbbbb.bbbbbbb.bbbbbbb.bbbbbbb.bbbbbbb.bbbbbbb.bbbbbbb.bbbbbbb`",
"`##############################################################``..............................................................`",
"`aaaaaa#aaaaaaa#aaaaaaa#aaaaaaa#aaaaaaa#aaaaaaa#aaaaaaa#aaaaaaa``bbbbbb.bbbbbbb.bbbbbbb.bbbbbbb.bbbbbbb.bbbbbbb.bbbbbbb.bbbbbbb`",
"`aaaaaa#aaaaaaa#aaaaaaa#aaaaaaa#aaaaaaa#aaaaaaa#aaaaaaa#aaaaaaa``bbbbbb.bbbbbbb.bbbbbbb.bbbbbbb.bbbbbbb.bbbbbbb.bbbbbbb.bbbbbbb`",
"`aaaaaa#aaaaaaa#aaaaaaa#aaaaaaa#aaaaaaa#aaaaaaa#aaaaaaa#aaaaaaa``bbbbbb.bbbbbbb.bbbbbbb.bbbbbbb.bbbbbbb.bbbbbbb.bbbbbbb.bbbbbbb`",
"`aaaaaa#aaaaaaa#aaaaaaa#aaaaaaa#aaaaaaa#aaaaaaa#aaaaaaa#aaaaaaa``bbbbbb.bbbbbbb.bbbbbbb.bbbbbbb.bbbbbbb.bbbbbbb.bbbbbbb.bbbbbbb`",
"`aaaaaa#aaaaaaa#aaaaaaa#aaaaaaa#aaaaaaa#aaaaaaa#aaaaaaa#aaaaaaa``bbbbbb.bbbbbbb.bbbbbbb.bbbbbbb.bbbbbbb.bbbbbbb.bbbbbbb.bbbbbbb`",
"`aaaaaa#aaaaaaa#aaaaaaa#aaaaaaa#aaaaaaa#aaaaaaa#aaaaaaa#aaaaaaa``bbbbbb.bbbbbbb.bbbbbbb.bbbbbbb.bbbbbbb.bbbbbbb.bbbbbbb.bbbbbbb`",
"`aaaaaa#aaaaaaa#aaaaaaa#aaaaaaa#aaaaaaa#aaaaaaa#aaaaaaa#aaaaaaa``bbbbbb.bbbbbbb.bbbbbbb.bbbbbbb.bbbbbbb.bbbbbbb.bbbbbbb.bbbbbbb`",
"`##############################################################``..............................................................`",
"`aaaaaa#aaaaaaa#aaaaaaa#aaaaaaa#aaaaaaa#aaaaaaa#aaaaaaa#aaaaaaa``bbbbbb.bbbbbbb.bbbbbbb.bbbbbbb.bbbbbbb.bbbbbbb.bbbbbbb.bbbbbbb`",
"`aaaaaa#aaaaaaa#aaaaaaa#aaaaaaa#aaaaaaa#aaaaaaa#aaaaaaa#aaaaaaa``bbbbbb.bbbbbbb.bbbbbbb.bbbbbbb.bbbbbbb.bbbbbbb.bbbbbbb.bbbbbbb`",
"`aaaaaa#aaaaaaa#aaaaaaa#a#e``````eeaaaa#aaaaaaa#aaaaaaa#aaaaaaa``bbbbbb.bbbbbbb.bbbbbbb.bbbbb.`````bbbb.bbbbbbb.bbbbbbb.bbbbbbb`",
"`aaaaaa#aaaaaaa#aaaaaaad````````````eaa#aaaaaaa#aaaaaaa#aaaaaaa``bbbbbb.bbbbbbb.bbbbbbb.bbbbbc`````bbbb.bbbbbbb.bbbbbbb.bbbbbbb`",
"`aaaaaa#aaaaaaa#aaaaaae``````````````ca#aaaaaaa#aaaaaaa#aaaaaaa``bbbbbb.bbbbbbb.bbbbbbb.bbbbc``````bbbb.bbbbbbb.bbbbbbb.bbbbbbb`",
"`aaaaaa#aaaaaaa#aaaaae````````````````d#aaaaaaa#aaaaaaa#aaaaaaa``bbbbbb.bbbbbbb.bbbbbbb.bbb.```````bbbb.bbbbbbb.bbbbbbb.bbbbbbb`",
"`aaaaaa#aaaaaaa#aaaaa``````````````````eaaaaaaa#aaaaaaa#aaaaaaa``bbbbbb.bbbbbbb.bbbbbbb.bbc````````bbbb.bbbbbbb.bbbbbbb.bbbbbbb`",
"`###################d``````ce##ec``````c#######################``.......................c``````````............................`",
"`aaaaaa#aaaaaaa#aaaac`````daaaa#ac`````caaaaaaa#aaaaaaa#aaaaaaa``bbbbbb.bbbbbbb.bbbbbbc````````````bbbb.bbbbbbb.bbbbbbb.bbbbbbb`",
"`aaaaaa#aaaaaaa#aaaa``````aaaaa#a#`````caaaaaaa#aaaaaaa#aaaaaaa``bbbbbb.bbbbbbb.bbbbbc`````````````bbbb.bbbbbbb.bbbbbbb.bbbbbbb`",
"`aaaaaa#aaaaaaa#aaaaeec``caaaaa#aa`````caaaaaaa#aaaaaaa#aaaaaaa``bbbbbb.bbbbbbb.bbbbbc``````.``````bbbb.bbbbbbb.bbbbbbb.bbbbbbb`",
"`aaaaaa#aaaaaaa#aaaaaaa#aaaaaaa#ae`````daaaaaaa#aaaaaaa#aaaaaaa``bbbbbb.bbbbbbb.bbbbbc````cbb``````bbbb.bbbbbbb.bbbbbbb.bbbbbbb`",
"`aaaaaa#aaaaaaa#aaaaaaa#aaaaaaa#a``````#aaaaaaa#aaaaaaa#aaaaaaa``bbbbbb.bbbbbbb.bbbbbc```.bbb``````bbbb.bbbbbbb.bbbbbbb.bbbbbbb`",
"`aaaaaa#aaaaaaa#aaaaaaa#aaaaaaa#d`````e#aaaaaaa#aaaaaaa#aaaaaaa``bbbbbb.bbbbbbb.bbbbbcccbbbbb``````bbbb.bbbbbbb.bbbbbbb.bbbbbbb`",
"`aaaaaa#aaaaaaa#aaaaaaa#aaaaaaac`````da#aaaaaaa#aaaaaaa#aaaaaaa``bbbbbb.bbbbbbb.bbbbbbb.bbbbb``````bbbb.bbbbbbb.bbbbbbb.bbbbbbb`",
"`#############################``````c##########################``............................``````............................`",
"`aaaaaa#aaaaaaa#aaaaaaa#aaaa#``````caaa#aaaaaaa#aaaaaaa#aaaaaaa``bbbbbb.bbbbbbb.bbbbbbb.bbbbb``````bbbb.bbbbbbb.bbbbbbb.bbbbbbb`",
"`aaaaaa#aaaaaaa#aaaaaaa#aaae``````eaaaa#aaaaaaa#aaaaaaa#aaaaaaa``bbbbbb.bbbbbbb.bbbbbbb.bbbbb``````bbbb.bbbbbbb.bbbbbbb.bbbbbbb`",
"`aaaaaa#aaaaaaa#aaaaaaa#aac``````#aaaaa#aaaaaaa#aaaaaaa#aaaaaaa``bbbbbb.bbbbbbb.bbbbbbb.bbbbb``````bbbb.bbbbbbb.bbbbbbb.bbbbbbb`",
"`aaaaaa#aaaaaaa#aaaaaaa##``````caaaaaaa#aaaaaaa#aaaaaaa#aaaaaaa``bbbbbb.bbbbbbb.bbbbbbb.bbbbb``````bbbb.bbbbbbb.bbbbbbb.bbbbbbb`",
"`aaaaaa#aaaaaaa#aaaaaaae``````##aaaaaaa#aaaaaaa#aaaaaaa#aaaaaaa``bbbbbb.bbbbbbb.bbbbbbb.bbbbb``````bbbb.bbbbbbb.bbbbbbb.bbbbbbb`",
"`aaaaaa#aaaaaaa#aaaaaa#`````c#a#aaaaaaa#aaaaaaa#aaaaaaa#aaaaaaa``bbbbbb.bbbbbbb.bbbbbbb.bbbbb``````bbbb.bbbbbbb.bbbbbbb.bbbbbbb`",
"`aaaaaa#aaaaaaa#aaaaa#``````aaa#aaaaaaa#aaaaaaa#aaaaaaa#aaaaaaa``bbbbbb.bbbbbbb.bbbbbbb.bbbbb``````bbbb.bbbbbbb.bbbbbbb.bbbbbbb`",
"`####################``````````````````c#######################``............................``````............................`",
"`aaaaaa#aaaaaaa#aaaad``````````````````caaaaaaa#aaaaaaa#aaaaaaa``bbbbbb.bbbbbbb.bbbbbbb.bbbbb``````bbbb.bbbbbbb.bbbbbbb.bbbbbbb`",
"`aaaaaa#aaaaaaa#aaa#```````````````````caaaaaaa#aaaaaaa#aaaaaaa``bbbbbb.bbbbbbb.bbbbbbb.bbbbb``````bbbb.bbbbbbb.bbbbbbb.bbbbbbb`",
"`aaaaaa#aaaaaaa#aaae```````````````````caaaaaaa#aaaaaaa#aaaaaaa``bbbbbb.bbbbbbb.bbbbbbb.bbbbb``````bbbb.bbbbbbb.bbbbbbb.bbbbbbb`",
"`aaaaaa#aaaaaaa#aaac```````````````````caaaaaaa#aaaaaaa#aaaaaaa``bbbbbb.bbbbbbb.bbbbbbb.bbbbb``````bbbb.bbbbbbb.bbbbbbb.bbbbbbb`",
"`aaaaaa#aaaaaaa#aaaaaaa#aaaaaaa#aaaaaaa#aaaaaaa#aaaaaaa#aaaaaaa``bbbbbb.bbbbbbb.bbbbbbb.bbbbbbb.bbbbbbb.bbbbbbb.bbbbbbb.bbbbbbb`",
"`aaaaaa#aaaaaaa#aaaaaaa#aaaaaaa#aaaaaaa#aaaaaaa#aaaaaaa#aaaaaaa``bbbbbb.bbbbbbb.bbbbbbb.bbbbbbb.bbbbbbb.bbbbbbb.bbbbbbb.bbbbbbb`",
"`aaaaaa#aaaaaaa#aaaaaaa#aaaaaaa#aaaaaaa#aaaaaaa#aaaaaaa#aaaaaaa``bbbbbb.bbbbbbb.bbbbbbb.bbbbbbb.bbbbbbb.bbbbbbb.bbbbbbb.bbbbbbb`",
"`##############################################################``..............................................................`",
"`aaaaaa#aaaaaaa#aaaaaaa#aaaaaaa#aaaaaaa#aaaaaaa#aaaaaaa#aaaaaaa``bbbbbb.bbbbbbb.bbbbbbb.bbbbbbb.bbbbbbb.bbbbbbb.bbbbbbb.bbbbbbb`",
"`aaaaaa#aaaaaaa#aaaaaaa#aaaaaaa#aaaaaaa#aaaaaaa#aaaaaaa#aaaaaaa``bbbbbb.bbbbbbb.bbbbbbb.bbbbbbb.bbbbbbb.bbbbbbb.bbbbbbb.bbbbbbb`",
"`aaaaaa#aaaaaaa#aaaaaaa#aaaaaaa#aaaaaaa#aaaaaaa#aaaaaaa#aaaaaaa``bbbbbb.bbbbbbb.bbbbbbb.bbbbbbb.bbbbbbb.bbbbbbb.bbbbbbb.bbbbbbb`",
"`aaaaaa#aaaaaaa#aaaaaaa#aaaaaaa#aaaaaaa#aaaaaaa#aaaaaaa#aaaaaaa``bbbbbb.bbbbbbb.bbbbbbb.bbbbbbb.bbbbbbb.bbbbbbb.bbbbbbb.bbbbbbb`",
"`aaaaaa#aaaaaaa#aaaaaaa#aaaaaaa#aaaaaaa#aaaaaaa#aaaaaaa#aaaaaaa``bbbbbb.bbbbbbb.bbbbbbb.bbbbbbb.bbbbbbb.bbbbbbb.bbbbbbb.bbbbbbb`",
"`aaaaaa#aaaaaaa#aaaaaaa#aaaaaaa#aaaaaaa#aaaaaaa#aaaaaaa#aaaaaaa``bbbbbb.bbbbbbb.bbbbbbb.bbbbbbb.bbbbbbb.bbbbbbb.bbbbbbb.bbbbbbb`",
"`aaaaaa#aaaaaaa#aaaaaaa#aaaaaaa#aaaaaaa#aaaaaaa#aaaaaaa#aaaaaaa``bbbbbb.bbbbbbb.bbbbbbb.bbbbbbb.bbbbbbb.bbbbbbb.bbbbbbb.bbbbbbb`",
"`##############################################################``..............................................................`",
"`aaaaaa#aaaaaaa#aaaaaaa#aaaaaaa#aaaaaaa#aaaaaaa#aaaaaaa#aaaaaaa``bbbbbb.bbbbbbb.bbbbbbb.bbbbbbb.bbbbbbb.bbbbbbb.bbbbbbb.bbbbbbb`",
"`aaaaaa#aaaaaaa#aaaaaaa#aaaaaaa#aaaaaaa#aaaaaaa#aaaaaaa#aaaaaaa``bbbbbb.bbbbbbb.bbbbbbb.bbbbbbb.bbbbbbb.bbbbbbb.bbbbbbb.bbbbbbb`",
"`aaaaaa#aaaaaaa#aaaaaaa#aaaaaaa#aaaaaaa#aaaaaaa#aaaaaaa#aaaaaaa``bbbbbb.bbbbbbb.bbbbbbb.bbbbbbb.bbbbbbb.bbbbbbb.bbbbbbb.bbbbbbb`",
"`aaaaaa#aaaaaaa#aaaaaaa#aaaaaaa#aaaaaaa#aaaaaaa#aaaaaaa#aaaaaaa``bbbbbb.bbbbbbb.bbbbbbb.bbbbbbb.bbbbbbb.bbbbbbb.bbbbbbb.bbbbbbb`",
"`aaaaaa#aaaaaaa#aaaaaaa#aaaaaaa#aaaaaaa#aaaaaaa#aaaaaaa#aaaaaaa``bbbbbb.bbbbbbb.bbbbbbb.bbbbbbb.bbbbbbb.bbbbbbb.bbbbbbb.bbbbbbb`",
"`aaaaaa#aaaaaaa#aaaaaaa#aaaaaaa#aaaaaaa#aaaaaaa#aaaaaaa#aaaaaaa``bbbbbb.bbbbbbb.bbbbbbb.bbbbbbb.bbbbbbb.bbbbbbb.bbbbbbb.bbbbbbb`",
"````````````````````````````````````````````````````````````````````````````````````````````````````````````````````````````````"
};
